SplineFontDB: 3.2
FontName: OpenBaskerville-Regular
FullName: OpenBaskervilleLatin&Cyrillic
FamilyName: OpenBaskervilleLatin&Cyrillic
Weight: Regular
Copyright: Copyright (c) 2023, Volodymyr Artemenko GPL v3.0 repository(https://gitlab.com/AVPSoftworks/open-baskerville)
Version: 1.000; ttfautohint (v0.93) -l 8 -r 50 -G 200 -x 14 -w "G"
ItalicAngle: 0
UnderlinePosition: -100
UnderlineWidth: 50
Ascent: 800
Descent: 200
InvalidEm: 0
sfntRevision: 0x00010000
LayerCount: 2
Layer: 0 1 "Back" 1
Layer: 1 1 "Fore" 0
XUID: [1021 121 -1525198453 13977]
StyleMap: 0x0040
FSType: 0
OS2Version: 3
OS2_WeightWidthSlopeOnly: 0
OS2_UseTypoMetrics: 0
CreationTime: 1354221900
ModificationTime: 1680813800
PfmFamily: 17
TTFWeight: 400
TTFWidth: 5
LineGap: 0
VLineGap: 0
Panose: 2 0 0 0 0 0 0 0 0 0
OS2TypoAscent: 970
OS2TypoAOffset: 0
OS2TypoDescent: -270
OS2TypoDOffset: 0
OS2TypoLinegap: 0
OS2WinAscent: 970
OS2WinAOffset: 0
OS2WinDescent: 270
OS2WinDOffset: 0
HheadAscent: 970
HheadAOffset: 0
HheadDescent: -270
HheadDOffset: 0
OS2SubXSize: 700
OS2SubYSize: 650
OS2SubXOff: 0
OS2SubYOff: 140
OS2SupXSize: 700
OS2SupYSize: 650
OS2SupXOff: 0
OS2SupYOff: 477
OS2StrikeYSize: 50
OS2StrikeYPos: 250
OS2CapHeight: 770
OS2XHeight: 530
OS2Vendor: 'pyrs'
OS2CodePages: 00000093.00000000
OS2UnicodeRanges: a00000bf.5000005b.00000000.00000000
Lookup: 4 0 1 "'liga' Standard Ligatures in Latin lookup 0" { "'liga' Standard Ligatures in Latin lookup 0 subtable"  } ['liga' ('latn' <'dflt' > ) ]
Lookup: 4 0 0 "'dlig' Discretionary Ligatures in Latin lookup 1" { "'dlig' Discretionary Ligatures in Latin lookup 1 subtable"  } ['dlig' ('latn' <'dflt' > ) ]
Lookup: 4 0 0 "'frac' Diagonal Fractions in Latin lookup 2" { "'frac' Diagonal Fractions in Latin lookup 2 subtable"  } ['frac' ('latn' <'dflt' > ) ]
Lookup: 1 0 0 "'sinf' Scientific Inferiors in Latin lookup 3" { "'sinf' Scientific Inferiors in Latin lookup 3 subtable"  } ['sinf' ('latn' <'dflt' > ) ]

StartChar: .notdef
Encoding: 65536 -1 0
Width: 756
GlyphClass: 1
Flags: W
LayerCount: 2
Fore
SplineSet
130 970 m 1,0,-1
 626 970 l 1,1,-1
 626 -260 l 1,2,-1
 130 -260 l 1,3,-1
 130 970 l 1,0,-1
240 -199 m 1,4,-1
 515 -199 l 1,5,-1
 515 911 l 1,6,-1
 240 911 l 1,7,-1
 240 -199 l 1,4,-1
EndSplineSet
EndChar

StartChar: exclam
Encoding: 33 33 4
Width: 308
GlyphClass: 1
Flags: W
LayerCount: 2
Fore
SplineSet
89 55 m 0,0,1
 89 83 89 83 108 102 c 128,-1,2
 127 121 127 121 154 121 c 0,3,4
 182 121 182 121 201 102 c 128,-1,5
 220 83 220 83 220 55 c 0,6,7
 220 28 220 28 201 9 c 128,-1,8
 182 -10 182 -10 154 -10 c 0,9,10
 127 -10 127 -10 108 9 c 128,-1,11
 89 28 89 28 89 55 c 0,0,1
130 207 m 1,12,13
 130 287 130 287 128.5 343 c 128,-1,14
 127 399 127 399 123.5 441 c 128,-1,15
 120 483 120 483 115 516 c 128,-1,16
 110 549 110 549 104 584 c 0,17,18
 99 612 99 612 96 630.5 c 128,-1,19
 93 649 93 649 91.5 662.5 c 128,-1,20
 90 676 90 676 89.5 687.5 c 128,-1,21
 89 699 89 699 89 714 c 0,22,23
 89 741 89 741 106.5 760.5 c 128,-1,24
 124 780 124 780 154 780 c 256,25,26
 184 780 184 780 201.5 760.5 c 128,-1,27
 219 741 219 741 219 714 c 0,28,29
 219 700 219 700 219 688.5 c 128,-1,30
 219 677 219 677 217.5 663 c 128,-1,31
 216 649 216 649 213 629.5 c 128,-1,32
 210 610 210 610 204 580 c 0,33,34
 198 547 198 547 193 514.5 c 128,-1,35
 188 482 188 482 185 440.5 c 128,-1,36
 182 399 182 399 180 343 c 128,-1,37
 178 287 178 287 178 207 c 1,38,-1
 130 207 l 1,12,13
EndSplineSet
EndChar

StartChar: quotedbl
Encoding: 34 34 5
Width: 367
GlyphClass: 1
Flags: W
LayerCount: 2
Fore
SplineSet
93 564 m 1,0,1
 89 592 89 592 83.5 625 c 128,-1,2
 78 658 78 658 72.5 689 c 128,-1,3
 67 720 67 720 63.5 744.5 c 128,-1,4
 60 769 60 769 60 781 c 0,5,6
 60 802 60 802 73.5 816 c 128,-1,7
 87 830 87 830 107 830 c 256,8,9
 127 830 127 830 140.5 816 c 128,-1,10
 154 802 154 802 154 780 c 0,11,12
 154 768 154 768 150.5 743 c 128,-1,13
 147 718 147 718 142 688 c 128,-1,14
 137 658 137 658 131.5 625 c 128,-1,15
 126 592 126 592 122 564 c 1,16,-1
 93 564 l 1,0,1
245 564 m 1,17,18
 241 592 241 592 235.5 625 c 128,-1,19
 230 658 230 658 224.5 689 c 128,-1,20
 219 720 219 720 215.5 744.5 c 128,-1,21
 212 769 212 769 212 781 c 0,22,23
 212 802 212 802 225.5 816 c 128,-1,24
 239 830 239 830 259 830 c 256,25,26
 279 830 279 830 292.5 816 c 128,-1,27
 306 802 306 802 306 780 c 0,28,29
 306 768 306 768 302.5 743 c 128,-1,30
 299 718 299 718 294 688 c 128,-1,31
 289 658 289 658 283.5 625 c 128,-1,32
 278 592 278 592 274 564 c 1,33,-1
 245 564 l 1,17,18
EndSplineSet
EndChar

StartChar: numbersign
Encoding: 35 35 6
Width: 666
GlyphClass: 1
Flags: W
LayerCount: 2
Fore
SplineSet
590 255 m 1,0,-1
 451 255 l 1,1,-1
 414 0 l 1,2,-1
 355 0 l 1,3,-1
 390 255 l 1,4,-1
 239 255 l 1,5,-1
 201 0 l 1,6,-1
 141 0 l 1,7,-1
 179 255 l 1,8,-1
 39 255 l 1,9,-1
 47 305 l 1,10,-1
 189 305 l 1,11,-1
 213 475 l 1,12,-1
 70 475 l 1,13,-1
 78 525 l 1,14,-1
 222 525 l 1,15,-1
 257 770 l 1,16,-1
 317 770 l 1,17,-1
 282 525 l 1,18,-1
 433 525 l 1,19,-1
 467 770 l 1,20,-1
 527 770 l 1,21,-1
 493 525 l 1,22,-1
 627 525 l 1,23,-1
 619 475 l 1,24,-1
 484 475 l 1,25,-1
 461 305 l 1,26,-1
 598 305 l 1,27,-1
 590 255 l 1,0,-1
273 475 m 1,28,-1
 249 305 l 1,29,-1
 400 305 l 1,30,-1
 423 475 l 1,31,-1
 273 475 l 1,28,-1
EndSplineSet
EndChar

StartChar: dollar
Encoding: 36 36 7
Width: 622
GlyphClass: 1
Flags: W
LayerCount: 2
Fore
SplineSet
343 900 m 1,0,-1
 343 778 l 1,1,2
 385 774 385 774 423 760 c 128,-1,3
 461 746 461 746 489.5 725 c 128,-1,4
 518 704 518 704 534.5 678 c 128,-1,5
 551 652 551 652 551 624 c 0,6,7
 551 598 551 598 537 584 c 128,-1,8
 523 570 523 570 499 570 c 0,9,10
 477 570 477 570 466.5 581 c 128,-1,11
 456 592 456 592 450 608.5 c 128,-1,12
 444 625 444 625 439 645 c 128,-1,13
 434 665 434 665 424 682.5 c 128,-1,14
 414 700 414 700 395.5 713.5 c 128,-1,15
 377 727 377 727 343 731 c 1,16,-1
 343 455 l 1,17,18
 409 426 409 426 453.5 399.5 c 128,-1,19
 498 373 498 373 526 344.5 c 128,-1,20
 554 316 554 316 566 285 c 128,-1,21
 578 254 578 254 578 217 c 0,22,23
 578 170 578 170 561 130.5 c 128,-1,24
 544 91 544 91 513 61.5 c 128,-1,25
 482 32 482 32 438.5 14 c 128,-1,26
 395 -4 395 -4 343 -8 c 1,27,-1
 343 -170 l 1,28,-1
 288 -170 l 1,29,-1
 288 -9 l 1,30,31
 238 -7 238 -7 193 7 c 128,-1,32
 148 21 148 21 113.5 44 c 128,-1,33
 79 67 79 67 58.5 98.5 c 128,-1,34
 38 130 38 130 38 168 c 0,35,36
 38 202 38 202 53 216 c 128,-1,37
 68 230 68 230 87 230 c 256,38,39
 106 230 106 230 117.5 218.5 c 128,-1,40
 129 207 129 207 136 190.5 c 128,-1,41
 143 174 143 174 147 156 c 128,-1,42
 151 138 151 138 154 126 c 0,43,44
 158 110 158 110 166.5 95.5 c 128,-1,45
 175 81 175 81 190.5 69 c 128,-1,46
 206 57 206 57 229.5 49.5 c 128,-1,47
 253 42 253 42 288 41 c 1,48,-1
 288 341 l 1,49,50
 250 357 250 357 213 375 c 128,-1,51
 176 393 176 393 147 419 c 128,-1,52
 118 445 118 445 100 481 c 128,-1,53
 82 517 82 517 82 568 c 0,54,55
 82 613 82 613 96.5 650.5 c 128,-1,56
 111 688 111 688 138 715.5 c 128,-1,57
 165 743 165 743 203 759.5 c 128,-1,58
 241 776 241 776 288 779 c 1,59,-1
 288 900 l 1,60,-1
 343 900 l 1,0,-1
474 169 m 0,61,62
 474 198 474 198 463.5 220.5 c 128,-1,63
 453 243 453 243 435.5 260.5 c 128,-1,64
 418 278 418 278 394 291.5 c 128,-1,65
 370 305 370 305 343 317 c 1,66,-1
 343 43 l 1,67,68
 409 51 409 51 441.5 84.5 c 128,-1,69
 474 118 474 118 474 169 c 0,61,62
176 618 m 0,70,71
 176 576 176 576 202.5 542 c 128,-1,72
 229 508 229 508 288 479 c 1,73,-1
 288 730 l 1,74,75
 236 722 236 722 206 693 c 128,-1,76
 176 664 176 664 176 618 c 0,70,71
EndSplineSet
EndChar

StartChar: percent
Encoding: 37 37 8
Width: 671
GlyphClass: 1
Flags: W
LayerCount: 2
Fore
SplineSet
92 0 m 1,0,-1
 35 0 l 1,1,-1
 588 770 l 1,2,-1
 636 770 l 1,3,-1
 92 0 l 1,0,-1
200 780 m 256,4,5
 224 780 224 780 245.5 767.5 c 128,-1,6
 267 755 267 755 283 733.5 c 128,-1,7
 299 712 299 712 308.5 683 c 128,-1,8
 318 654 318 654 318 620 c 0,9,10
 318 587 318 587 308.5 558.5 c 128,-1,11
 299 530 299 530 283 509 c 128,-1,12
 267 488 267 488 245.5 476 c 128,-1,13
 224 464 224 464 200 464 c 256,14,15
 176 464 176 464 154.5 476 c 128,-1,16
 133 488 133 488 117 509 c 128,-1,17
 101 530 101 530 91.5 558.5 c 128,-1,18
 82 587 82 587 82 620 c 0,19,20
 82 654 82 654 91.5 683 c 128,-1,21
 101 712 101 712 117 733.5 c 128,-1,22
 133 755 133 755 154.5 767.5 c 128,-1,23
 176 780 176 780 200 780 c 256,4,5
200 489 m 256,24,25
 229 489 229 489 245 516 c 128,-1,26
 261 543 261 543 261 618 c 0,27,28
 261 657 261 657 257 683.5 c 128,-1,29
 253 710 253 710 245 726 c 128,-1,30
 237 742 237 742 226 748.5 c 128,-1,31
 215 755 215 755 200 755 c 256,32,33
 185 755 185 755 174 748.5 c 128,-1,34
 163 742 163 742 155 726 c 128,-1,35
 147 710 147 710 143 683.5 c 128,-1,36
 139 657 139 657 139 618 c 0,37,38
 139 543 139 543 155 516 c 128,-1,39
 171 489 171 489 200 489 c 256,24,25
471 306 m 256,40,41
 495 306 495 306 516.5 293.5 c 128,-1,42
 538 281 538 281 554 259.5 c 128,-1,43
 570 238 570 238 579.5 209 c 128,-1,44
 589 180 589 180 589 146 c 0,45,46
 589 113 589 113 579.5 84.5 c 128,-1,47
 570 56 570 56 554 35 c 128,-1,48
 538 14 538 14 516.5 2 c 128,-1,49
 495 -10 495 -10 471 -10 c 256,50,51
 447 -10 447 -10 425.5 2 c 128,-1,52
 404 14 404 14 388 35 c 128,-1,53
 372 56 372 56 362.5 84.5 c 128,-1,54
 353 113 353 113 353 146 c 0,55,56
 353 180 353 180 362.5 209 c 128,-1,57
 372 238 372 238 388 259.5 c 128,-1,58
 404 281 404 281 425.5 293.5 c 128,-1,59
 447 306 447 306 471 306 c 256,40,41
471 15 m 256,60,61
 500 15 500 15 516 42 c 128,-1,62
 532 69 532 69 532 144 c 0,63,64
 532 183 532 183 528 209.5 c 128,-1,65
 524 236 524 236 516 252 c 128,-1,66
 508 268 508 268 497 274.5 c 128,-1,67
 486 281 486 281 471 281 c 256,68,69
 456 281 456 281 445 274.5 c 128,-1,70
 434 268 434 268 426 252 c 128,-1,71
 418 236 418 236 414 209.5 c 128,-1,72
 410 183 410 183 410 144 c 0,73,74
 410 69 410 69 426 42 c 128,-1,75
 442 15 442 15 471 15 c 256,60,61
EndSplineSet
EndChar

StartChar: ampersand
Encoding: 38 38 9
Width: 878
GlyphClass: 1
Flags: W
LayerCount: 2
Fore
SplineSet
347 458 m 1,0,1
 395 495 395 495 417 533.5 c 128,-1,2
 439 572 439 572 439 617 c 0,3,4
 439 664 439 664 418 691.5 c 128,-1,5
 397 719 397 719 362 719 c 0,6,7
 296 719 296 719 296 618 c 0,8,9
 296 574 296 574 309 533.5 c 128,-1,10
 322 493 322 493 347 458 c 1,0,1
290 364 m 1,11,12
 227 328 227 328 192 279.5 c 128,-1,13
 157 231 157 231 157 179 c 0,14,15
 157 124 157 124 192.5 88.5 c 128,-1,16
 228 53 228 53 284 53 c 0,17,18
 326 53 326 53 374 74 c 128,-1,19
 422 95 422 95 465 133 c 1,20,-1
 290 364 l 1,11,12
537 209 m 1,21,22
 561 239 561 239 581.5 267.5 c 128,-1,23
 602 296 602 296 617 321.5 c 128,-1,24
 632 347 632 347 640 368 c 128,-1,25
 648 389 648 389 648 402 c 0,26,27
 648 418 648 418 633.5 425 c 128,-1,28
 619 432 619 432 587 432 c 1,29,-1
 587 467 l 1,30,-1
 817 467 l 1,31,-1
 817 432 l 1,32,33
 795 432 795 432 779.5 429.5 c 128,-1,34
 764 427 764 427 752 421 c 128,-1,35
 740 415 740 415 729.5 405 c 128,-1,36
 719 395 719 395 709 379 c 2,37,-1
 567 171 l 1,38,39
 609 114 609 114 654.5 84.5 c 128,-1,40
 700 55 700 55 745 55 c 0,41,42
 758 55 758 55 768 57.5 c 128,-1,43
 778 60 778 60 786.5 66.5 c 128,-1,44
 795 73 795 73 802.5 84 c 128,-1,45
 810 95 810 95 818 112 c 1,46,-1
 843 105 l 1,47,48
 832 49 832 49 794 19.5 c 128,-1,49
 756 -10 756 -10 695 -10 c 0,50,51
 670 -10 670 -10 647.5 -4.5 c 128,-1,52
 625 1 625 1 602 14 c 128,-1,53
 579 27 579 27 553 48 c 128,-1,54
 527 69 527 69 496 100 c 1,55,56
 446 48 446 48 380.5 19 c 128,-1,57
 315 -10 315 -10 247 -10 c 0,58,59
 201 -10 201 -10 162.5 3.5 c 128,-1,60
 124 17 124 17 96 40.5 c 128,-1,61
 68 64 68 64 52 96.5 c 128,-1,62
 36 129 36 129 36 167 c 0,63,64
 36 235 36 235 90 292.5 c 128,-1,65
 144 350 144 350 263 408 c 1,66,67
 231 455 231 455 216.5 496 c 128,-1,68
 202 537 202 537 202 582 c 0,69,70
 202 626 202 626 214.5 662.5 c 128,-1,71
 227 699 227 699 250 725 c 128,-1,72
 273 751 273 751 305 765.5 c 128,-1,73
 337 780 337 780 376 780 c 0,74,75
 410 780 410 780 438.5 769 c 128,-1,76
 467 758 467 758 488 738 c 128,-1,77
 509 718 509 718 520.5 691 c 128,-1,78
 532 664 532 664 532 631 c 0,79,80
 532 575 532 575 495.5 526 c 128,-1,81
 459 477 459 477 375 420 c 1,82,-1
 537 209 l 1,21,22
EndSplineSet
EndChar

StartChar: quotesingle
Encoding: 39 39 10
Width: 215
GlyphClass: 1
Flags: W
LayerCount: 2
Fore
SplineSet
93 564 m 1,0,1
 89 592 89 592 83.5 625 c 128,-1,2
 78 658 78 658 72.5 689 c 128,-1,3
 67 720 67 720 63.5 744.5 c 128,-1,4
 60 769 60 769 60 781 c 0,5,6
 60 802 60 802 73.5 816 c 128,-1,7
 87 830 87 830 107 830 c 256,8,9
 127 830 127 830 140.5 816 c 128,-1,10
 154 802 154 802 154 780 c 0,11,12
 154 768 154 768 150.5 743 c 128,-1,13
 147 718 147 718 142 688 c 128,-1,14
 137 658 137 658 131.5 625 c 128,-1,15
 126 592 126 592 122 564 c 1,16,-1
 93 564 l 1,0,1
EndSplineSet
EndChar

StartChar: parenleft
Encoding: 40 40 11
Width: 332
GlyphClass: 1
Flags: W
LayerCount: 2
Fore
SplineSet
312 803 m 1,0,1
 263 737 263 737 231 681.5 c 128,-1,2
 199 626 199 626 180.5 573 c 128,-1,3
 162 520 162 520 154.5 464 c 128,-1,4
 147 408 147 408 147 340 c 0,5,6
 147 257 147 257 156.5 187 c 128,-1,7
 166 117 166 117 187 55.5 c 128,-1,8
 208 -6 208 -6 241 -60.5 c 128,-1,9
 274 -115 274 -115 320 -166 c 1,10,-1
 289 -194 l 1,11,12
 169 -77 169 -77 108 53.5 c 128,-1,13
 47 184 47 184 47 323 c 0,14,15
 47 459 47 459 106 587 c 128,-1,16
 165 715 165 715 281 831 c 1,17,-1
 312 803 l 1,0,1
EndSplineSet
EndChar

StartChar: parenright
Encoding: 41 41 12
Width: 332
GlyphClass: 1
Flags: W
LayerCount: 2
Fore
SplineSet
51 831 m 1,0,1
 167 715 167 715 226 587 c 128,-1,2
 285 459 285 459 285 323 c 0,3,4
 285 184 285 184 224 53.5 c 128,-1,5
 163 -77 163 -77 43 -194 c 1,6,-1
 12 -166 l 1,7,8
 58 -115 58 -115 91 -60.5 c 128,-1,9
 124 -6 124 -6 145 55.5 c 128,-1,10
 166 117 166 117 175.5 187 c 128,-1,11
 185 257 185 257 185 340 c 0,12,13
 185 408 185 408 177.5 464 c 128,-1,14
 170 520 170 520 151.5 573 c 128,-1,15
 133 626 133 626 101 681.5 c 128,-1,16
 69 737 69 737 20 803 c 1,17,-1
 51 831 l 1,0,1
EndSplineSet
EndChar

StartChar: asterisk
Encoding: 42 42 13
Width: 516
GlyphClass: 1
Flags: W
LayerCount: 2
Fore
SplineSet
272 539 m 1,0,1
 272 508 272 508 276.5 485 c 128,-1,2
 281 462 281 462 286.5 444.5 c 128,-1,3
 292 427 292 427 296.5 415 c 128,-1,4
 301 403 301 403 301 394 c 0,5,6
 301 376 301 376 288 362.5 c 128,-1,7
 275 349 275 349 257 349 c 0,8,9
 236 349 236 349 223.5 363.5 c 128,-1,10
 211 378 211 378 211 398 c 0,11,12
 211 405 211 405 215.5 416 c 128,-1,13
 220 427 220 427 225.5 443.5 c 128,-1,14
 231 460 231 460 236 483.5 c 128,-1,15
 241 507 241 507 242 539 c 1,16,17
 201 516 201 516 182 497 c 128,-1,18
 163 478 163 478 152.5 464 c 128,-1,19
 142 450 142 450 134.5 442.5 c 128,-1,20
 127 435 127 435 109 435 c 0,21,22
 90 435 90 435 76.5 448.5 c 128,-1,23
 63 462 63 462 63 481 c 0,24,25
 63 504 63 504 76 513 c 128,-1,26
 89 522 89 522 111.5 527 c 128,-1,27
 134 532 134 532 163.5 539 c 128,-1,28
 193 546 193 546 227 565 c 1,29,30
 197 582 197 582 175 589 c 128,-1,31
 153 596 153 596 137 599 c 128,-1,32
 121 602 121 602 109.5 603 c 128,-1,33
 98 604 98 604 89 610 c 0,34,35
 77 617 77 617 71 627.5 c 128,-1,36
 65 638 65 638 65 650 c 0,37,38
 65 670 65 670 79.5 682.5 c 128,-1,39
 94 695 94 695 112 695 c 0,40,41
 125 695 125 695 137 684.5 c 128,-1,42
 149 674 149 674 163.5 658.5 c 128,-1,43
 178 643 178 643 197 624.5 c 128,-1,44
 216 606 216 606 243 591 c 1,45,46
 243 653 243 653 226 693 c 0,47,48
 221 701 221 701 217 713.5 c 128,-1,49
 213 726 213 726 213 734 c 0,50,51
 213 754 213 754 225.5 767 c 128,-1,52
 238 780 238 780 258 780 c 256,53,54
 278 780 278 780 291 767 c 128,-1,55
 304 754 304 754 304 734 c 0,56,57
 304 726 304 726 300 714.5 c 128,-1,58
 296 703 296 703 291 693 c 0,59,60
 281 672 281 672 277.5 647.5 c 128,-1,61
 274 623 274 623 273 591 c 1,62,63
 309 612 309 612 328 631 c 128,-1,64
 347 650 347 650 358.5 664.5 c 128,-1,65
 370 679 370 679 378.5 687 c 128,-1,66
 387 695 387 695 404 695 c 0,67,68
 423 695 423 695 437 682 c 128,-1,69
 451 669 451 669 451 650 c 0,70,71
 451 626 451 626 441 618.5 c 128,-1,72
 431 611 431 611 410.5 607 c 128,-1,73
 390 603 390 603 359.5 595.5 c 128,-1,74
 329 588 329 588 289 565 c 1,75,76
 326 543 326 543 356.5 536.5 c 128,-1,77
 387 530 387 530 408.5 526 c 128,-1,78
 430 522 430 522 441.5 513.5 c 128,-1,79
 453 505 453 505 453 480 c 0,80,81
 453 460 453 460 438.5 448 c 128,-1,82
 424 436 424 436 406 436 c 0,83,84
 394 436 394 436 382 443 c 128,-1,85
 370 450 370 450 355 474 c 0,86,87
 346 488 346 488 324 506 c 128,-1,88
 302 524 302 524 272 539 c 1,0,1
EndSplineSet
EndChar

StartChar: plus
Encoding: 43 43 14
Width: 550
GlyphClass: 1
Flags: W
LayerCount: 2
Fore
SplineSet
249 104 m 1,0,-1
 249 313 l 1,1,-1
 41 313 l 1,2,-1
 41 363 l 1,3,-1
 249 363 l 1,4,-1
 249 572 l 1,5,-1
 301 572 l 1,6,-1
 301 363 l 1,7,-1
 509 363 l 1,8,-1
 509 313 l 1,9,-1
 301 313 l 1,10,-1
 301 104 l 1,11,-1
 249 104 l 1,0,-1
EndSplineSet
EndChar

StartChar: comma
Encoding: 44 44 15
Width: 273
GlyphClass: 1
Flags: W
LayerCount: 2
Fore
SplineSet
49 -143 m 1,0,1
 103 -105 103 -105 126 -70 c 128,-1,2
 149 -35 149 -35 149 8 c 1,3,4
 136 0 136 0 119 0 c 0,5,6
 96 0 96 0 81.5 16.5 c 128,-1,7
 67 33 67 33 67 59 c 0,8,9
 67 87 67 87 85.5 104 c 128,-1,10
 104 121 104 121 134 121 c 0,11,12
 206 121 206 121 206 21 c 0,13,14
 206 -7 206 -7 199 -31 c 128,-1,15
 192 -55 192 -55 176.5 -78 c 128,-1,16
 161 -101 161 -101 135 -124.5 c 128,-1,17
 109 -148 109 -148 72 -175 c 1,18,-1
 49 -143 l 1,0,1
EndSplineSet
EndChar

StartChar: hyphen
Encoding: 45 45 16
Width: 463
GlyphClass: 1
Flags: W
LayerCount: 2
Fore
SplineSet
77 248 m 1,0,-1
 77 331 l 1,1,-1
 386 331 l 1,2,-1
 386 248 l 1,3,-1
 77 248 l 1,0,-1
EndSplineSet
EndChar

StartChar: period
Encoding: 46 46 17
Width: 265
GlyphClass: 1
Flags: W
LayerCount: 2
Fore
SplineSet
67 55 m 0,0,1
 67 83 67 83 86 102 c 128,-1,2
 105 121 105 121 132 121 c 0,3,4
 160 121 160 121 179 102 c 128,-1,5
 198 83 198 83 198 55 c 0,6,7
 198 28 198 28 179 9 c 128,-1,8
 160 -10 160 -10 132 -10 c 0,9,10
 105 -10 105 -10 86 9 c 128,-1,11
 67 28 67 28 67 55 c 0,0,1
EndSplineSet
EndChar

StartChar: slash
Encoding: 47 47 18
Width: 460
GlyphClass: 1
Flags: W
LayerCount: 2
Fore
SplineSet
87 0 m 1,0,-1
 29 0 l 1,1,-1
 382 770 l 1,2,-1
 431 770 l 1,3,-1
 87 0 l 1,0,-1
EndSplineSet
EndChar

StartChar: zero
Encoding: 48 48 19
Width: 714
GlyphClass: 1
Flags: W
LayerCount: 2
Fore
SplineSet
357 780 m 256,0,1
 418 780 418 780 472 749 c 128,-1,2
 526 718 526 718 566 664 c 128,-1,3
 606 610 606 610 629.5 537 c 128,-1,4
 653 464 653 464 653 379 c 0,5,6
 653 298 653 298 629.5 227 c 128,-1,7
 606 156 606 156 566 103.5 c 128,-1,8
 526 51 526 51 472 20.5 c 128,-1,9
 418 -10 418 -10 357 -10 c 256,10,11
 296 -10 296 -10 242 20.5 c 128,-1,12
 188 51 188 51 148 103.5 c 128,-1,13
 108 156 108 156 84.5 227 c 128,-1,14
 61 298 61 298 61 379 c 0,15,16
 61 464 61 464 84.5 537 c 128,-1,17
 108 610 108 610 148 664 c 128,-1,18
 188 718 188 718 242 749 c 128,-1,19
 296 780 296 780 357 780 c 256,0,1
357 38 m 256,20,21
 396 38 396 38 426.5 54 c 128,-1,22
 457 70 457 70 478.5 109 c 128,-1,23
 500 148 500 148 511.5 213 c 128,-1,24
 523 278 523 278 523 376 c 0,25,26
 523 478 523 478 511.5 546 c 128,-1,27
 500 614 500 614 479 655.5 c 128,-1,28
 458 697 458 697 427 714.5 c 128,-1,29
 396 732 396 732 357 732 c 256,30,31
 318 732 318 732 287 714.5 c 128,-1,32
 256 697 256 697 235 655.5 c 128,-1,33
 214 614 214 614 202.5 546 c 128,-1,34
 191 478 191 478 191 376 c 0,35,36
 191 278 191 278 202.5 213 c 128,-1,37
 214 148 214 148 235 109 c 128,-1,38
 256 70 256 70 287 54 c 128,-1,39
 318 38 318 38 357 38 c 256,20,21
EndSplineSet
Substitution2: "'sups' Superscript in Latin lookup 4 subtable" zerosuperior
Substitution2: "'sinf' Scientific Inferiors in Latin lookup 3 subtable" zeroinferior
EndChar

StartChar: one
Encoding: 49 49 20
Width: 446
GlyphClass: 1
Flags: W
LayerCount: 2
Fore
SplineSet
276 162 m 2,0,1
 276 123 276 123 279.5 99.5 c 128,-1,2
 283 76 283 76 294 62.5 c 128,-1,3
 305 49 305 49 325.5 44 c 128,-1,4
 346 39 346 39 380 38 c 1,5,-1
 380 0 l 1,6,-1
 74 0 l 1,7,-1
 74 38 l 1,8,9
 107 39 107 39 127.5 44.5 c 128,-1,10
 148 50 148 50 159.5 62.5 c 128,-1,11
 171 75 171 75 174.5 97.5 c 128,-1,12
 178 120 178 120 178 155 c 2,13,-1
 178 522 l 2,14,15
 178 580 178 580 177.5 618 c 128,-1,16
 177 656 177 656 174 668 c 0,17,18
 169 690 169 690 144 695 c 128,-1,19
 119 700 119 700 69 700 c 1,20,-1
 69 738 l 1,21,22
 118 740 118 740 172.5 751.5 c 128,-1,23
 227 763 227 763 276 780 c 1,24,-1
 276 162 l 2,0,1
EndSplineSet
Substitution2: "'sups' Superscript in Latin lookup 4 subtable" onesuperior
Substitution2: "'sinf' Scientific Inferiors in Latin lookup 3 subtable" oneinferior
EndChar

StartChar: two
Encoding: 50 50 21
Width: 616
GlyphClass: 1
Flags: W
LayerCount: 2
Fore
SplineSet
196 98 m 1,0,-1
 395 98 l 2,1,2
 419 98 419 98 437 102.5 c 128,-1,3
 455 107 455 107 469 120 c 128,-1,4
 483 133 483 133 494 155.5 c 128,-1,5
 505 178 505 178 516 213 c 1,6,-1
 553 213 l 1,7,-1
 515 0 l 1,8,-1
 50 0 l 1,9,-1
 50 33 l 1,10,11
 164 135 164 135 237.5 211.5 c 128,-1,12
 311 288 311 288 353 349 c 128,-1,13
 395 410 395 410 411 461.5 c 128,-1,14
 427 513 427 513 427 566 c 0,15,16
 427 644 427 644 390.5 689 c 128,-1,17
 354 734 354 734 291 734 c 0,18,19
 231 734 231 734 193.5 695 c 128,-1,20
 156 656 156 656 156 594 c 0,21,22
 156 540 156 540 185.5 508 c 128,-1,23
 215 476 215 476 266 476 c 1,24,25
 261 452 261 452 240 437.5 c 128,-1,26
 219 423 219 423 188 423 c 0,27,28
 160 423 160 423 136.5 434 c 128,-1,29
 113 445 113 445 95.5 465 c 128,-1,30
 78 485 78 485 68.5 512.5 c 128,-1,31
 59 540 59 540 59 573 c 0,32,33
 59 618 59 618 78 656 c 128,-1,34
 97 694 97 694 130 721.5 c 128,-1,35
 163 749 163 749 208.5 765 c 128,-1,36
 254 781 254 781 307 781 c 256,37,38
 360 781 360 781 404 765 c 128,-1,39
 448 749 448 749 480 720 c 128,-1,40
 512 691 512 691 529.5 651.5 c 128,-1,41
 547 612 547 612 547 564 c 0,42,43
 547 502 547 502 519.5 442.5 c 128,-1,44
 492 383 492 383 444 325.5 c 128,-1,45
 396 268 396 268 332 212.5 c 128,-1,46
 268 157 268 157 195 103 c 1,47,-1
 196 98 l 1,0,-1
EndSplineSet
Substitution2: "'sups' Superscript in Latin lookup 4 subtable" twosuperior
Substitution2: "'sinf' Scientific Inferiors in Latin lookup 3 subtable" twoinferior
EndChar

StartChar: three
Encoding: 51 51 22
Width: 616
GlyphClass: 1
Flags: W
LayerCount: 2
Fore
SplineSet
429 214 m 0,0,1
 429 297 429 297 395.5 342.5 c 128,-1,2
 362 388 362 388 301 388 c 1,3,4
 286 380 286 380 267.5 375 c 128,-1,5
 249 370 249 370 234 370 c 0,6,7
 214 370 214 370 201 379.5 c 128,-1,8
 188 389 188 389 188 404 c 0,9,10
 188 418 188 418 200 425 c 128,-1,11
 212 432 212 432 232 432 c 0,12,13
 245 432 245 432 261.5 429 c 128,-1,14
 278 426 278 426 293 421 c 1,15,16
 347 421 347 421 379.5 469 c 128,-1,17
 412 517 412 517 412 597 c 0,18,19
 412 737 412 737 294 737 c 0,20,21
 241 737 241 737 210.5 713 c 128,-1,22
 180 689 180 689 180 647 c 0,23,24
 180 613 180 613 200 592 c 128,-1,25
 220 571 220 571 252 571 c 1,26,27
 247 554 247 554 227.5 543.5 c 128,-1,28
 208 533 208 533 182 533 c 0,29,30
 160 533 160 533 141.5 541 c 128,-1,31
 123 549 123 549 109.5 563.5 c 128,-1,32
 96 578 96 578 88 597 c 128,-1,33
 80 616 80 616 80 639 c 0,34,35
 80 671 80 671 95.5 697 c 128,-1,36
 111 723 111 723 139 741.5 c 128,-1,37
 167 760 167 760 206.5 770 c 128,-1,38
 246 780 246 780 294 780 c 0,39,40
 348 780 348 780 392 767 c 128,-1,41
 436 754 436 754 467 731 c 128,-1,42
 498 708 498 708 515 675 c 128,-1,43
 532 642 532 642 532 602 c 0,44,45
 532 568 532 568 520 538 c 128,-1,46
 508 508 508 508 488 483.5 c 128,-1,47
 468 459 468 459 440.5 442 c 128,-1,48
 413 425 413 425 382 417 c 1,49,-1
 382 411 l 1,50,51
 419 401 419 401 451 382 c 128,-1,52
 483 363 483 363 506 337 c 128,-1,53
 529 311 529 311 542 278 c 128,-1,54
 555 245 555 245 555 207 c 0,55,56
 555 160 555 160 535 120.5 c 128,-1,57
 515 81 515 81 480 52 c 128,-1,58
 445 23 445 23 396.5 6.5 c 128,-1,59
 348 -10 348 -10 290 -10 c 0,60,61
 238 -10 238 -10 194.5 3.5 c 128,-1,62
 151 17 151 17 119 40.5 c 128,-1,63
 87 64 87 64 69 96.5 c 128,-1,64
 51 129 51 129 51 167 c 0,65,66
 51 194 51 194 60 217 c 128,-1,67
 69 240 69 240 84.5 257.5 c 128,-1,68
 100 275 100 275 121 284.5 c 128,-1,69
 142 294 142 294 166 294 c 0,70,71
 194 294 194 294 216 281.5 c 128,-1,72
 238 269 238 269 243 250 c 1,73,74
 205 250 205 250 181 222.5 c 128,-1,75
 157 195 157 195 157 152 c 0,76,77
 157 101 157 101 193 69 c 128,-1,78
 229 37 229 37 288 37 c 0,79,80
 357 37 357 37 393 82.5 c 128,-1,81
 429 128 429 128 429 214 c 0,0,1
EndSplineSet
Substitution2: "'sups' Superscript in Latin lookup 4 subtable" threesuperior
Substitution2: "'sinf' Scientific Inferiors in Latin lookup 3 subtable" threeinferior
EndChar

StartChar: four
Encoding: 52 52 23
Width: 585
GlyphClass: 1
Flags: W
LayerCount: 2
Fore
SplineSet
18 229 m 1,0,-1
 370 780 l 1,1,-1
 401 780 l 1,2,-1
 401 227 l 1,3,4
 432 228 432 228 450.5 231.5 c 128,-1,5
 469 235 469 235 478.5 244.5 c 128,-1,6
 488 254 488 254 491 271.5 c 128,-1,7
 494 289 494 289 494 318 c 1,8,-1
 529 318 l 1,9,-1
 529 95 l 1,10,-1
 494 95 l 1,11,12
 494 122 494 122 491 139 c 128,-1,13
 488 156 488 156 478.5 165.5 c 128,-1,14
 469 175 469 175 450.5 178.5 c 128,-1,15
 432 182 432 182 401 183 c 1,16,-1
 401 162 l 2,17,18
 401 123 401 123 404 99 c 128,-1,19
 407 75 407 75 415.5 61.5 c 128,-1,20
 424 48 424 48 439.5 43 c 128,-1,21
 455 38 455 38 480 38 c 1,22,-1
 480 0 l 1,23,-1
 199 0 l 1,24,-1
 199 38 l 1,25,26
 232 38 232 38 252.5 43 c 128,-1,27
 273 48 273 48 284 61 c 128,-1,28
 295 74 295 74 299 97 c 128,-1,29
 303 120 303 120 303 155 c 2,30,-1
 303 179 l 1,31,-1
 18 179 l 1,32,-1
 18 229 l 1,0,-1
303 585 m 1,33,-1
 298 585 l 1,34,-1
 68 229 l 1,35,-1
 303 229 l 1,36,-1
 303 585 l 1,33,-1
EndSplineSet
Substitution2: "'sups' Superscript in Latin lookup 4 subtable" foursuperior
Substitution2: "'sinf' Scientific Inferiors in Latin lookup 3 subtable" fourinferior
EndChar

StartChar: five
Encoding: 53 53 24
Width: 568
GlyphClass: 1
Flags: W
LayerCount: 2
Fore
SplineSet
198 482 m 1,0,-1
 200 479 l 1,1,2
 215 490 215 490 244 497.5 c 128,-1,3
 273 505 273 505 302 505 c 0,4,5
 346 505 346 505 384 487.5 c 128,-1,6
 422 470 422 470 449.5 439 c 128,-1,7
 477 408 477 408 493 365.5 c 128,-1,8
 509 323 509 323 509 274 c 0,9,10
 509 214 509 214 486.5 162.5 c 128,-1,11
 464 111 464 111 424.5 72.5 c 128,-1,12
 385 34 385 34 331.5 12 c 128,-1,13
 278 -10 278 -10 216 -10 c 0,14,15
 174 -10 174 -10 138 0.5 c 128,-1,16
 102 11 102 11 76.5 29 c 128,-1,17
 51 47 51 47 36.5 72.5 c 128,-1,18
 22 98 22 98 22 128 c 0,19,20
 22 155 22 155 34.5 170 c 128,-1,21
 47 185 47 185 70 185 c 0,22,23
 91 185 91 185 101.5 174 c 128,-1,24
 112 163 112 163 118 146 c 128,-1,25
 124 129 124 129 129 109.5 c 128,-1,26
 134 90 134 90 143.5 73 c 128,-1,27
 153 56 153 56 170.5 45 c 128,-1,28
 188 34 188 34 219 34 c 0,29,30
 258 34 258 34 289 52.5 c 128,-1,31
 320 71 320 71 341 105.5 c 128,-1,32
 362 140 362 140 373.5 188.5 c 128,-1,33
 385 237 385 237 385 297 c 0,34,35
 385 382 385 382 361.5 422 c 128,-1,36
 338 462 338 462 283 462 c 0,37,38
 241 462 241 462 214.5 439.5 c 128,-1,39
 188 417 188 417 171 367 c 0,40,41
 165 349 165 349 160 344 c 128,-1,42
 155 339 155 339 147 339 c 0,43,44
 125 339 125 339 125 359 c 0,45,46
 125 364 125 364 126 367 c 2,47,-1
 233 780 l 1,48,49
 255 771 255 771 283 766.5 c 128,-1,50
 311 762 311 762 350 762 c 0,51,52
 443 762 443 762 483 781 c 1,53,-1
 489 780 l 1,54,55
 477 723 477 723 436.5 692 c 128,-1,56
 396 661 396 661 333 661 c 2,57,-1
 245 661 l 1,58,-1
 198 482 l 1,0,-1
EndSplineSet
Substitution2: "'sups' Superscript in Latin lookup 4 subtable" fivesuperior
Substitution2: "'sinf' Scientific Inferiors in Latin lookup 3 subtable" fiveinferior
EndChar

StartChar: six
Encoding: 54 54 25
Width: 643
GlyphClass: 1
Flags: W
LayerCount: 2
Fore
SplineSet
586 259 m 0,0,1
 586 203 586 203 565.5 154 c 128,-1,2
 545 105 545 105 509 68.5 c 128,-1,3
 473 32 473 32 424.5 11 c 128,-1,4
 376 -10 376 -10 321 -10 c 0,5,6
 264 -10 264 -10 216 15.5 c 128,-1,7
 168 41 168 41 133.5 87 c 128,-1,8
 99 133 99 133 80 196.5 c 128,-1,9
 61 260 61 260 61 337 c 0,10,11
 61 428 61 428 86 508.5 c 128,-1,12
 111 589 111 589 154 649.5 c 128,-1,13
 197 710 197 710 255 745 c 128,-1,14
 313 780 313 780 378 780 c 0,15,16
 414 780 414 780 445.5 772 c 128,-1,17
 477 764 477 764 500.5 750.5 c 128,-1,18
 524 737 524 737 537.5 718 c 128,-1,19
 551 699 551 699 551 678 c 0,20,21
 551 654 551 654 536.5 640 c 128,-1,22
 522 626 522 626 497 626 c 0,23,24
 468 626 468 626 455.5 643 c 128,-1,25
 443 660 443 660 432 680.5 c 128,-1,26
 421 701 421 701 404 718 c 128,-1,27
 387 735 387 735 349 735 c 0,28,29
 314 735 314 735 285 711 c 128,-1,30
 256 687 256 687 234 645 c 128,-1,31
 212 603 212 603 200 545 c 128,-1,32
 188 487 188 487 188 420 c 1,33,-1
 191 418 l 1,34,35
 223 465 223 465 260.5 486.5 c 128,-1,36
 298 508 298 508 349 508 c 256,37,38
 400 508 400 508 443 489 c 128,-1,39
 486 470 486 470 518 436.5 c 128,-1,40
 550 403 550 403 568 357.5 c 128,-1,41
 586 312 586 312 586 259 c 0,0,1
186 283 m 2,42,43
 186 35 186 35 325 35 c 0,44,45
 394 35 394 35 427.5 88.5 c 128,-1,46
 461 142 461 142 461 255 c 0,47,48
 461 355 461 355 429 407 c 128,-1,49
 397 459 397 459 335 459 c 0,50,51
 289 459 289 459 254 429 c 128,-1,52
 219 399 219 399 186 332 c 1,53,-1
 186 283 l 2,42,43
EndSplineSet
Substitution2: "'sups' Superscript in Latin lookup 4 subtable" sixsuperior
Substitution2: "'sinf' Scientific Inferiors in Latin lookup 3 subtable" sixinferior
EndChar

StartChar: seven
Encoding: 55 55 26
Width: 502
GlyphClass: 1
Flags: W
LayerCount: 2
Fore
SplineSet
417 671 m 1,0,-1
 231 671 l 2,1,2
 192 671 192 671 168 668.5 c 128,-1,3
 144 666 144 666 129 657.5 c 128,-1,4
 114 649 114 649 104.5 633 c 128,-1,5
 95 617 95 617 85 589 c 2,6,-1
 70 550 l 1,7,-1
 32 550 l 1,8,-1
 102 830 l 1,9,-1
 142 830 l 1,10,11
 140 825 140 825 139 815.5 c 128,-1,12
 138 806 138 806 138 799 c 0,13,14
 138 782 138 782 153 776 c 128,-1,15
 168 770 168 770 214 770 c 2,16,-1
 507 770 l 1,17,-1
 507 750 l 1,18,19
 474 675 474 675 448.5 617.5 c 128,-1,20
 423 560 423 560 402.5 512.5 c 128,-1,21
 382 465 382 465 365 423 c 128,-1,22
 348 381 348 381 330.5 338 c 128,-1,23
 313 295 313 295 294.5 246 c 128,-1,24
 276 197 276 197 253 136 c 0,25,26
 236 91 236 91 222.5 63 c 128,-1,27
 209 35 209 35 197 18.5 c 128,-1,28
 185 2 185 2 173.5 -4 c 128,-1,29
 162 -10 162 -10 149 -10 c 0,30,31
 131 -10 131 -10 118.5 3.5 c 128,-1,32
 106 17 106 17 106 31 c 0,33,34
 106 39 106 39 107.5 48.5 c 128,-1,35
 109 58 109 58 114.5 73.5 c 128,-1,36
 120 89 120 89 131.5 114 c 128,-1,37
 143 139 143 139 162.5 178 c 128,-1,38
 182 217 182 217 211 273.5 c 128,-1,39
 240 330 240 330 281 410 c 2,40,-1
 417 671 l 1,0,-1
EndSplineSet
Substitution2: "'sups' Superscript in Latin lookup 4 subtable" sevensuperior
Substitution2: "'sinf' Scientific Inferiors in Latin lookup 3 subtable" seveninferior
EndChar

StartChar: eight
Encoding: 56 56 27
Width: 606
GlyphClass: 1
Flags: W
LayerCount: 2
Fore
SplineSet
269 365 m 1,0,1
 212 333 212 333 183 286.5 c 128,-1,2
 154 240 154 240 154 183 c 0,3,4
 154 115 154 115 194.5 75.5 c 128,-1,5
 235 36 235 36 304 36 c 256,6,7
 373 36 373 36 413.5 74.5 c 128,-1,8
 454 113 454 113 454 179 c 0,9,10
 454 201 454 201 447.5 220 c 128,-1,11
 441 239 441 239 426.5 257 c 128,-1,12
 412 275 412 275 388 293 c 128,-1,13
 364 311 364 311 329 331 c 2,14,-1
 269 365 l 1,0,1
385 433 m 1,15,16
 545 348 545 348 545 212 c 0,17,18
 545 165 545 165 526.5 124.5 c 128,-1,19
 508 84 508 84 475 54 c 128,-1,20
 442 24 442 24 397 7 c 128,-1,21
 352 -10 352 -10 300 -10 c 0,22,23
 249 -10 249 -10 205 4.5 c 128,-1,24
 161 19 161 19 128.5 44.5 c 128,-1,25
 96 70 96 70 77.5 105 c 128,-1,26
 59 140 59 140 59 180 c 0,27,28
 59 305 59 305 227 386 c 1,29,30
 86 462 86 462 86 580 c 0,31,32
 86 621 86 621 102.5 658 c 128,-1,33
 119 695 119 695 150 724 c 0,34,35
 211 780 211 780 300 780 c 0,36,37
 378 780 378 780 440 738 c 0,38,39
 477 712 477 712 496.5 677.5 c 128,-1,40
 516 643 516 643 516 603 c 0,41,42
 516 552 516 552 485 509 c 128,-1,43
 454 466 454 466 385 433 c 1,15,16
343 454 m 1,44,45
 386 483 386 483 409.5 520 c 128,-1,46
 433 557 433 557 433 598 c 0,47,48
 433 627 433 627 422.5 652 c 128,-1,49
 412 677 412 677 393.5 695.5 c 128,-1,50
 375 714 375 714 350 724.5 c 128,-1,51
 325 735 325 735 295 735 c 0,52,53
 239 735 239 735 205.5 703 c 128,-1,54
 172 671 172 671 172 619 c 0,55,56
 172 579 172 579 201 546.5 c 128,-1,57
 230 514 230 514 296 479 c 2,58,-1
 343 454 l 1,44,45
EndSplineSet
Substitution2: "'sups' Superscript in Latin lookup 4 subtable" eightsuperior
Substitution2: "'sinf' Scientific Inferiors in Latin lookup 3 subtable" eightinferior
EndChar

StartChar: nine
Encoding: 57 57 28
Width: 643
GlyphClass: 1
Flags: W
LayerCount: 2
Fore
SplineSet
57 511 m 0,0,1
 57 567 57 567 77.5 616 c 128,-1,2
 98 665 98 665 134 701.5 c 128,-1,3
 170 738 170 738 218.5 759 c 128,-1,4
 267 780 267 780 322 780 c 0,5,6
 379 780 379 780 427 754.5 c 128,-1,7
 475 729 475 729 509.5 683 c 128,-1,8
 544 637 544 637 563 573 c 128,-1,9
 582 509 582 509 582 433 c 0,10,11
 582 342 582 342 557 261.5 c 128,-1,12
 532 181 532 181 489 120.5 c 128,-1,13
 446 60 446 60 388 25 c 128,-1,14
 330 -10 330 -10 265 -10 c 0,15,16
 229 -10 229 -10 197.5 -2 c 128,-1,17
 166 6 166 6 142.5 19.5 c 128,-1,18
 119 33 119 33 105.5 52 c 128,-1,19
 92 71 92 71 92 92 c 0,20,21
 92 116 92 116 106.5 130 c 128,-1,22
 121 144 121 144 146 144 c 0,23,24
 175 144 175 144 187.5 127 c 128,-1,25
 200 110 200 110 211 89.5 c 128,-1,26
 222 69 222 69 239 52 c 128,-1,27
 256 35 256 35 294 35 c 0,28,29
 328 35 328 35 357.5 59 c 128,-1,30
 387 83 387 83 409 125 c 128,-1,31
 431 167 431 167 443 224.5 c 128,-1,32
 455 282 455 282 455 350 c 1,33,-1
 452 352 l 1,34,35
 420 305 420 305 382.5 283.5 c 128,-1,36
 345 262 345 262 294 262 c 256,37,38
 243 262 243 262 200 281 c 128,-1,39
 157 300 157 300 125 333.5 c 128,-1,40
 93 367 93 367 75 412.5 c 128,-1,41
 57 458 57 458 57 511 c 0,0,1
457 487 m 2,42,43
 457 735 457 735 318 735 c 0,44,45
 249 735 249 735 215.5 681.5 c 128,-1,46
 182 628 182 628 182 515 c 0,47,48
 182 415 182 415 214 363 c 128,-1,49
 246 311 246 311 308 311 c 0,50,51
 354 311 354 311 389 341 c 128,-1,52
 424 371 424 371 457 438 c 1,53,-1
 457 487 l 2,42,43
EndSplineSet
Substitution2: "'sups' Superscript in Latin lookup 4 subtable" ninesuperior
Substitution2: "'sinf' Scientific Inferiors in Latin lookup 3 subtable" nineinferior
EndChar

StartChar: colon
Encoding: 58 58 29
Width: 285
GlyphClass: 1
Flags: W
LayerCount: 2
Fore
SplineSet
77 55 m 0,0,1
 77 83 77 83 96 102 c 128,-1,2
 115 121 115 121 142 121 c 0,3,4
 170 121 170 121 189 102 c 128,-1,5
 208 83 208 83 208 55 c 0,6,7
 208 28 208 28 189 9 c 128,-1,8
 170 -10 170 -10 142 -10 c 0,9,10
 115 -10 115 -10 96 9 c 128,-1,11
 77 28 77 28 77 55 c 0,0,1
77 381 m 0,12,13
 77 409 77 409 96 428 c 128,-1,14
 115 447 115 447 142 447 c 0,15,16
 170 447 170 447 189 428 c 128,-1,17
 208 409 208 409 208 381 c 0,18,19
 208 354 208 354 189 335 c 128,-1,20
 170 316 170 316 142 316 c 0,21,22
 115 316 115 316 96 335 c 128,-1,23
 77 354 77 354 77 381 c 0,12,13
EndSplineSet
EndChar

StartChar: semicolon
Encoding: 59 59 30
Width: 311
GlyphClass: 1
Flags: W
LayerCount: 2
Fore
SplineSet
89 381 m 0,0,1
 89 409 89 409 108 428 c 128,-1,2
 127 447 127 447 154 447 c 0,3,4
 182 447 182 447 201 428 c 128,-1,5
 220 409 220 409 220 381 c 0,6,7
 220 354 220 354 201 335 c 128,-1,8
 182 316 182 316 154 316 c 0,9,10
 127 316 127 316 108 335 c 128,-1,11
 89 354 89 354 89 381 c 0,0,1
71 -143 m 1,12,13
 125 -105 125 -105 148 -70 c 128,-1,14
 171 -35 171 -35 171 8 c 1,15,16
 158 0 158 0 141 0 c 0,17,18
 118 0 118 0 103.5 16.5 c 128,-1,19
 89 33 89 33 89 59 c 0,20,21
 89 87 89 87 107.5 104 c 128,-1,22
 126 121 126 121 156 121 c 0,23,24
 228 121 228 121 228 21 c 0,25,26
 228 -7 228 -7 221 -31 c 128,-1,27
 214 -55 214 -55 198.5 -78 c 128,-1,28
 183 -101 183 -101 157 -124.5 c 128,-1,29
 131 -148 131 -148 94 -175 c 1,30,-1
 71 -143 l 1,12,13
EndSplineSet
EndChar

StartChar: less
Encoding: 60 60 31
Width: 581
GlyphClass: 1
Flags: W
LayerCount: 2
Fore
SplineSet
497 126 m 1,0,-1
 497 72 l 1,1,-1
 39 304 l 1,2,-1
 39 368 l 1,3,-1
 497 600 l 1,4,-1
 497 544 l 1,5,-1
 84 336 l 1,6,-1
 497 126 l 1,0,-1
EndSplineSet
EndChar

StartChar: equal
Encoding: 61 61 32
Width: 620
GlyphClass: 1
Flags: W
LayerCount: 2
Fore
SplineSet
537 422 m 1,0,-1
 83 422 l 1,1,-1
 83 472 l 1,2,-1
 537 472 l 1,3,-1
 537 422 l 1,0,-1
537 252 m 1,4,-1
 83 252 l 1,5,-1
 83 302 l 1,6,-1
 537 302 l 1,7,-1
 537 252 l 1,4,-1
EndSplineSet
EndChar

StartChar: greater
Encoding: 62 62 33
Width: 581
GlyphClass: 1
Flags: W
LayerCount: 2
Fore
SplineSet
497 336 m 1,0,-1
 84 544 l 1,1,-1
 84 600 l 1,2,-1
 542 368 l 1,3,-1
 542 304 l 1,4,-1
 84 72 l 1,5,-1
 84 126 l 1,6,-1
 497 336 l 1,0,-1
EndSplineSet
EndChar

StartChar: question
Encoding: 63 63 34
Width: 399
GlyphClass: 1
Flags: W
LayerCount: 2
Fore
SplineSet
125 237 m 1,0,-1
 125 466 l 1,1,-1
 154 466 l 2,2,3
 284 466 284 466 284 565 c 0,4,5
 284 589 284 589 277 610 c 128,-1,6
 270 631 270 631 258.5 647 c 128,-1,7
 247 663 247 663 231 672 c 128,-1,8
 215 681 215 681 197 681 c 256,9,10
 179 681 179 681 159 675.5 c 128,-1,11
 139 670 139 670 122 670 c 0,12,13
 99 670 99 670 84 685 c 128,-1,14
 69 700 69 700 69 724 c 0,15,16
 69 780 69 780 131 780 c 0,17,18
 172 780 172 780 210 759.5 c 128,-1,19
 248 739 248 739 277 704.5 c 128,-1,20
 306 670 306 670 323.5 624.5 c 128,-1,21
 341 579 341 579 341 530 c 0,22,23
 341 454 341 454 299 412 c 128,-1,24
 257 370 257 370 180 370 c 1,25,-1
 180 237 l 1,26,-1
 125 237 l 1,0,-1
84 55 m 0,27,28
 84 83 84 83 103 102 c 128,-1,29
 122 121 122 121 149 121 c 0,30,31
 177 121 177 121 196 102 c 128,-1,32
 215 83 215 83 215 55 c 0,33,34
 215 28 215 28 196 9 c 128,-1,35
 177 -10 177 -10 149 -10 c 0,36,37
 122 -10 122 -10 103 9 c 128,-1,38
 84 28 84 28 84 55 c 0,27,28
EndSplineSet
EndChar

StartChar: at
Encoding: 64 64 35
Width: 1029
GlyphClass: 1
Flags: W
LayerCount: 2
Fore
SplineSet
693 530 m 1,0,-1
 789 530 l 1,1,-1
 722 293 l 2,2,3
 711 253 711 253 703.5 217.5 c 128,-1,4
 696 182 696 182 696 167 c 0,5,6
 696 148 696 148 708 137.5 c 128,-1,7
 720 127 720 127 740 127 c 0,8,9
 773 127 773 127 805.5 152.5 c 128,-1,10
 838 178 838 178 863.5 219.5 c 128,-1,11
 889 261 889 261 905 313.5 c 128,-1,12
 921 366 921 366 921 420 c 0,13,14
 921 488 921 488 894.5 545.5 c 128,-1,15
 868 603 868 603 821.5 645 c 128,-1,16
 775 687 775 687 711 711 c 128,-1,17
 647 735 647 735 571 735 c 0,18,19
 481 735 481 735 402.5 701.5 c 128,-1,20
 324 668 324 668 266.5 609.5 c 128,-1,21
 209 551 209 551 176 471 c 128,-1,22
 143 391 143 391 143 299 c 0,23,24
 143 213 143 213 172.5 142 c 128,-1,25
 202 71 202 71 255.5 20.5 c 128,-1,26
 309 -30 309 -30 384 -58 c 128,-1,27
 459 -86 459 -86 550 -86 c 0,28,29
 719 -86 719 -86 864 14 c 1,30,-1
 885 -17 l 1,31,32
 797 -78 797 -78 714 -106 c 128,-1,33
 631 -134 631 -134 537 -134 c 0,34,35
 430 -134 430 -134 341 -102 c 128,-1,36
 252 -70 252 -70 188 -12.5 c 128,-1,37
 124 45 124 45 88 125 c 128,-1,38
 52 205 52 205 52 300 c 0,39,40
 52 401 52 401 91.5 489 c 128,-1,41
 131 577 131 577 200.5 641.5 c 128,-1,42
 270 706 270 706 363.5 743 c 128,-1,43
 457 780 457 780 565 780 c 0,44,45
 655 780 655 780 728.5 754 c 128,-1,46
 802 728 802 728 855 681 c 128,-1,47
 908 634 908 634 937 568 c 128,-1,48
 966 502 966 502 966 422 c 0,49,50
 966 353 966 353 945.5 290.5 c 128,-1,51
 925 228 925 228 890 180.5 c 128,-1,52
 855 133 855 133 809 105 c 128,-1,53
 763 77 763 77 712 77 c 0,54,55
 616 77 616 77 607 192 c 1,56,-1
 603 192 l 1,57,58
 572 140 572 140 526 108.5 c 128,-1,59
 480 77 480 77 434 77 c 0,60,61
 402 77 402 77 374.5 90 c 128,-1,62
 347 103 347 103 327 125.5 c 128,-1,63
 307 148 307 148 295.5 179.5 c 128,-1,64
 284 211 284 211 284 248 c 0,65,66
 284 303 284 303 307 355.5 c 128,-1,67
 330 408 330 408 367.5 449 c 128,-1,68
 405 490 405 490 452.5 515 c 128,-1,69
 500 540 500 540 550 540 c 0,70,71
 597 540 597 540 625 516.5 c 128,-1,72
 653 493 653 493 667 442 c 1,73,-1
 671 441 l 1,74,-1
 693 530 l 1,0,-1
558 498 m 0,75,76
 525 498 525 498 493.5 474.5 c 128,-1,77
 462 451 462 451 437 413 c 128,-1,78
 412 375 412 375 397 326.5 c 128,-1,79
 382 278 382 278 382 227 c 0,80,81
 382 122 382 122 449 122 c 0,82,83
 481 122 481 122 514 146.5 c 128,-1,84
 547 171 547 171 573.5 210 c 128,-1,85
 600 249 600 249 617 297.5 c 128,-1,86
 634 346 634 346 634 394 c 0,87,88
 634 443 634 443 614 470.5 c 128,-1,89
 594 498 594 498 558 498 c 0,75,76
EndSplineSet
EndChar

StartChar: A
Encoding: 65 65 36
Width: 772
GlyphClass: 1
Flags: W
LayerCount: 2
Fore
SplineSet
488 279 m 1,0,-1
 221 279 l 1,1,2
 204 238 204 238 192 206.5 c 128,-1,3
 180 175 180 175 172.5 152 c 128,-1,4
 165 129 165 129 162 113 c 128,-1,5
 159 97 159 97 159 87 c 0,6,7
 159 59 159 59 177 48.5 c 128,-1,8
 195 38 195 38 237 38 c 1,9,-1
 237 0 l 1,10,-1
 -6 0 l 1,11,-1
 -6 38 l 1,12,13
 17 41 17 41 33.5 46 c 128,-1,14
 50 51 50 51 62.5 60 c 128,-1,15
 75 69 75 69 84.5 83.5 c 128,-1,16
 94 98 94 98 103 119 c 2,17,-1
 363 770 l 1,18,-1
 406 770 l 1,19,-1
 633 206 l 2,20,21
 656 150 656 150 673 116.5 c 128,-1,22
 690 83 690 83 706 66 c 128,-1,23
 722 49 722 49 740.5 44 c 128,-1,24
 759 39 759 39 785 39 c 1,25,-1
 785 0 l 1,26,-1
 459 0 l 1,27,-1
 459 39 l 1,28,29
 512 39 512 39 532 49 c 128,-1,30
 552 59 552 59 552 82 c 0,31,32
 552 92 552 92 551 100.5 c 128,-1,33
 550 109 550 109 547.5 119 c 128,-1,34
 545 129 545 129 540.5 141.5 c 128,-1,35
 536 154 536 154 529 171 c 2,36,-1
 488 279 l 1,0,-1
241 329 m 1,37,-1
 469 329 l 1,38,-1
 358 624 l 1,39,-1
 241 329 l 1,37,-1
EndSplineSet
Substitution2: "Single Substitution lookup 6 subtable" ordfeminine
EndChar

StartChar: B
Encoding: 66 66 37
Width: 767
GlyphClass: 1
Flags: W
LayerCount: 2
Fore
SplineSet
38 0 m 1,0,-1
 38 38 l 1,1,2
 77 39 77 39 100.5 44 c 128,-1,3
 124 49 124 49 136.5 61 c 128,-1,4
 149 73 149 73 153.5 95 c 128,-1,5
 158 117 158 117 158 152 c 2,6,-1
 158 618 l 2,7,8
 158 653 158 653 154.5 674.5 c 128,-1,9
 151 696 151 696 140.5 708.5 c 128,-1,10
 130 721 130 721 110 725.5 c 128,-1,11
 90 730 90 730 58 732 c 1,12,-1
 58 770 l 1,13,-1
 357 770 l 2,14,15
 492 770 492 770 567 722 c 128,-1,16
 642 674 642 674 642 587 c 0,17,18
 642 521 642 521 600.5 479 c 128,-1,19
 559 437 559 437 469 410 c 1,20,-1
 469 406 l 1,21,22
 500 403 500 403 523 399 c 128,-1,23
 546 395 546 395 564 389.5 c 128,-1,24
 582 384 582 384 597.5 376 c 128,-1,25
 613 368 613 368 628 358 c 0,26,27
 717 295 717 295 717 200 c 0,28,29
 717 147 717 147 687.5 101.5 c 128,-1,30
 658 56 658 56 605 30 c 0,31,32
 588 21 588 21 570 15.5 c 128,-1,33
 552 10 552 10 528 6.5 c 128,-1,34
 504 3 504 3 472.5 1.5 c 128,-1,35
 441 0 441 0 398 0 c 2,36,-1
 38 0 l 1,0,-1
401 43 m 0,37,38
 582 43 582 43 582 198 c 0,39,40
 582 311 582 311 489 356 c 0,41,42
 473 363 473 363 458 368 c 128,-1,43
 443 373 443 373 423 375.5 c 128,-1,44
 403 378 403 378 375.5 379 c 128,-1,45
 348 380 348 380 308 380 c 2,46,-1
 263 380 l 1,47,-1
 263 157 l 2,48,49
 263 96 263 96 295 69.5 c 128,-1,50
 327 43 327 43 401 43 c 0,37,38
319 430 m 2,51,52
 350 430 350 430 371 431 c 128,-1,53
 392 432 392 432 407 434.5 c 128,-1,54
 422 437 422 437 433.5 441.5 c 128,-1,55
 445 446 445 446 457 454 c 0,56,57
 489 474 489 474 502.5 502 c 128,-1,58
 516 530 516 530 516 575 c 0,59,60
 516 654 516 654 477.5 688.5 c 128,-1,61
 439 723 439 723 357 723 c 2,62,-1
 280 723 l 2,63,64
 263 723 263 723 263 706 c 2,65,-1
 263 430 l 1,66,-1
 319 430 l 2,51,52
EndSplineSet
EndChar

StartChar: C
Encoding: 67 67 38
Width: 802
GlyphClass: 1
Flags: W
LayerCount: 2
Fore
SplineSet
689 770 m 1,0,-1
 717 770 l 1,1,-1
 726 540 l 1,2,-1
 689 540 l 1,3,4
 667 628 667 628 604 678 c 128,-1,5
 541 728 541 728 452 728 c 0,6,7
 391 728 391 728 343 704 c 128,-1,8
 295 680 295 680 262 635 c 128,-1,9
 229 590 229 590 211.5 525 c 128,-1,10
 194 460 194 460 194 378 c 0,11,12
 194 217 194 217 261 130.5 c 128,-1,13
 328 44 328 44 455 44 c 0,14,15
 648 44 648 44 703 249 c 1,16,-1
 744 249 l 1,17,-1
 744 0 l 1,18,-1
 709 0 l 1,19,-1
 686 79 l 1,20,21
 581 -10 581 -10 432 -10 c 0,22,23
 347 -10 347 -10 278.5 17 c 128,-1,24
 210 44 210 44 161.5 93.5 c 128,-1,25
 113 143 113 143 86.5 214 c 128,-1,26
 60 285 60 285 60 372 c 0,27,28
 60 463 60 463 88 538 c 128,-1,29
 116 613 116 613 166.5 667 c 128,-1,30
 217 721 217 721 287.5 750.5 c 128,-1,31
 358 780 358 780 443 780 c 0,32,33
 503 780 503 780 556 763 c 128,-1,34
 609 746 609 746 671 708 c 1,35,-1
 689 770 l 1,0,-1
EndSplineSet
EndChar

StartChar: D
Encoding: 68 68 39
Width: 884
GlyphClass: 1
Flags: W
LayerCount: 2
Fore
SplineSet
38 0 m 1,0,-1
 38 38 l 1,1,2
 76 39 76 39 99.5 43.5 c 128,-1,3
 123 48 123 48 136 60.5 c 128,-1,4
 149 73 149 73 153.5 94.5 c 128,-1,5
 158 116 158 116 158 152 c 2,6,-1
 158 618 l 2,7,8
 158 653 158 653 154.5 674.5 c 128,-1,9
 151 696 151 696 140.5 708.5 c 128,-1,10
 130 721 130 721 110 725.5 c 128,-1,11
 90 730 90 730 58 732 c 1,12,-1
 58 770 l 1,13,-1
 409 770 l 2,14,15
 499 770 499 770 575.5 740 c 128,-1,16
 652 710 652 710 707.5 657 c 128,-1,17
 763 604 763 604 794 531 c 128,-1,18
 825 458 825 458 825 372 c 0,19,20
 825 290 825 290 796 221.5 c 128,-1,21
 767 153 767 153 714.5 104 c 128,-1,22
 662 55 662 55 589 27.5 c 128,-1,23
 516 0 516 0 429 0 c 2,24,-1
 38 0 l 1,0,-1
280 721 m 2,25,26
 263 721 263 721 263 704 c 2,27,-1
 263 163 l 2,28,29
 263 49 263 49 412 49 c 0,30,31
 549 49 549 49 622 130.5 c 128,-1,32
 695 212 695 212 695 370 c 0,33,34
 695 453 695 453 675 518 c 128,-1,35
 655 583 655 583 617.5 628 c 128,-1,36
 580 673 580 673 527 697 c 128,-1,37
 474 721 474 721 407 721 c 2,38,-1
 280 721 l 2,25,26
EndSplineSet
EndChar

StartChar: E
Encoding: 69 69 40
Width: 726
GlyphClass: 1
Flags: W
LayerCount: 2
Fore
SplineSet
260 423 m 1,0,1
 314 423 314 423 350.5 429.5 c 128,-1,2
 387 436 387 436 408.5 450 c 128,-1,3
 430 464 430 464 439.5 486 c 128,-1,4
 449 508 449 508 449 538 c 1,5,-1
 484 538 l 1,6,-1
 484 265 l 1,7,-1
 449 265 l 1,8,9
 449 295 449 295 440.5 317 c 128,-1,10
 432 339 432 339 410.5 353.5 c 128,-1,11
 389 368 389 368 352.5 375.5 c 128,-1,12
 316 383 316 383 260 383 c 1,13,-1
 260 157 l 2,14,15
 260 124 260 124 268 102.5 c 128,-1,16
 276 81 276 81 295.5 67.5 c 128,-1,17
 315 54 315 54 347 48.5 c 128,-1,18
 379 43 379 43 426 43 c 0,19,20
 479 43 479 43 516 50.5 c 128,-1,21
 553 58 553 58 578 76 c 128,-1,22
 603 94 603 94 618 123.5 c 128,-1,23
 633 153 633 153 643 197 c 1,24,-1
 681 197 l 1,25,-1
 666 0 l 1,26,-1
 45 0 l 1,27,-1
 45 38 l 1,28,29
 80 39 80 39 101.5 44 c 128,-1,30
 123 49 123 49 135 61 c 128,-1,31
 147 73 147 73 151 95 c 128,-1,32
 155 117 155 117 155 152 c 2,33,-1
 155 618 l 2,34,35
 155 653 155 653 151.5 674.5 c 128,-1,36
 148 696 148 696 137.5 708.5 c 128,-1,37
 127 721 127 721 107 725.5 c 128,-1,38
 87 730 87 730 55 732 c 1,39,-1
 55 770 l 1,40,-1
 633 770 l 1,41,-1
 642 594 l 1,42,-1
 607 594 l 1,43,44
 601 634 601 634 587.5 659.5 c 128,-1,45
 574 685 574 685 550.5 700 c 128,-1,46
 527 715 527 715 491 721 c 128,-1,47
 455 727 455 727 404 727 c 2,48,-1
 277 727 l 2,49,50
 260 727 260 727 260 710 c 2,51,-1
 260 423 l 1,0,1
EndSplineSet
EndChar

StartChar: F
Encoding: 70 70 41
Width: 670
GlyphClass: 1
Flags: W
LayerCount: 2
Fore
SplineSet
260 159 m 2,0,1
 260 121 260 121 264.5 97.5 c 128,-1,2
 269 74 269 74 284 61.5 c 128,-1,3
 299 49 299 49 326.5 44 c 128,-1,4
 354 39 354 39 399 38 c 1,5,-1
 399 0 l 1,6,-1
 45 0 l 1,7,-1
 45 38 l 1,8,9
 80 39 80 39 101.5 44 c 128,-1,10
 123 49 123 49 135 61 c 128,-1,11
 147 73 147 73 151 95 c 128,-1,12
 155 117 155 117 155 152 c 2,13,-1
 155 618 l 2,14,15
 155 653 155 653 151.5 674.5 c 128,-1,16
 148 696 148 696 137.5 708.5 c 128,-1,17
 127 721 127 721 107 725.5 c 128,-1,18
 87 730 87 730 55 732 c 1,19,-1
 55 770 l 1,20,-1
 633 770 l 1,21,-1
 644 579 l 1,22,-1
 609 579 l 1,23,24
 603 622 603 622 590 649.5 c 128,-1,25
 577 677 577 677 553.5 693 c 128,-1,26
 530 709 530 709 494 715.5 c 128,-1,27
 458 722 458 722 404 722 c 2,28,-1
 277 722 l 2,29,30
 260 722 260 722 260 705 c 2,31,-1
 260 403 l 1,32,33
 308 403 308 403 342.5 408.5 c 128,-1,34
 377 414 377 414 399.5 428 c 128,-1,35
 422 442 422 442 434 466 c 128,-1,36
 446 490 446 490 449 528 c 1,37,-1
 484 528 l 1,38,-1
 484 235 l 1,39,-1
 449 235 l 1,40,41
 444 273 444 273 433 298 c 128,-1,42
 422 323 422 323 400.5 337 c 128,-1,43
 379 351 379 351 345 357 c 128,-1,44
 311 363 311 363 260 363 c 1,45,-1
 260 159 l 2,0,1
EndSplineSet
EndChar

StartChar: G
Encoding: 71 71 42
Width: 870
GlyphClass: 1
Flags: W
LayerCount: 2
Fore
SplineSet
428 -10 m 0,0,1
 343 -10 343 -10 275 17 c 128,-1,2
 207 44 207 44 159 93.5 c 128,-1,3
 111 143 111 143 85.5 214 c 128,-1,4
 60 285 60 285 60 372 c 0,5,6
 60 463 60 463 88 538 c 128,-1,7
 116 613 116 613 166.5 667 c 128,-1,8
 217 721 217 721 287.5 750.5 c 128,-1,9
 358 780 358 780 443 780 c 0,10,11
 503 780 503 780 556 763 c 128,-1,12
 609 746 609 746 671 708 c 1,13,-1
 692 770 l 1,14,-1
 727 770 l 1,15,-1
 714 540 l 1,16,-1
 666 540 l 1,17,18
 666 589 666 589 647.5 624.5 c 128,-1,19
 629 660 629 660 599 683 c 128,-1,20
 569 706 569 706 530.5 717 c 128,-1,21
 492 728 492 728 452 728 c 0,22,23
 391 728 391 728 343 704 c 128,-1,24
 295 680 295 680 262 635 c 128,-1,25
 229 590 229 590 211.5 525 c 128,-1,26
 194 460 194 460 194 378 c 0,27,28
 194 217 194 217 261 130.5 c 128,-1,29
 328 44 328 44 455 44 c 0,30,31
 503 44 503 44 541 55.5 c 128,-1,32
 579 67 579 67 605.5 86.5 c 128,-1,33
 632 106 632 106 645.5 131.5 c 128,-1,34
 659 157 659 157 659 185 c 0,35,36
 659 243 659 243 635.5 263.5 c 128,-1,37
 612 284 612 284 559 284 c 1,38,-1
 559 322 l 1,39,-1
 843 322 l 1,40,-1
 843 284 l 1,41,42
 819 284 819 284 803 280 c 128,-1,43
 787 276 787 276 777.5 265.5 c 128,-1,44
 768 255 768 255 764.5 238 c 128,-1,45
 761 221 761 221 761 195 c 2,46,-1
 761 83 l 1,47,48
 742 83 742 83 726.5 81.5 c 128,-1,49
 711 80 711 80 694 74.5 c 128,-1,50
 677 69 677 69 656.5 59.5 c 128,-1,51
 636 50 636 50 608 34 c 0,52,53
 573 14 573 14 527.5 2 c 128,-1,54
 482 -10 482 -10 428 -10 c 0,0,1
EndSplineSet
EndChar

StartChar: H
Encoding: 72 72 43
Width: 925
GlyphClass: 1
Flags: W
LayerCount: 2
Fore
SplineSet
770 159 m 2,0,1
 770 121 770 121 774 97.5 c 128,-1,2
 778 74 778 74 789.5 61.5 c 128,-1,3
 801 49 801 49 822.5 44 c 128,-1,4
 844 39 844 39 879 38 c 1,5,-1
 879 0 l 1,6,-1
 555 0 l 1,7,-1
 555 38 l 1,8,9
 590 39 590 39 611.5 44 c 128,-1,10
 633 49 633 49 645 61 c 128,-1,11
 657 73 657 73 661 95 c 128,-1,12
 665 117 665 117 665 152 c 2,13,-1
 665 369 l 1,14,-1
 260 369 l 1,15,-1
 260 159 l 2,16,17
 260 121 260 121 264 97.5 c 128,-1,18
 268 74 268 74 279.5 61.5 c 128,-1,19
 291 49 291 49 312.5 44 c 128,-1,20
 334 39 334 39 369 38 c 1,21,-1
 369 0 l 1,22,-1
 45 0 l 1,23,-1
 45 38 l 1,24,25
 80 39 80 39 101.5 44 c 128,-1,26
 123 49 123 49 135 61 c 128,-1,27
 147 73 147 73 151 95 c 128,-1,28
 155 117 155 117 155 152 c 2,29,-1
 155 618 l 2,30,31
 155 653 155 653 151.5 674.5 c 128,-1,32
 148 696 148 696 137.5 708.5 c 128,-1,33
 127 721 127 721 107 725.5 c 128,-1,34
 87 730 87 730 55 732 c 1,35,-1
 55 770 l 1,36,-1
 359 770 l 1,37,-1
 359 732 l 1,38,39
 327 731 327 731 307.5 726 c 128,-1,40
 288 721 288 721 277.5 708 c 128,-1,41
 267 695 267 695 263.5 672 c 128,-1,42
 260 649 260 649 260 611 c 2,43,-1
 260 419 l 1,44,-1
 665 419 l 1,45,-1
 665 618 l 2,46,47
 665 653 665 653 661.5 674.5 c 128,-1,48
 658 696 658 696 647.5 708.5 c 128,-1,49
 637 721 637 721 617 725.5 c 128,-1,50
 597 730 597 730 565 732 c 1,51,-1
 565 770 l 1,52,-1
 869 770 l 1,53,-1
 869 732 l 1,54,55
 837 731 837 731 817.5 726 c 128,-1,56
 798 721 798 721 787.5 708 c 128,-1,57
 777 695 777 695 773.5 672 c 128,-1,58
 770 649 770 649 770 611 c 2,59,-1
 770 159 l 2,0,1
EndSplineSet
EndChar

StartChar: I
Encoding: 73 73 44
Width: 415
GlyphClass: 1
Flags: W
LayerCount: 2
Fore
SplineSet
260 189 m 2,0,1
 260 139 260 139 264 110 c 128,-1,2
 268 81 268 81 279.5 65 c 128,-1,3
 291 49 291 49 312.5 44 c 128,-1,4
 334 39 334 39 369 38 c 1,5,-1
 369 0 l 1,6,-1
 45 0 l 1,7,-1
 45 38 l 1,8,9
 80 39 80 39 101.5 44.5 c 128,-1,10
 123 50 123 50 135 65 c 128,-1,11
 147 80 147 80 151 107.5 c 128,-1,12
 155 135 155 135 155 182 c 2,13,-1
 155 588 l 2,14,15
 155 630 155 630 151.5 657.5 c 128,-1,16
 148 685 148 685 137.5 701 c 128,-1,17
 127 717 127 717 107 723.5 c 128,-1,18
 87 730 87 730 55 732 c 1,19,-1
 55 770 l 1,20,-1
 359 770 l 1,21,-1
 359 732 l 1,22,23
 327 731 327 731 307.5 724 c 128,-1,24
 288 717 288 717 277.5 700.5 c 128,-1,25
 267 684 267 684 263.5 655 c 128,-1,26
 260 626 260 626 260 581 c 2,27,-1
 260 189 l 2,0,1
EndSplineSet
EndChar

StartChar: J
Encoding: 74 74 45
Width: 394
GlyphClass: 1
Flags: W
LayerCount: 2
Fore
SplineSet
145 618 m 2,0,1
 145 653 145 653 141.5 674.5 c 128,-1,2
 138 696 138 696 127.5 708.5 c 128,-1,3
 117 721 117 721 97 725.5 c 128,-1,4
 77 730 77 730 45 732 c 1,5,-1
 45 770 l 1,6,-1
 349 770 l 1,7,-1
 349 732 l 1,8,9
 317 731 317 731 297.5 726 c 128,-1,10
 278 721 278 721 267.5 708 c 128,-1,11
 257 695 257 695 253.5 672 c 128,-1,12
 250 649 250 649 250 611 c 2,13,-1
 250 -2 l 2,14,15
 250 -128 250 -128 197 -194 c 128,-1,16
 144 -260 144 -260 42 -260 c 0,17,18
 -27 -260 -27 -260 -68.5 -233.5 c 128,-1,19
 -110 -207 -110 -207 -110 -163 c 0,20,21
 -110 -137 -110 -137 -96.5 -123.5 c 128,-1,22
 -83 -110 -83 -110 -59 -110 c 0,23,24
 -40 -110 -40 -110 -28.5 -119.5 c 128,-1,25
 -17 -129 -17 -129 -2 -157 c 0,26,27
 15 -189 15 -189 27.5 -200.5 c 128,-1,28
 40 -212 40 -212 60 -212 c 0,29,30
 101 -212 101 -212 123 -168 c 128,-1,31
 145 -124 145 -124 145 -43 c 2,32,-1
 145 618 l 2,0,1
EndSplineSet
EndChar

StartChar: K
Encoding: 75 75 46
Width: 779
GlyphClass: 1
Flags: W
LayerCount: 2
Fore
SplineSet
260 159 m 2,0,1
 260 121 260 121 264 97 c 128,-1,2
 268 73 268 73 280 60 c 128,-1,3
 292 47 292 47 313 42.5 c 128,-1,4
 334 38 334 38 369 38 c 1,5,-1
 369 0 l 1,6,-1
 45 0 l 1,7,-1
 45 38 l 1,8,9
 80 38 80 38 101.5 42.5 c 128,-1,10
 123 47 123 47 135 59.5 c 128,-1,11
 147 72 147 72 151 94.5 c 128,-1,12
 155 117 155 117 155 152 c 2,13,-1
 155 618 l 2,14,15
 155 656 155 656 150.5 678.5 c 128,-1,16
 146 701 146 701 134.5 713 c 128,-1,17
 123 725 123 725 104 728.5 c 128,-1,18
 85 732 85 732 55 732 c 1,19,-1
 55 770 l 1,20,-1
 359 770 l 1,21,-1
 359 732 l 1,22,23
 329 732 329 732 310 728 c 128,-1,24
 291 724 291 724 279.5 711 c 128,-1,25
 268 698 268 698 264 674.5 c 128,-1,26
 260 651 260 651 260 611 c 2,27,-1
 260 364 l 1,28,-1
 510 665 l 2,29,30
 530 690 530 690 530 704 c 0,31,32
 530 732 530 732 473 732 c 1,33,-1
 473 770 l 1,34,-1
 714 770 l 1,35,-1
 714 733 l 1,36,37
 694 733 694 733 679 730.5 c 128,-1,38
 664 728 664 728 649.5 720 c 128,-1,39
 635 712 635 712 619 697 c 128,-1,40
 603 682 603 682 582 658 c 2,41,-1
 394 441 l 1,42,-1
 686 90 l 2,43,44
 711 61 711 61 733 49.5 c 128,-1,45
 755 38 755 38 792 38 c 1,46,-1
 792 0 l 1,47,-1
 485 0 l 1,48,-1
 485 38 l 1,49,50
 524 38 524 38 541 44.5 c 128,-1,51
 558 51 558 51 558 65 c 0,52,53
 558 73 558 73 550 88 c 128,-1,54
 542 103 542 103 524 125 c 2,55,-1
 329 365 l 1,56,-1
 260 285 l 1,57,-1
 260 159 l 2,0,1
EndSplineSet
EndChar

StartChar: L
Encoding: 76 76 47
Width: 727
GlyphClass: 1
Flags: W
LayerCount: 2
Fore
SplineSet
691 0 m 1,0,-1
 45 0 l 1,1,-1
 45 38 l 1,2,3
 80 39 80 39 101.5 44 c 128,-1,4
 123 49 123 49 135 61 c 128,-1,5
 147 73 147 73 151 95 c 128,-1,6
 155 117 155 117 155 152 c 2,7,-1
 155 618 l 2,8,9
 155 653 155 653 151.5 674.5 c 128,-1,10
 148 696 148 696 137.5 708.5 c 128,-1,11
 127 721 127 721 107 725.5 c 128,-1,12
 87 730 87 730 55 732 c 1,13,-1
 55 770 l 1,14,-1
 359 770 l 1,15,-1
 359 732 l 1,16,17
 327 731 327 731 307.5 726 c 128,-1,18
 288 721 288 721 277.5 708 c 128,-1,19
 267 695 267 695 263.5 672 c 128,-1,20
 260 649 260 649 260 611 c 2,21,-1
 260 180 l 2,22,23
 260 138 260 138 268.5 111.5 c 128,-1,24
 277 85 277 85 297.5 70.5 c 128,-1,25
 318 56 318 56 352 50.5 c 128,-1,26
 386 45 386 45 438 45 c 0,27,28
 495 45 495 45 534 51.5 c 128,-1,29
 573 58 573 58 599.5 74.5 c 128,-1,30
 626 91 626 91 641.5 120.5 c 128,-1,31
 657 150 657 150 668 197 c 1,32,-1
 706 197 l 1,33,-1
 691 0 l 1,0,-1
EndSplineSet
EndChar

StartChar: M
Encoding: 77 77 48
Width: 1090
GlyphClass: 1
Flags: W
LayerCount: 2
Fore
SplineSet
550 179 m 1,0,-1
 810 770 l 1,1,-1
 1034 770 l 1,2,-1
 1034 732 l 1,3,4
 1002 731 1002 731 982.5 724 c 128,-1,5
 963 717 963 717 952.5 700.5 c 128,-1,6
 942 684 942 684 938.5 655 c 128,-1,7
 935 626 935 626 935 581 c 2,8,-1
 935 189 l 2,9,10
 935 139 935 139 939 110 c 128,-1,11
 943 81 943 81 954.5 65 c 128,-1,12
 966 49 966 49 987.5 44 c 128,-1,13
 1009 39 1009 39 1044 38 c 1,14,-1
 1044 0 l 1,15,-1
 720 0 l 1,16,-1
 720 38 l 1,17,18
 755 39 755 39 776.5 44.5 c 128,-1,19
 798 50 798 50 810 65 c 128,-1,20
 822 80 822 80 826 107.5 c 128,-1,21
 830 135 830 135 830 182 c 2,22,-1
 830 646 l 1,23,-1
 820 646 l 1,24,-1
 528 -10 l 1,25,-1
 506 -10 l 1,26,-1
 219 646 l 1,27,-1
 215 646 l 1,28,-1
 215 189 l 2,29,30
 215 139 215 139 219 110 c 128,-1,31
 223 81 223 81 234.5 65 c 128,-1,32
 246 49 246 49 267.5 44 c 128,-1,33
 289 39 289 39 324 38 c 1,34,-1
 324 0 l 1,35,-1
 45 0 l 1,36,-1
 45 38 l 1,37,38
 80 39 80 39 101.5 44.5 c 128,-1,39
 123 50 123 50 135 65 c 128,-1,40
 147 80 147 80 151 107.5 c 128,-1,41
 155 135 155 135 155 182 c 2,42,-1
 155 588 l 2,43,44
 155 630 155 630 151.5 657.5 c 128,-1,45
 148 685 148 685 137.5 701 c 128,-1,46
 127 717 127 717 107 723.5 c 128,-1,47
 87 730 87 730 55 732 c 1,48,-1
 55 770 l 1,49,-1
 294 770 l 1,50,-1
 546 179 l 1,51,-1
 550 179 l 1,0,-1
EndSplineSet
EndChar

StartChar: N
Encoding: 78 78 49
Width: 902
GlyphClass: 1
Flags: W
LayerCount: 2
Fore
SplineSet
694 -10 m 1,0,-1
 219 616 l 1,1,-1
 215 616 l 1,2,-1
 215 189 l 2,3,4
 215 139 215 139 218.5 110 c 128,-1,5
 222 81 222 81 232.5 65 c 128,-1,6
 243 49 243 49 262.5 44 c 128,-1,7
 282 39 282 39 314 38 c 1,8,-1
 314 0 l 1,9,-1
 45 0 l 1,10,-1
 45 38 l 1,11,12
 80 39 80 39 101.5 44.5 c 128,-1,13
 123 50 123 50 135 65 c 128,-1,14
 147 80 147 80 151 107.5 c 128,-1,15
 155 135 155 135 155 182 c 2,16,-1
 155 588 l 2,17,18
 155 630 155 630 151.5 657.5 c 128,-1,19
 148 685 148 685 137.5 701 c 128,-1,20
 127 717 127 717 107 723.5 c 128,-1,21
 87 730 87 730 55 732 c 1,22,-1
 55 770 l 1,23,-1
 253 770 l 1,24,-1
 690 187 l 1,25,-1
 694 187 l 1,26,-1
 694 581 l 2,27,28
 694 630 694 630 690.5 659.5 c 128,-1,29
 687 689 687 689 676.5 705 c 128,-1,30
 666 721 666 721 646.5 726 c 128,-1,31
 627 731 627 731 595 732 c 1,32,-1
 595 770 l 1,33,-1
 864 770 l 1,34,-1
 864 732 l 1,35,36
 829 731 829 731 807.5 725.5 c 128,-1,37
 786 720 786 720 774 705 c 128,-1,38
 762 690 762 690 758 662 c 128,-1,39
 754 634 754 634 754 588 c 2,40,-1
 754 -10 l 1,41,-1
 694 -10 l 1,0,-1
EndSplineSet
EndChar

StartChar: O
Encoding: 79 79 50
Width: 946
GlyphClass: 1
Flags: W
LayerCount: 2
Fore
SplineSet
473 780 m 256,0,1
 561 780 561 780 637 749 c 128,-1,2
 713 718 713 718 769 664 c 128,-1,3
 825 610 825 610 857 537 c 128,-1,4
 889 464 889 464 889 379 c 0,5,6
 889 298 889 298 856.5 227 c 128,-1,7
 824 156 824 156 768 103.5 c 128,-1,8
 712 51 712 51 636 20.5 c 128,-1,9
 560 -10 560 -10 473 -10 c 256,10,11
 386 -10 386 -10 310 20.5 c 128,-1,12
 234 51 234 51 178 103.5 c 128,-1,13
 122 156 122 156 89.5 227 c 128,-1,14
 57 298 57 298 57 379 c 0,15,16
 57 464 57 464 89 537 c 128,-1,17
 121 610 121 610 177 664 c 128,-1,18
 233 718 233 718 309 749 c 128,-1,19
 385 780 385 780 473 780 c 256,0,1
473 45 m 256,20,21
 539 45 539 45 591.5 68 c 128,-1,22
 644 91 644 91 681.5 134 c 128,-1,23
 719 177 719 177 739 238.5 c 128,-1,24
 759 300 759 300 759 376 c 0,25,26
 759 456 759 456 739 520.5 c 128,-1,27
 719 585 719 585 682 630.5 c 128,-1,28
 645 676 645 676 592 700.5 c 128,-1,29
 539 725 539 725 473 725 c 256,30,31
 407 725 407 725 354 700.5 c 128,-1,32
 301 676 301 676 264 630.5 c 128,-1,33
 227 585 227 585 207 520.5 c 128,-1,34
 187 456 187 456 187 376 c 0,35,36
 187 300 187 300 207 238.5 c 128,-1,37
 227 177 227 177 264 134 c 128,-1,38
 301 91 301 91 354 68 c 128,-1,39
 407 45 407 45 473 45 c 256,20,21
EndSplineSet
Substitution2: "Single Substitution lookup 6 subtable" ordmasculine
EndChar

StartChar: P
Encoding: 80 80 51
Width: 687
GlyphClass: 1
Flags: W
LayerCount: 2
Fore
SplineSet
658 577 m 0,0,1
 658 524 658 524 641 482 c 128,-1,2
 624 440 624 440 587.5 411 c 128,-1,3
 551 382 551 382 492.5 366 c 128,-1,4
 434 350 434 350 350 350 c 2,5,-1
 260 350 l 1,6,-1
 260 157 l 2,7,8
 260 120 260 120 264.5 96.5 c 128,-1,9
 269 73 269 73 283.5 60 c 128,-1,10
 298 47 298 47 325.5 42.5 c 128,-1,11
 353 38 353 38 398 38 c 1,12,-1
 398 0 l 1,13,-1
 45 0 l 1,14,-1
 45 38 l 1,15,16
 80 39 80 39 101.5 44 c 128,-1,17
 123 49 123 49 135 61 c 128,-1,18
 147 73 147 73 151 95 c 128,-1,19
 155 117 155 117 155 152 c 2,20,-1
 155 618 l 2,21,22
 155 653 155 653 151.5 674.5 c 128,-1,23
 148 696 148 696 137.5 708.5 c 128,-1,24
 127 721 127 721 107 725.5 c 128,-1,25
 87 730 87 730 55 732 c 1,26,-1
 55 770 l 1,27,-1
 369 770 l 2,28,29
 507 770 507 770 582.5 719 c 128,-1,30
 658 668 658 668 658 577 c 0,0,1
260 400 m 1,31,-1
 331 400 l 2,32,33
 431 400 431 400 479.5 438.5 c 128,-1,34
 528 477 528 477 528 565 c 0,35,36
 528 650 528 650 489.5 686.5 c 128,-1,37
 451 723 451 723 369 723 c 2,38,-1
 277 723 l 2,39,40
 260 723 260 723 260 706 c 2,41,-1
 260 400 l 1,31,-1
EndSplineSet
EndChar

StartChar: Q
Encoding: 81 81 52
Width: 948
GlyphClass: 1
Flags: W
LayerCount: 2
Fore
SplineSet
474 780 m 256,0,1
 562 780 562 780 638 749 c 128,-1,2
 714 718 714 718 770 664 c 128,-1,3
 826 610 826 610 858 536.5 c 128,-1,4
 890 463 890 463 890 378 c 0,5,6
 890 284 890 284 851.5 206.5 c 128,-1,7
 813 129 813 129 749 73 c 0,8,9
 707 37 707 37 655 12.5 c 128,-1,10
 603 -12 603 -12 546 -33 c 0,11,12
 519 -44 519 -44 493.5 -56 c 128,-1,13
 468 -68 468 -68 447 -84 c 1,14,-1
 447 -88 l 1,15,16
 453 -87 453 -87 463.5 -86.5 c 128,-1,17
 474 -86 474 -86 482 -86 c 0,18,19
 527 -86 527 -86 566 -97.5 c 128,-1,20
 605 -109 605 -109 642 -123.5 c 128,-1,21
 679 -138 679 -138 716 -149.5 c 128,-1,22
 753 -161 753 -161 794 -161 c 0,23,24
 841 -161 841 -161 865 -141 c 128,-1,25
 889 -121 889 -121 904 -72 c 1,26,-1
 929 -72 l 1,27,28
 931 -81 931 -81 932 -92 c 128,-1,29
 933 -103 933 -103 933 -114 c 0,30,31
 933 -146 933 -146 919.5 -172.5 c 128,-1,32
 906 -199 906 -199 882.5 -218.5 c 128,-1,33
 859 -238 859 -238 827 -249 c 128,-1,34
 795 -260 795 -260 758 -260 c 0,35,36
 702 -260 702 -260 654.5 -238.5 c 128,-1,37
 607 -217 607 -217 564.5 -191.5 c 128,-1,38
 522 -166 522 -166 483 -144.5 c 128,-1,39
 444 -123 444 -123 406 -123 c 0,40,41
 380 -123 380 -123 364 -133 c 128,-1,42
 348 -143 348 -143 335 -155.5 c 128,-1,43
 322 -168 322 -168 310.5 -178 c 128,-1,44
 299 -188 299 -188 282 -188 c 0,45,46
 253 -188 253 -188 253 -163 c 0,47,48
 253 -156 253 -156 255 -151 c 128,-1,49
 257 -146 257 -146 263.5 -139.5 c 128,-1,50
 270 -133 270 -133 283 -124.5 c 128,-1,51
 296 -116 296 -116 319 -103 c 2,52,-1
 449 -29 l 1,53,54
 365 -26 365 -26 293 6.5 c 128,-1,55
 221 39 221 39 169 93.5 c 128,-1,56
 117 148 117 148 87.5 220.5 c 128,-1,57
 58 293 58 293 58 376 c 0,58,59
 58 462 58 462 90 536 c 128,-1,60
 122 610 122 610 178 664 c 128,-1,61
 234 718 234 718 310 749 c 128,-1,62
 386 780 386 780 474 780 c 256,0,1
474 20 m 256,63,64
 540 20 540 20 592.5 45 c 128,-1,65
 645 70 645 70 682.5 116.5 c 128,-1,66
 720 163 720 163 740 228.5 c 128,-1,67
 760 294 760 294 760 376 c 0,68,69
 760 456 760 456 740 520.5 c 128,-1,70
 720 585 720 585 683 630.5 c 128,-1,71
 646 676 646 676 593 700.5 c 128,-1,72
 540 725 540 725 474 725 c 256,73,74
 408 725 408 725 355 700.5 c 128,-1,75
 302 676 302 676 265 630.5 c 128,-1,76
 228 585 228 585 208 520.5 c 128,-1,77
 188 456 188 456 188 376 c 0,78,79
 188 294 188 294 208 228.5 c 128,-1,80
 228 163 228 163 265 116.5 c 128,-1,81
 302 70 302 70 355 45 c 128,-1,82
 408 20 408 20 474 20 c 256,63,64
EndSplineSet
EndChar

StartChar: R
Encoding: 82 82 53
Width: 788
GlyphClass: 1
Flags: W
LayerCount: 2
Fore
SplineSet
658 577 m 0,0,1
 658 497 658 497 610 444 c 128,-1,2
 562 391 562 391 457 373 c 1,3,-1
 678 107 l 2,4,5
 705 74 705 74 737.5 59.5 c 128,-1,6
 770 45 770 45 815 38 c 1,7,-1
 815 0 l 1,8,-1
 622 0 l 1,9,-1
 377 314 l 2,10,11
 364 331 364 331 352.5 341 c 128,-1,12
 341 351 341 351 328.5 356.5 c 128,-1,13
 316 362 316 362 299.5 363.5 c 128,-1,14
 283 365 283 365 260 365 c 1,15,-1
 260 157 l 2,16,17
 260 120 260 120 264.5 96.5 c 128,-1,18
 269 73 269 73 283.5 60 c 128,-1,19
 298 47 298 47 325.5 42.5 c 128,-1,20
 353 38 353 38 398 38 c 1,21,-1
 398 0 l 1,22,-1
 45 0 l 1,23,-1
 45 38 l 1,24,25
 80 39 80 39 101.5 44 c 128,-1,26
 123 49 123 49 135 61 c 128,-1,27
 147 73 147 73 151 95 c 128,-1,28
 155 117 155 117 155 152 c 2,29,-1
 155 618 l 2,30,31
 155 653 155 653 151.5 674.5 c 128,-1,32
 148 696 148 696 137.5 708.5 c 128,-1,33
 127 721 127 721 107 725.5 c 128,-1,34
 87 730 87 730 55 732 c 1,35,-1
 55 770 l 1,36,-1
 369 770 l 2,37,38
 507 770 507 770 582.5 719 c 128,-1,39
 658 668 658 668 658 577 c 0,0,1
260 415 m 1,40,-1
 331 415 l 2,41,42
 431 415 431 415 479.5 451.5 c 128,-1,43
 528 488 528 488 528 572 c 0,44,45
 528 653 528 653 489.5 688 c 128,-1,46
 451 723 451 723 369 723 c 2,47,-1
 277 723 l 2,48,49
 260 723 260 723 260 706 c 2,50,-1
 260 415 l 1,40,-1
EndSplineSet
EndChar

StartChar: S
Encoding: 83 83 54
Width: 645
GlyphClass: 1
Flags: W
LayerCount: 2
Fore
SplineSet
58 235 m 1,0,-1
 95 235 l 1,1,2
 102 190 102 190 121.5 154 c 128,-1,3
 141 118 141 118 170.5 93 c 128,-1,4
 200 68 200 68 238.5 54.5 c 128,-1,5
 277 41 277 41 322 41 c 0,6,7
 396 41 396 41 439 76 c 128,-1,8
 482 111 482 111 482 171 c 0,9,10
 482 196 482 196 473.5 217 c 128,-1,11
 465 238 465 238 445 257.5 c 128,-1,12
 425 277 425 277 391.5 296 c 128,-1,13
 358 315 358 315 307 337 c 0,14,15
 245 364 245 364 203 389 c 128,-1,16
 161 414 161 414 136 441 c 128,-1,17
 111 468 111 468 100.5 498.5 c 128,-1,18
 90 529 90 529 90 568 c 0,19,20
 90 614 90 614 106.5 653 c 128,-1,21
 123 692 123 692 153 720.5 c 128,-1,22
 183 749 183 749 224 764.5 c 128,-1,23
 265 780 265 780 314 780 c 0,24,25
 358 780 358 780 396 766 c 128,-1,26
 434 752 434 752 473 721 c 1,27,-1
 499 766 l 1,28,-1
 522 766 l 1,29,-1
 533 567 l 1,30,-1
 496 567 l 1,31,32
 472 649 472 649 426.5 689 c 128,-1,33
 381 729 381 729 317 729 c 0,34,35
 256 729 256 729 220 699 c 128,-1,36
 184 669 184 669 184 618 c 0,37,38
 184 594 184 594 192 574.5 c 128,-1,39
 200 555 200 555 218 537.5 c 128,-1,40
 236 520 236 520 265 502.5 c 128,-1,41
 294 485 294 485 337 466 c 0,42,43
 411 433 411 433 460 404.5 c 128,-1,44
 509 376 509 376 538 347.5 c 128,-1,45
 567 319 567 319 579 287.5 c 128,-1,46
 591 256 591 256 591 217 c 0,47,48
 591 167 591 167 571 125 c 128,-1,49
 551 83 551 83 515 53 c 128,-1,50
 479 23 479 23 429 6.5 c 128,-1,51
 379 -10 379 -10 319 -10 c 0,52,53
 262 -10 262 -10 216.5 6 c 128,-1,54
 171 22 171 22 124 60 c 1,55,-1
 96 11 l 1,56,-1
 73 11 l 1,57,-1
 58 235 l 1,0,-1
EndSplineSet
EndChar

StartChar: T
Encoding: 84 84 55
Width: 803
GlyphClass: 1
Flags: W
LayerCount: 2
Fore
SplineSet
786 579 m 1,0,-1
 745 579 l 1,1,2
 742 622 742 622 731 651 c 128,-1,3
 720 680 720 680 699.5 696.5 c 128,-1,4
 679 713 679 713 648 720 c 128,-1,5
 617 727 617 727 574 727 c 0,6,7
 537 727 537 727 514.5 725.5 c 128,-1,8
 492 724 492 724 480 720 c 128,-1,9
 468 716 468 716 464.5 710.5 c 128,-1,10
 461 705 461 705 461 696 c 2,11,-1
 461 161 l 2,12,13
 461 129 461 129 465.5 106 c 128,-1,14
 470 83 470 83 483.5 68.5 c 128,-1,15
 497 54 497 54 522.5 46.5 c 128,-1,16
 548 39 548 39 590 38 c 1,17,-1
 590 0 l 1,18,-1
 212 0 l 1,19,-1
 212 38 l 1,20,21
 254 39 254 39 280 46.5 c 128,-1,22
 306 54 306 54 319.5 68.5 c 128,-1,23
 333 83 333 83 337.5 106 c 128,-1,24
 342 129 342 129 342 161 c 2,25,-1
 342 696 l 2,26,27
 342 705 342 705 338.5 710.5 c 128,-1,28
 335 716 335 716 324.5 720 c 128,-1,29
 314 724 314 724 295 725.5 c 128,-1,30
 276 727 276 727 244 727 c 0,31,32
 205 727 205 727 171.5 724 c 128,-1,33
 138 721 138 721 113.5 706.5 c 128,-1,34
 89 692 89 692 74 662 c 128,-1,35
 59 632 59 632 58 579 c 1,36,-1
 21 579 l 1,37,-1
 21 770 l 1,38,-1
 776 770 l 1,39,-1
 786 579 l 1,0,-1
EndSplineSet
EndChar

StartChar: U
Encoding: 85 85 56
Width: 861
GlyphClass: 1
Flags: W
LayerCount: 2
Fore
SplineSet
722 310 m 2,0,1
 722 231 722 231 706.5 171 c 128,-1,2
 691 111 691 111 656.5 71 c 128,-1,3
 622 31 622 31 567 10.5 c 128,-1,4
 512 -10 512 -10 434 -10 c 0,5,6
 360 -10 360 -10 305 4.5 c 128,-1,7
 250 19 250 19 213 52.5 c 128,-1,8
 176 86 176 86 158 140 c 128,-1,9
 140 194 140 194 140 273 c 2,10,-1
 140 537 l 2,11,12
 140 611 140 611 136.5 651 c 128,-1,13
 133 691 133 691 116 710 c 0,14,15
 104 723 104 723 83.5 727.5 c 128,-1,16
 63 732 63 732 29 732 c 1,17,-1
 29 770 l 1,18,-1
 370 770 l 1,19,-1
 370 732 l 1,20,21
 336 732 336 732 315 728 c 128,-1,22
 294 724 294 724 282 708 c 0,23,24
 268 690 268 690 264 650.5 c 128,-1,25
 260 611 260 611 260 537 c 2,26,-1
 260 265 l 2,27,28
 260 214 260 214 270.5 174.5 c 128,-1,29
 281 135 281 135 305 107.5 c 128,-1,30
 329 80 329 80 367.5 66 c 128,-1,31
 406 52 406 52 462 52 c 0,32,33
 562 52 562 52 612 107.5 c 128,-1,34
 662 163 662 163 662 271 c 2,35,-1
 662 512 l 2,36,37
 662 601 662 601 655 647 c 128,-1,38
 648 693 648 693 629 712 c 0,39,40
 615 725 615 725 594 728.5 c 128,-1,41
 573 732 573 732 542 732 c 1,42,-1
 542 770 l 1,43,-1
 832 770 l 1,44,-1
 832 732 l 1,45,46
 800 732 800 732 779.5 727 c 128,-1,47
 759 722 759 722 747 705 c 0,48,49
 732 684 732 684 727 639.5 c 128,-1,50
 722 595 722 595 722 512 c 2,51,-1
 722 310 l 2,0,1
EndSplineSet
EndChar

StartChar: V
Encoding: 86 86 57
Width: 784
GlyphClass: 1
Flags: W
LayerCount: 2
Fore
SplineSet
424 153 m 1,0,-1
 600 587 l 2,1,2
 615 624 615 624 621 645 c 128,-1,3
 627 666 627 666 627 683 c 0,4,5
 627 710 627 710 610.5 721 c 128,-1,6
 594 732 594 732 549 732 c 1,7,-1
 549 770 l 1,8,-1
 792 770 l 1,9,-1
 792 732 l 1,10,11
 769 729 769 729 752.5 724 c 128,-1,12
 736 719 736 719 723.5 710 c 128,-1,13
 711 701 711 701 701.5 686.5 c 128,-1,14
 692 672 692 672 683 651 c 2,15,-1
 412 -10 l 1,16,-1
 377 -10 l 1,17,-1
 119 613 l 2,18,19
 106 643 106 643 93.5 665 c 128,-1,20
 81 687 81 687 66 701 c 128,-1,21
 51 715 51 715 32 722 c 128,-1,22
 13 729 13 729 -13 731 c 1,23,-1
 -13 770 l 1,24,-1
 313 770 l 1,25,-1
 313 731 l 1,26,27
 285 731 285 731 267.5 728.5 c 128,-1,28
 250 726 250 726 240 720.5 c 128,-1,29
 230 715 230 715 226 707 c 128,-1,30
 222 699 222 699 222 689 c 0,31,32
 222 675 222 675 227 656.5 c 128,-1,33
 232 638 232 638 246 603 c 2,34,-1
 424 153 l 1,0,-1
EndSplineSet
EndChar

StartChar: W
Encoding: 87 87 58
Width: 1176
GlyphClass: 1
Flags: W
LayerCount: 2
Fore
SplineSet
834 151 m 1,0,-1
 990 585 l 2,1,2
 1004 624 1004 624 1010 647 c 128,-1,3
 1016 670 1016 670 1016 687 c 0,4,5
 1016 713 1016 713 999.5 722.5 c 128,-1,6
 983 732 983 732 941 732 c 1,7,-1
 941 770 l 1,8,-1
 1184 770 l 1,9,-1
 1184 732 l 1,10,11
 1138 732 1138 732 1114.5 713 c 128,-1,12
 1091 694 1091 694 1075 651 c 2,13,-1
 824 -10 l 1,14,-1
 789 -10 l 1,15,-1
 597 559 l 1,16,-1
 384 -10 l 1,17,-1
 349 -10 l 1,18,-1
 141 564 l 2,19,20
 123 612 123 612 108.5 644.5 c 128,-1,21
 94 677 94 677 77.5 696 c 128,-1,22
 61 715 61 715 40 723 c 128,-1,23
 19 731 19 731 -11 731 c 1,24,-1
 -11 770 l 1,25,-1
 315 770 l 1,26,-1
 315 731 l 1,27,28
 264 731 264 731 243.5 722 c 128,-1,29
 223 713 223 713 223 687 c 0,30,31
 223 674 223 674 227 657 c 128,-1,32
 231 640 231 640 239 617 c 2,33,-1
 391 154 l 1,34,-1
 514 500 l 2,35,36
 528 539 528 539 541.5 572.5 c 128,-1,37
 555 606 555 606 563 633 c 1,38,39
 549 662 549 662 537.5 681 c 128,-1,40
 526 700 526 700 514.5 711 c 128,-1,41
 503 722 503 722 490.5 726.5 c 128,-1,42
 478 731 478 731 464 731 c 1,43,-1
 464 770 l 1,44,-1
 770 770 l 1,45,-1
 770 731 l 1,46,47
 741 731 741 731 723 729 c 128,-1,48
 705 727 705 727 695.5 722.5 c 128,-1,49
 686 718 686 718 682.5 710 c 128,-1,50
 679 702 679 702 679 691 c 0,51,52
 679 676 679 676 684.5 654.5 c 128,-1,53
 690 633 690 633 700 600 c 2,54,-1
 834 151 l 1,0,-1
EndSplineSet
EndChar

StartChar: X
Encoding: 88 88 59
Width: 818
GlyphClass: 1
Flags: W
LayerCount: 2
Fore
SplineSet
695 109 m 2,0,1
 747 38 747 38 822 38 c 1,2,-1
 822 0 l 1,3,-1
 481 0 l 1,4,-1
 481 38 l 1,5,6
 526 38 526 38 542.5 46.5 c 128,-1,7
 559 55 559 55 559 70 c 0,8,9
 559 77 559 77 557.5 84.5 c 128,-1,10
 556 92 556 92 550.5 103 c 128,-1,11
 545 114 545 114 535 130 c 128,-1,12
 525 146 525 146 508 172 c 2,13,-1
 394 342 l 1,14,-1
 308 234 l 2,15,16
 277 195 277 195 256 167 c 128,-1,17
 235 139 235 139 222.5 119 c 128,-1,18
 210 99 210 99 204.5 86 c 128,-1,19
 199 73 199 73 199 64 c 0,20,21
 199 49 199 49 216 43.5 c 128,-1,22
 233 38 233 38 280 38 c 1,23,-1
 280 0 l 1,24,-1
 2 0 l 1,25,-1
 2 38 l 1,26,27
 26 38 26 38 45.5 43 c 128,-1,28
 65 48 65 48 84 59.5 c 128,-1,29
 103 71 103 71 122.5 90.5 c 128,-1,30
 142 110 142 110 165 139 c 2,31,-1
 361 389 l 1,32,-1
 158 666 l 2,33,34
 133 701 133 701 102 716.5 c 128,-1,35
 71 732 71 732 28 732 c 1,36,-1
 28 770 l 1,37,-1
 360 770 l 1,38,-1
 360 732 l 1,39,40
 295 732 295 732 295 693 c 0,41,42
 295 668 295 668 323 627 c 2,43,-1
 432 465 l 1,44,-1
 530 589 l 2,45,46
 558 624 558 624 569 646 c 128,-1,47
 580 668 580 668 580 688 c 0,48,49
 580 713 580 713 563.5 722.5 c 128,-1,50
 547 732 547 732 505 732 c 1,51,-1
 505 770 l 1,52,-1
 780 770 l 1,53,-1
 780 732 l 1,54,55
 756 732 756 732 738.5 728.5 c 128,-1,56
 721 725 721 725 705 714 c 128,-1,57
 689 703 689 703 670 682 c 128,-1,58
 651 661 651 661 624 626 c 2,59,-1
 465 421 l 1,60,-1
 695 109 l 2,0,1
EndSplineSet
EndChar

StartChar: Y
Encoding: 89 89 60
Width: 733
GlyphClass: 1
Flags: W
LayerCount: 2
Fore
SplineSet
114 646 m 2,0,1
 99 672 99 672 86 688.5 c 128,-1,2
 73 705 73 705 59.5 715 c 128,-1,3
 46 725 46 725 31 728.5 c 128,-1,4
 16 732 16 732 -5 732 c 1,5,-1
 -5 770 l 1,6,-1
 310 770 l 1,7,-1
 310 732 l 1,8,9
 260 732 260 732 239.5 724.5 c 128,-1,10
 219 717 219 717 219 698 c 0,11,12
 219 677 219 677 242 638 c 2,13,-1
 397 373 l 1,14,-1
 401 373 l 1,15,-1
 514 563 l 2,16,17
 546 617 546 617 559.5 648 c 128,-1,18
 573 679 573 679 573 698 c 256,19,20
 573 717 573 717 558.5 724.5 c 128,-1,21
 544 732 544 732 508 732 c 1,22,-1
 508 770 l 1,23,-1
 737 770 l 1,24,-1
 737 732 l 1,25,26
 716 732 716 732 699.5 726 c 128,-1,27
 683 720 683 720 665 702 c 128,-1,28
 647 684 647 684 625.5 652 c 128,-1,29
 604 620 604 620 573 568 c 2,30,-1
 419 308 l 1,31,-1
 419 189 l 2,32,33
 419 140 419 140 422.5 110.5 c 128,-1,34
 426 81 426 81 437.5 65 c 128,-1,35
 449 49 449 49 470.5 43.5 c 128,-1,36
 492 38 492 38 528 38 c 1,37,-1
 528 0 l 1,38,-1
 204 0 l 1,39,-1
 204 38 l 1,40,41
 240 38 240 38 261.5 43.5 c 128,-1,42
 283 49 283 49 294.5 64.5 c 128,-1,43
 306 80 306 80 310 108 c 128,-1,44
 314 136 314 136 314 182 c 2,45,-1
 314 304 l 1,46,-1
 114 646 l 2,0,1
EndSplineSet
EndChar

StartChar: Z
Encoding: 90 90 61
Width: 770
GlyphClass: 1
Flags: W
LayerCount: 2
Fore
SplineSet
710 0 m 1,0,-1
 16 0 l 1,1,-1
 16 4 l 1,2,-1
 542 728 l 1,3,-1
 268 728 l 2,4,5
 197 728 197 728 162 696 c 128,-1,6
 127 664 127 664 113 586 c 1,7,-1
 76 586 l 1,8,-1
 91 770 l 1,9,-1
 700 770 l 1,10,-1
 700 766 l 1,11,-1
 179 46 l 1,12,-1
 489 46 l 2,13,14
 540 46 540 46 573 53.5 c 128,-1,15
 606 61 606 61 626.5 82 c 128,-1,16
 647 103 647 103 658.5 139.5 c 128,-1,17
 670 176 670 176 679 235 c 1,18,-1
 722 235 l 1,19,-1
 710 0 l 1,0,-1
EndSplineSet
EndChar

StartChar: bracketleft
Encoding: 91 91 62
Width: 371
GlyphClass: 1
Flags: W
LayerCount: 2
Fore
SplineSet
197 773 m 1,0,-1
 197 -103 l 1,1,-1
 348 -103 l 1,2,-1
 348 -150 l 1,3,-1
 107 -150 l 1,4,-1
 107 820 l 1,5,-1
 348 820 l 1,6,-1
 348 773 l 1,7,-1
 197 773 l 1,0,-1
EndSplineSet
EndChar

StartChar: backslash
Encoding: 92 92 63
Width: 460
GlyphClass: 1
Flags: W
LayerCount: 2
Fore
SplineSet
29 770 m 1,0,-1
 78 770 l 1,1,-1
 431 0 l 1,2,-1
 373 0 l 1,3,-1
 29 770 l 1,0,-1
EndSplineSet
EndChar

StartChar: bracketright
Encoding: 93 93 64
Width: 371
GlyphClass: 1
Flags: W
LayerCount: 2
Fore
SplineSet
174 -103 m 1,0,-1
 174 773 l 1,1,-1
 23 773 l 1,2,-1
 23 820 l 1,3,-1
 264 820 l 1,4,-1
 264 -150 l 1,5,-1
 23 -150 l 1,6,-1
 23 -103 l 1,7,-1
 174 -103 l 1,0,-1
EndSplineSet
EndChar

StartChar: asciicircum
Encoding: 94 94 65
Width: 480
GlyphClass: 1
Flags: W
LayerCount: 2
Fore
SplineSet
285 409 m 1,0,-1
 404 230 l 1,1,-1
 359 230 l 1,2,-1
 240 348 l 1,3,-1
 121 230 l 1,4,-1
 76 230 l 1,5,-1
 195 409 l 1,6,-1
 285 409 l 1,0,-1
EndSplineSet
EndChar

StartChar: underscore
Encoding: 95 95 66
Width: 722
GlyphClass: 1
Flags: W
LayerCount: 2
Fore
SplineSet
76 -143 m 1,0,-1
 76 -75 l 1,1,-1
 646 -75 l 1,2,-1
 646 -143 l 1,3,-1
 76 -143 l 1,0,-1
EndSplineSet
EndChar

StartChar: grave
Encoding: 96 96 67
Width: 275
GlyphClass: 1
Flags: W
LayerCount: 2
Fore
SplineSet
208 651 m 1,0,-1
 71 716 l 2,1,2
 47 727 47 727 33.5 739.5 c 128,-1,3
 20 752 20 752 20 768 c 0,4,5
 20 785 20 785 30.5 794 c 128,-1,6
 41 803 41 803 58 803 c 0,7,8
 89 803 89 803 125 770 c 2,9,-1
 255 651 l 1,10,-1
 208 651 l 1,0,-1
EndSplineSet
EndChar

StartChar: a
Encoding: 97 97 68
Width: 554
GlyphClass: 1
Flags: W
LayerCount: 2
Fore
SplineSet
349 296 m 1,0,1
 292 274 292 274 252.5 253 c 128,-1,2
 213 232 213 232 189 211 c 128,-1,3
 165 190 165 190 154.5 169 c 128,-1,4
 144 148 144 148 144 126 c 0,5,6
 144 93 144 93 166 72 c 128,-1,7
 188 51 188 51 224 51 c 0,8,9
 250 51 250 51 272.5 64 c 128,-1,10
 295 77 295 77 312 99.5 c 128,-1,11
 329 122 329 122 339 152.5 c 128,-1,12
 349 183 349 183 349 217 c 2,13,-1
 349 296 l 1,0,1
349 339 m 1,14,-1
 349 380 l 2,15,16
 349 502 349 502 245 502 c 0,17,18
 228 502 228 502 216 499 c 128,-1,19
 204 496 204 496 196 489 c 128,-1,20
 188 482 188 482 181.5 469 c 128,-1,21
 175 456 175 456 169 437 c 0,22,23
 158 408 158 408 147.5 398.5 c 128,-1,24
 137 389 137 389 117 389 c 0,25,26
 67 389 67 389 67 439 c 0,27,28
 67 487 67 487 118 513.5 c 128,-1,29
 169 540 169 540 263 540 c 0,30,31
 363 540 363 540 405 504.5 c 128,-1,32
 447 469 447 469 447 384 c 2,33,-1
 447 160 l 2,34,35
 447 46 447 46 492 46 c 0,36,37
 506 46 506 46 519 49.5 c 128,-1,38
 532 53 532 53 541 68 c 1,39,-1
 555 44 l 1,40,41
 543 21 543 21 511 5.5 c 128,-1,42
 479 -10 479 -10 444 -10 c 0,43,44
 400 -10 400 -10 378.5 18 c 128,-1,45
 357 46 357 46 357 97 c 1,46,-1
 352 97 l 1,47,48
 326 48 326 48 280 19.5 c 128,-1,49
 234 -9 234 -9 178 -9 c 0,50,51
 115 -9 115 -9 79 23 c 128,-1,52
 43 55 43 55 43 109 c 0,53,54
 43 133 43 133 51.5 155 c 128,-1,55
 60 177 60 177 79 197 c 128,-1,56
 98 217 98 217 129 236.5 c 128,-1,57
 160 256 160 256 205 276 c 2,58,-1
 349 339 l 1,14,-1
EndSplineSet
Substitution2: "Single Substitution lookup 6 subtable" ordfeminine
EndChar

StartChar: b
Encoding: 98 98 69
Width: 654
GlyphClass: 1
Flags: W
LayerCount: 2
Fore
SplineSet
189 209 m 2,0,1
 189 171 189 171 200 139.5 c 128,-1,2
 211 108 211 108 230.5 85.5 c 128,-1,3
 250 63 250 63 277.5 50 c 128,-1,4
 305 37 305 37 337 37 c 0,5,6
 372 37 372 37 400.5 53 c 128,-1,7
 429 69 429 69 449.5 98.5 c 128,-1,8
 470 128 470 128 481.5 169.5 c 128,-1,9
 493 211 493 211 493 262 c 256,10,11
 493 313 493 313 481 355.5 c 128,-1,12
 469 398 469 398 448 428.5 c 128,-1,13
 427 459 427 459 397.5 476 c 128,-1,14
 368 493 368 493 333 493 c 0,15,16
 292 493 292 493 260 473.5 c 128,-1,17
 228 454 228 454 211 419 c 0,18,19
 189 375 189 375 189 298 c 2,20,-1
 189 209 l 2,0,1
187 459 m 1,21,-1
 191 459 l 1,22,23
 223 501 223 501 261.5 520.5 c 128,-1,24
 300 540 300 540 351 540 c 0,25,26
 405 540 405 540 451.5 519 c 128,-1,27
 498 498 498 498 532.5 461 c 128,-1,28
 567 424 567 424 586.5 373.5 c 128,-1,29
 606 323 606 323 606 265 c 0,30,31
 606 206 606 206 586 155.5 c 128,-1,32
 566 105 566 105 531.5 68 c 128,-1,33
 497 31 497 31 450 10 c 128,-1,34
 403 -11 403 -11 348 -11 c 0,35,36
 291 -11 291 -11 241.5 10 c 128,-1,37
 192 31 192 31 160 67 c 1,38,-1
 113 0 l 1,39,-1
 91 0 l 1,40,-1
 91 604 l 2,41,42
 91 705 91 705 78 733 c 0,43,44
 75 740 75 740 71 744.5 c 128,-1,45
 67 749 67 749 59 752.5 c 128,-1,46
 51 756 51 756 37 759 c 128,-1,47
 23 762 23 762 -1 765 c 1,48,-1
 -1 790 l 1,49,-1
 187 830 l 1,50,-1
 187 459 l 1,21,-1
EndSplineSet
EndChar

StartChar: c
Encoding: 99 99 70
Width: 536
GlyphClass: 1
Flags: W
LayerCount: 2
Fore
SplineSet
506 83 m 1,0,1
 470 39 470 39 413 14.5 c 128,-1,2
 356 -10 356 -10 290 -10 c 0,3,4
 237 -10 237 -10 192.5 9.5 c 128,-1,5
 148 29 148 29 116 64.5 c 128,-1,6
 84 100 84 100 66.5 150 c 128,-1,7
 49 200 49 200 49 261 c 0,8,9
 49 325 49 325 69 376.5 c 128,-1,10
 89 428 89 428 125.5 464.5 c 128,-1,11
 162 501 162 501 213.5 520.5 c 128,-1,12
 265 540 265 540 327 540 c 0,13,14
 366 540 366 540 398 533.5 c 128,-1,15
 430 527 430 527 453.5 515.5 c 128,-1,16
 477 504 477 504 490 487.5 c 128,-1,17
 503 471 503 471 503 452 c 0,18,19
 503 432 503 432 490 421 c 128,-1,20
 477 410 477 410 454 410 c 0,21,22
 436 410 436 410 424 417.5 c 128,-1,23
 412 425 412 425 393 451 c 0,24,25
 373 474 373 474 354.5 483.5 c 128,-1,26
 336 493 336 493 307 493 c 0,27,28
 236 493 236 493 199.5 438 c 128,-1,29
 163 383 163 383 163 276 c 0,30,31
 163 161 163 161 203.5 101.5 c 128,-1,32
 244 42 244 42 322 42 c 0,33,34
 364 42 364 42 401 58.5 c 128,-1,35
 438 75 438 75 476 112 c 1,36,-1
 506 83 l 1,0,1
EndSplineSet
EndChar

StartChar: d
Encoding: 100 100 71
Width: 675
GlyphClass: 1
Flags: W
LayerCount: 2
Fore
SplineSet
484 84 m 1,0,-1
 480 84 l 1,1,2
 444 33 444 33 403.5 11.5 c 128,-1,3
 363 -10 363 -10 308 -10 c 0,4,5
 251 -10 251 -10 203.5 10.5 c 128,-1,6
 156 31 156 31 121.5 67.5 c 128,-1,7
 87 104 87 104 67.5 155 c 128,-1,8
 48 206 48 206 48 266 c 0,9,10
 48 325 48 325 67.5 375.5 c 128,-1,11
 87 426 87 426 121.5 462.5 c 128,-1,12
 156 499 156 499 204 519.5 c 128,-1,13
 252 540 252 540 308 540 c 0,14,15
 356 540 356 540 393.5 524 c 128,-1,16
 431 508 431 508 466 473 c 1,17,-1
 466 575 l 2,18,19
 466 632 466 632 464.5 670 c 128,-1,20
 463 708 463 708 460 722 c 0,21,22
 455 744 455 744 432 753 c 128,-1,23
 409 762 409 762 357 762 c 1,24,-1
 357 792 l 1,25,-1
 562 830 l 1,26,-1
 562 253 l 2,27,28
 562 184 562 184 563 139.5 c 128,-1,29
 564 95 564 95 569 76 c 0,30,31
 572 64 572 64 576.5 56 c 128,-1,32
 581 48 581 48 589.5 43.5 c 128,-1,33
 598 39 598 39 612.5 37 c 128,-1,34
 627 35 627 35 650 35 c 1,35,-1
 650 1 l 1,36,-1
 484 -10 l 1,37,-1
 484 84 l 1,0,-1
464 305 m 2,38,39
 464 357 464 357 458.5 384 c 128,-1,40
 453 411 453 411 437 431 c 0,41,42
 414 461 414 461 378.5 476.5 c 128,-1,43
 343 492 343 492 308 492 c 0,44,45
 236 492 236 492 198.5 432.5 c 128,-1,46
 161 373 161 373 161 271 c 0,47,48
 161 218 161 218 170.5 175 c 128,-1,49
 180 132 180 132 198.5 101.5 c 128,-1,50
 217 71 217 71 244.5 54.5 c 128,-1,51
 272 38 272 38 308 38 c 0,52,53
 326 38 326 38 344.5 42 c 128,-1,54
 363 46 363 46 380.5 54.5 c 128,-1,55
 398 63 398 63 413 74.5 c 128,-1,56
 428 86 428 86 438 101 c 0,57,58
 452 123 452 123 458 154 c 128,-1,59
 464 185 464 185 464 239 c 2,60,-1
 464 305 l 2,38,39
EndSplineSet
EndChar

StartChar: e
Encoding: 101 101 72
Width: 573
GlyphClass: 1
Flags: W
LayerCount: 2
Fore
SplineSet
522 93 m 1,0,1
 437 -10 437 -10 311 -10 c 0,2,3
 252 -10 252 -10 204 9.5 c 128,-1,4
 156 29 156 29 121.5 64.5 c 128,-1,5
 87 100 87 100 68 149.5 c 128,-1,6
 49 199 49 199 49 259 c 0,7,8
 49 320 49 320 69 372 c 128,-1,9
 89 424 89 424 125.5 461 c 128,-1,10
 162 498 162 498 212.5 519 c 128,-1,11
 263 540 263 540 323 540 c 0,12,13
 420 540 420 540 473 487.5 c 128,-1,14
 526 435 526 435 526 337 c 0,15,16
 526 323 526 323 520.5 320 c 128,-1,17
 515 317 515 317 495 317 c 2,18,-1
 166 317 l 1,19,20
 164 309 164 309 163 297.5 c 128,-1,21
 162 286 162 286 162 272 c 0,22,23
 162 220 162 220 174.5 177.5 c 128,-1,24
 187 135 187 135 210.5 105 c 128,-1,25
 234 75 234 75 266.5 58.5 c 128,-1,26
 299 42 299 42 339 42 c 0,27,28
 381 42 381 42 417 60.5 c 128,-1,29
 453 79 453 79 491 121 c 1,30,-1
 522 93 l 1,0,1
357 363 m 2,31,32
 377 363 377 363 389 364 c 128,-1,33
 401 365 401 365 407 368 c 128,-1,34
 413 371 413 371 415 376.5 c 128,-1,35
 417 382 417 382 417 391 c 0,36,37
 417 437 417 437 387.5 464.5 c 128,-1,38
 358 492 358 492 307 492 c 0,39,40
 199 492 199 492 173 363 c 1,41,-1
 357 363 l 2,31,32
EndSplineSet
EndChar

StartChar: f
Encoding: 102 102 73
Width: 412
GlyphClass: 1
Flags: W
LayerCount: 2
Fore
SplineSet
22 514 m 1,0,-1
 135 514 l 1,1,-1
 135 586 l 2,2,3
 135 701 135 701 195.5 765.5 c 128,-1,4
 256 830 256 830 368 830 c 0,5,6
 430 830 430 830 469 811 c 128,-1,7
 508 792 508 792 508 762 c 0,8,9
 508 742 508 742 495.5 728.5 c 128,-1,10
 483 715 483 715 464 715 c 0,11,12
 452 715 452 715 438.5 722.5 c 128,-1,13
 425 730 425 730 403 748 c 0,14,15
 378 769 378 769 364 775.5 c 128,-1,16
 350 782 350 782 331 782 c 0,17,18
 271 782 271 782 245 721 c 0,19,20
 236 701 236 701 232.5 672 c 128,-1,21
 229 643 229 643 229 592 c 2,22,-1
 229 514 l 1,23,-1
 390 514 l 1,24,-1
 390 467 l 1,25,-1
 229 467 l 1,26,-1
 229 161 l 2,27,28
 229 124 229 124 233.5 100 c 128,-1,29
 238 76 238 76 249.5 61.5 c 128,-1,30
 261 47 261 47 281 41.5 c 128,-1,31
 301 36 301 36 333 35 c 1,32,-1
 333 0 l 1,33,-1
 49 0 l 1,34,-1
 49 35 l 1,35,36
 77 36 77 36 94 40.5 c 128,-1,37
 111 45 111 45 120 57.5 c 128,-1,38
 129 70 129 70 132 92.5 c 128,-1,39
 135 115 135 115 135 153 c 2,40,-1
 135 467 l 1,41,-1
 22 467 l 1,42,-1
 22 514 l 1,0,-1
EndSplineSet
EndChar

StartChar: g
Encoding: 103 103 74
Width: 599
GlyphClass: 1
Flags: W
LayerCount: 2
Fore
SplineSet
274 215 m 0,0,1
 316 215 316 215 339.5 253 c 128,-1,2
 363 291 363 291 363 360 c 0,3,4
 363 428 363 428 339.5 465.5 c 128,-1,5
 316 503 316 503 273 503 c 256,6,7
 230 503 230 503 204.5 465 c 128,-1,8
 179 427 179 427 179 361 c 256,9,10
 179 295 179 295 205 255 c 128,-1,11
 231 215 231 215 274 215 c 0,0,1
219 98 m 0,12,13
 243 96 243 96 263 94 c 128,-1,14
 283 92 283 92 302.5 90 c 128,-1,15
 322 88 322 88 341.5 85 c 128,-1,16
 361 82 361 82 384 79 c 0,17,18
 456 68 456 68 499.5 23.5 c 128,-1,19
 543 -21 543 -21 543 -88 c 0,20,21
 543 -172 543 -172 476.5 -216 c 128,-1,22
 410 -260 410 -260 284 -260 c 0,23,24
 228 -260 228 -260 181.5 -250 c 128,-1,25
 135 -240 135 -240 102 -221.5 c 128,-1,26
 69 -203 69 -203 50.5 -177 c 128,-1,27
 32 -151 32 -151 32 -120 c 0,28,29
 32 -99 32 -99 39 -81 c 128,-1,30
 46 -63 46 -63 58 -49.5 c 128,-1,31
 70 -36 70 -36 86.5 -28 c 128,-1,32
 103 -20 103 -20 121 -20 c 0,33,34
 155 -20 155 -20 182 -41 c 1,35,36
 155 -47 155 -47 138 -70.5 c 128,-1,37
 121 -94 121 -94 121 -124 c 0,38,39
 121 -168 121 -168 164.5 -192 c 128,-1,40
 208 -216 208 -216 288 -216 c 0,41,42
 459 -216 459 -216 459 -111 c 0,43,44
 459 -71 459 -71 432 -44.5 c 128,-1,45
 405 -18 405 -18 368 -13 c 0,46,47
 344 -10 344 -10 318.5 -6.5 c 128,-1,48
 293 -3 293 -3 268.5 0 c 128,-1,49
 244 3 244 3 223 5 c 128,-1,50
 202 7 202 7 189 9 c 0,51,52
 133 15 133 15 104 39 c 128,-1,53
 75 63 75 63 75 105 c 0,54,55
 75 140 75 140 104 167 c 128,-1,56
 133 194 133 194 177 201 c 1,57,-1
 177 205 l 1,58,59
 155 214 155 214 136 230.5 c 128,-1,60
 117 247 117 247 103.5 268 c 128,-1,61
 90 289 90 289 82 313.5 c 128,-1,62
 74 338 74 338 74 364 c 0,63,64
 74 402 74 402 88.5 434 c 128,-1,65
 103 466 103 466 129.5 489.5 c 128,-1,66
 156 513 156 513 192 526.5 c 128,-1,67
 228 540 228 540 271 540 c 0,68,69
 315 540 315 540 354 526.5 c 128,-1,70
 393 513 393 513 421 487 c 1,71,72
 455 515 455 515 481 527.5 c 128,-1,73
 507 540 507 540 530 540 c 0,74,75
 566 540 566 540 587.5 523.5 c 128,-1,76
 609 507 609 507 609 479 c 0,77,78
 609 462 609 462 597.5 452 c 128,-1,79
 586 442 586 442 569 442 c 0,80,81
 555 442 555 442 546 447 c 128,-1,82
 537 452 537 452 529.5 457.5 c 128,-1,83
 522 463 522 463 514 468 c 128,-1,84
 506 473 506 473 494 473 c 0,85,86
 470 473 470 473 445 456 c 1,87,88
 469 419 469 419 469 363 c 0,89,90
 469 278 469 278 416 229.5 c 128,-1,91
 363 181 363 181 257 173 c 0,92,93
 196 168 196 168 172 160 c 128,-1,94
 148 152 148 152 148 131 c 0,95,96
 148 115 148 115 166 107.5 c 128,-1,97
 184 100 184 100 219 98 c 0,12,13
EndSplineSet
EndChar

StartChar: h
Encoding: 104 104 75
Width: 688
GlyphClass: 1
Flags: W
LayerCount: 2
Fore
SplineSet
208 159 m 2,0,1
 208 118 208 118 210 94 c 128,-1,2
 212 70 212 70 220.5 57.5 c 128,-1,3
 229 45 229 45 245 41 c 128,-1,4
 261 37 261 37 290 35 c 1,5,-1
 290 0 l 1,6,-1
 24 0 l 1,7,-1
 24 35 l 1,8,9
 53 37 53 37 70 41 c 128,-1,10
 87 45 87 45 96 57 c 128,-1,11
 105 69 105 69 107.5 91.5 c 128,-1,12
 110 114 110 114 110 152 c 2,13,-1
 110 571 l 2,14,15
 110 630 110 630 108.5 665 c 128,-1,16
 107 700 107 700 103 718 c 0,17,18
 101 730 101 730 96.5 737.5 c 128,-1,19
 92 745 92 745 83 749.5 c 128,-1,20
 74 754 74 754 59 756 c 128,-1,21
 44 758 44 758 22 758 c 1,22,-1
 22 792 l 1,23,-1
 206 830 l 1,24,-1
 206 449 l 1,25,-1
 210 449 l 1,26,27
 225 469 225 469 247.5 485.5 c 128,-1,28
 270 502 270 502 296 514 c 128,-1,29
 322 526 322 526 350.5 533 c 128,-1,30
 379 540 379 540 406 540 c 0,31,32
 452 540 452 540 490.5 524 c 128,-1,33
 529 508 529 508 550 481 c 0,34,35
 567 458 567 458 575 420.5 c 128,-1,36
 583 383 583 383 583 319 c 2,37,-1
 583 159 l 2,38,39
 583 118 583 118 585 94.5 c 128,-1,40
 587 71 587 71 595.5 58 c 128,-1,41
 604 45 604 45 620 41 c 128,-1,42
 636 37 636 37 665 35 c 1,43,-1
 665 0 l 1,44,-1
 400 0 l 1,45,-1
 400 35 l 1,46,47
 428 36 428 36 445 40.5 c 128,-1,48
 462 45 462 45 470.5 57 c 128,-1,49
 479 69 479 69 481.5 91.5 c 128,-1,50
 484 114 484 114 484 152 c 2,51,-1
 484 278 l 2,52,53
 484 390 484 390 458 437.5 c 128,-1,54
 432 485 432 485 371 485 c 0,55,56
 324 485 324 485 285.5 461 c 128,-1,57
 247 437 247 437 225 395 c 0,58,59
 220 384 220 384 216.5 374.5 c 128,-1,60
 213 365 213 365 211 353 c 128,-1,61
 209 341 209 341 208.5 325.5 c 128,-1,62
 208 310 208 310 208 287 c 2,63,-1
 208 159 l 2,0,1
EndSplineSet
EndChar

StartChar: i
Encoding: 105 105 76
Width: 341
GlyphClass: 1
Flags: W
LayerCount: 2
Fore
SplineSet
228 159 m 2,0,1
 228 120 228 120 231.5 96.5 c 128,-1,2
 235 73 235 73 245 59.5 c 128,-1,3
 255 46 255 46 273 41 c 128,-1,4
 291 36 291 36 321 35 c 1,5,-1
 321 0 l 1,6,-1
 34 0 l 1,7,-1
 34 35 l 1,8,9
 64 36 64 36 83 41.5 c 128,-1,10
 102 47 102 47 112.5 59.5 c 128,-1,11
 123 72 123 72 126.5 94.5 c 128,-1,12
 130 117 130 117 130 152 c 2,13,-1
 130 280 l 2,14,15
 130 338 130 338 128.5 375.5 c 128,-1,16
 127 413 127 413 123 427 c 0,17,18
 118 450 118 450 100 458.5 c 128,-1,19
 82 467 82 467 32 467 c 1,20,-1
 32 502 l 1,21,-1
 228 540 l 1,22,-1
 228 159 l 2,0,1
113 743 m 256,23,24
 113 769 113 769 131 787 c 128,-1,25
 149 805 149 805 175 805 c 256,26,27
 201 805 201 805 219 787 c 128,-1,28
 237 769 237 769 237 743 c 256,29,30
 237 717 237 717 219 699 c 128,-1,31
 201 681 201 681 175 681 c 256,32,33
 149 681 149 681 131 699 c 128,-1,34
 113 717 113 717 113 743 c 256,23,24
EndSplineSet
EndChar

StartChar: j
Encoding: 106 106 77
Width: 304
GlyphClass: 1
Flags: W
LayerCount: 2
Fore
SplineSet
213 -2 m 2,0,1
 213 -127 213 -127 160.5 -193.5 c 128,-1,2
 108 -260 108 -260 8 -260 c 0,3,4
 -56 -260 -56 -260 -96.5 -234.5 c 128,-1,5
 -137 -209 -137 -209 -137 -167 c 0,6,7
 -137 -144 -137 -144 -123.5 -132 c 128,-1,8
 -110 -120 -110 -120 -86 -120 c 0,9,10
 -68 -120 -68 -120 -58.5 -128.5 c 128,-1,11
 -49 -137 -49 -137 -34 -167 c 0,12,13
 -20 -197 -20 -197 -8 -207 c 128,-1,14
 4 -217 4 -217 29 -217 c 0,15,16
 77 -217 77 -217 96 -184 c 128,-1,17
 115 -151 115 -151 115 -68 c 2,18,-1
 115 280 l 2,19,20
 115 338 115 338 113.5 375.5 c 128,-1,21
 112 413 112 413 108 427 c 0,22,23
 103 450 103 450 85 458.5 c 128,-1,24
 67 467 67 467 17 467 c 1,25,-1
 17 502 l 1,26,-1
 213 540 l 1,27,-1
 213 -2 l 2,0,1
100 743 m 256,28,29
 100 769 100 769 118 787 c 128,-1,30
 136 805 136 805 162 805 c 256,31,32
 188 805 188 805 206 787 c 128,-1,33
 224 769 224 769 224 743 c 256,34,35
 224 717 224 717 206 699 c 128,-1,36
 188 681 188 681 162 681 c 256,37,38
 136 681 136 681 118 699 c 128,-1,39
 100 717 100 717 100 743 c 256,28,29
EndSplineSet
EndChar

StartChar: k
Encoding: 107 107 78
Width: 616
GlyphClass: 1
Flags: W
LayerCount: 2
Fore
SplineSet
348 35 m 1,0,1
 381 35 381 35 393.5 38 c 128,-1,2
 406 41 406 41 406 46 c 0,3,4
 405 54 405 54 390 75 c 128,-1,5
 375 96 375 96 351 125 c 2,6,-1
 245 253 l 1,7,-1
 208 218 l 1,8,-1
 208 159 l 2,9,10
 208 120 208 120 211.5 96.5 c 128,-1,11
 215 73 215 73 224.5 59.5 c 128,-1,12
 234 46 234 46 252.5 41 c 128,-1,13
 271 36 271 36 301 35 c 1,14,-1
 301 0 l 1,15,-1
 17 0 l 1,16,-1
 17 35 l 1,17,18
 47 36 47 36 65.5 41 c 128,-1,19
 84 46 84 46 94.5 59 c 128,-1,20
 105 72 105 72 109 94 c 128,-1,21
 113 116 113 116 113 152 c 2,22,-1
 113 571 l 2,23,24
 113 647 113 647 111.5 686 c 128,-1,25
 110 725 110 725 101 739 c 256,26,27
 92 753 92 753 71 755.5 c 128,-1,28
 50 758 50 758 15 758 c 1,29,-1
 15 792 l 1,30,-1
 208 830 l 1,31,-1
 208 281 l 1,32,-1
 301 372 l 2,33,34
 346 417 346 417 368 438.5 c 128,-1,35
 390 460 390 460 390 471 c 256,36,37
 390 482 390 482 369 488.5 c 128,-1,38
 348 495 348 495 309 495 c 1,39,-1
 309 530 l 1,40,-1
 569 530 l 1,41,-1
 569 495 l 1,42,43
 550 495 550 495 536 493 c 128,-1,44
 522 491 522 491 509.5 485 c 128,-1,45
 497 479 497 479 483 468.5 c 128,-1,46
 469 458 469 458 451 442 c 2,47,-1
 307 314 l 1,48,-1
 505 90 l 2,49,50
 519 73 519 73 530.5 62.5 c 128,-1,51
 542 52 542 52 553.5 46 c 128,-1,52
 565 40 565 40 578.5 37.5 c 128,-1,53
 592 35 592 35 611 35 c 1,54,-1
 611 0 l 1,55,-1
 348 0 l 1,56,-1
 348 35 l 1,0,1
EndSplineSet
EndChar

StartChar: l
Encoding: 108 108 79
Width: 325
GlyphClass: 1
Flags: W
LayerCount: 2
Fore
SplineSet
209 156 m 2,0,1
 209 118 209 118 212 95 c 128,-1,2
 215 72 215 72 224.5 59 c 128,-1,3
 234 46 234 46 251.5 41 c 128,-1,4
 269 36 269 36 298 35 c 1,5,-1
 298 0 l 1,6,-1
 22 0 l 1,7,-1
 22 35 l 1,8,9
 52 36 52 36 70 41.5 c 128,-1,10
 88 47 88 47 98.5 59 c 128,-1,11
 109 71 109 71 112.5 92.5 c 128,-1,12
 116 114 116 114 116 149 c 2,13,-1
 116 580 l 2,14,15
 116 634 116 634 114.5 670.5 c 128,-1,16
 113 707 113 707 110 720 c 0,17,18
 105 743 105 743 86.5 751 c 128,-1,19
 68 759 68 759 20 759 c 1,20,-1
 20 793 l 1,21,-1
 209 830 l 1,22,-1
 209 156 l 2,0,1
EndSplineSet
EndChar

StartChar: m
Encoding: 109 109 80
Width: 1073
GlyphClass: 1
Flags: W
LayerCount: 2
Fore
SplineSet
221 160 m 2,0,1
 221 118 221 118 223 94 c 128,-1,2
 225 70 225 70 233.5 57.5 c 128,-1,3
 242 45 242 45 258 41 c 128,-1,4
 274 37 274 37 303 35 c 1,5,-1
 303 0 l 1,6,-1
 37 0 l 1,7,-1
 37 35 l 1,8,9
 66 37 66 37 83 41 c 128,-1,10
 100 45 100 45 109 57 c 128,-1,11
 118 69 118 69 120.5 91.5 c 128,-1,12
 123 114 123 114 123 152 c 2,13,-1
 123 280 l 2,14,15
 123 337 123 337 121.5 375 c 128,-1,16
 120 413 120 413 116 427 c 0,17,18
 113 440 113 440 109 447.5 c 128,-1,19
 105 455 105 455 96 459.5 c 128,-1,20
 87 464 87 464 72.5 465.5 c 128,-1,21
 58 467 58 467 35 467 c 1,22,-1
 35 502 l 1,23,-1
 198 540 l 1,24,-1
 211 440 l 1,25,-1
 216 440 l 1,26,27
 261 491 261 491 310.5 515.5 c 128,-1,28
 360 540 360 540 420 540 c 0,29,30
 483 540 483 540 526 514.5 c 128,-1,31
 569 489 569 489 586 441 c 1,32,-1
 590 441 l 1,33,34
 627 488 627 488 680 514 c 128,-1,35
 733 540 733 540 793 540 c 0,36,37
 840 540 840 540 878.5 524.5 c 128,-1,38
 917 509 917 509 937 482 c 0,39,40
 955 459 955 459 962.5 421.5 c 128,-1,41
 970 384 970 384 970 319 c 2,42,-1
 970 160 l 2,43,44
 970 119 970 119 972.5 95 c 128,-1,45
 975 71 975 71 983 58 c 128,-1,46
 991 45 991 45 1007.5 41 c 128,-1,47
 1024 37 1024 37 1053 35 c 1,48,-1
 1053 0 l 1,49,-1
 787 0 l 1,50,-1
 787 35 l 1,51,52
 815 36 815 36 832 40.5 c 128,-1,53
 849 45 849 45 858 57.5 c 128,-1,54
 867 70 867 70 869.5 92 c 128,-1,55
 872 114 872 114 872 152 c 2,56,-1
 872 278 l 2,57,58
 872 335 872 335 866 374.5 c 128,-1,59
 860 414 860 414 846 438.5 c 128,-1,60
 832 463 832 463 809.5 474 c 128,-1,61
 787 485 787 485 755 485 c 0,62,63
 711 485 711 485 672.5 460.5 c 128,-1,64
 634 436 634 436 612 395 c 0,65,66
 607 385 607 385 603.5 375.5 c 128,-1,67
 600 366 600 366 598 354.5 c 128,-1,68
 596 343 596 343 595.5 327 c 128,-1,69
 595 311 595 311 595 287 c 2,70,-1
 595 160 l 2,71,72
 595 119 595 119 597 95 c 128,-1,73
 599 71 599 71 607.5 58 c 128,-1,74
 616 45 616 45 633 41 c 128,-1,75
 650 37 650 37 679 35 c 1,76,-1
 679 0 l 1,77,-1
 413 0 l 1,78,-1
 413 35 l 1,79,80
 441 37 441 37 458 41 c 128,-1,81
 475 45 475 45 483.5 57 c 128,-1,82
 492 69 492 69 494.5 91.5 c 128,-1,83
 497 114 497 114 497 152 c 2,84,-1
 497 278 l 2,85,86
 497 336 497 336 491 375.5 c 128,-1,87
 485 415 485 415 471.5 439.5 c 128,-1,88
 458 464 458 464 436 474.5 c 128,-1,89
 414 485 414 485 382 485 c 0,90,91
 337 485 337 485 297.5 460.5 c 128,-1,92
 258 436 258 436 238 395 c 0,93,94
 233 385 233 385 229.5 375.5 c 128,-1,95
 226 366 226 366 224 354.5 c 128,-1,96
 222 343 222 343 221.5 327 c 128,-1,97
 221 311 221 311 221 287 c 2,98,-1
 221 160 l 2,0,1
EndSplineSet
EndChar

StartChar: n
Encoding: 110 110 81
Width: 689
GlyphClass: 1
Flags: W
LayerCount: 2
Fore
SplineSet
216 157 m 2,0,1
 216 116 216 116 218 92.5 c 128,-1,2
 220 69 220 69 228.5 56.5 c 128,-1,3
 237 44 237 44 253.5 40 c 128,-1,4
 270 36 270 36 299 34 c 1,5,-1
 299 0 l 1,6,-1
 37 0 l 1,7,-1
 37 34 l 1,8,9
 65 36 65 36 81.5 40 c 128,-1,10
 98 44 98 44 107 56 c 128,-1,11
 116 68 116 68 118.5 90 c 128,-1,12
 121 112 121 112 121 150 c 2,13,-1
 121 283 l 2,14,15
 121 402 121 402 115 428 c 0,16,17
 112 441 112 441 107.5 449.5 c 128,-1,18
 103 458 103 458 94 462.5 c 128,-1,19
 85 467 85 467 71 468.5 c 128,-1,20
 57 470 57 470 35 470 c 1,21,-1
 35 502 l 1,22,-1
 195 540 l 1,23,-1
 207 441 l 1,24,-1
 211 441 l 1,25,26
 249 488 249 488 300 514 c 128,-1,27
 351 540 351 540 411 540 c 0,28,29
 457 540 457 540 495 525 c 128,-1,30
 533 510 533 510 553 484 c 0,31,32
 570 461 570 461 577 424.5 c 128,-1,33
 584 388 584 388 584 324 c 2,34,-1
 584 157 l 2,35,36
 584 116 584 116 586.5 92.5 c 128,-1,37
 589 69 589 69 597 56.5 c 128,-1,38
 605 44 605 44 621.5 40 c 128,-1,39
 638 36 638 36 665 34 c 1,40,-1
 665 0 l 1,41,-1
 406 0 l 1,42,-1
 406 34 l 1,43,44
 434 35 434 35 450.5 39.5 c 128,-1,45
 467 44 467 44 475.5 56 c 128,-1,46
 484 68 484 68 486.5 90.5 c 128,-1,47
 489 113 489 113 489 150 c 2,48,-1
 489 282 l 2,49,50
 489 339 489 339 483 378 c 128,-1,51
 477 417 477 417 463.5 441 c 128,-1,52
 450 465 450 465 428 475.5 c 128,-1,53
 406 486 406 486 375 486 c 0,54,55
 330 486 330 486 292.5 462.5 c 128,-1,56
 255 439 255 439 234 398 c 0,57,58
 229 388 229 388 225.5 379 c 128,-1,59
 222 370 222 370 220 358 c 128,-1,60
 218 346 218 346 217 330.5 c 128,-1,61
 216 315 216 315 216 291 c 2,62,-1
 216 157 l 2,0,1
EndSplineSet
EndChar

StartChar: o
Encoding: 111 111 82
Width: 654
GlyphClass: 1
Flags: W
LayerCount: 2
Fore
SplineSet
325 540 m 0,0,1
 382 540 382 540 433 519.5 c 128,-1,2
 484 499 484 499 522.5 463 c 128,-1,3
 561 427 561 427 583.5 377.5 c 128,-1,4
 606 328 606 328 606 269 c 0,5,6
 606 208 606 208 583.5 157 c 128,-1,7
 561 106 561 106 522.5 69 c 128,-1,8
 484 32 484 32 433 11 c 128,-1,9
 382 -10 382 -10 325 -10 c 0,10,11
 269 -10 269 -10 218.5 10.5 c 128,-1,12
 168 31 168 31 130 68 c 128,-1,13
 92 105 92 105 70 156.5 c 128,-1,14
 48 208 48 208 48 269 c 0,15,16
 48 328 48 328 70 378 c 128,-1,17
 92 428 92 428 130 464 c 128,-1,18
 168 500 168 500 218.5 520 c 128,-1,19
 269 540 269 540 325 540 c 0,0,1
325 492 m 0,20,21
 288 492 288 492 257.5 476 c 128,-1,22
 227 460 227 460 205.5 430.5 c 128,-1,23
 184 401 184 401 172.5 359.5 c 128,-1,24
 161 318 161 318 161 268 c 0,25,26
 161 216 161 216 172.5 174 c 128,-1,27
 184 132 184 132 205.5 102.5 c 128,-1,28
 227 73 227 73 257 57 c 128,-1,29
 287 41 287 41 325 41 c 256,30,31
 363 41 363 41 394 57 c 128,-1,32
 425 73 425 73 447 103 c 128,-1,33
 469 133 469 133 481 175 c 128,-1,34
 493 217 493 217 493 268 c 0,35,36
 493 318 493 318 481 359 c 128,-1,37
 469 400 469 400 447 429.5 c 128,-1,38
 425 459 425 459 394 475.5 c 128,-1,39
 363 492 363 492 325 492 c 0,20,21
EndSplineSet
Substitution2: "Single Substitution lookup 6 subtable" ordmasculine
EndChar

StartChar: p
Encoding: 112 112 83
Width: 679
GlyphClass: 1
Flags: W
LayerCount: 2
Fore
SplineSet
210 458 m 1,0,-1
 214 458 l 1,1,2
 246 496 246 496 283 518 c 128,-1,3
 320 540 320 540 369 540 c 0,4,5
 426 540 426 540 473.5 519.5 c 128,-1,6
 521 499 521 499 556 462 c 128,-1,7
 591 425 591 425 610.5 374.5 c 128,-1,8
 630 324 630 324 630 264 c 0,9,10
 630 203 630 203 610 152.5 c 128,-1,11
 590 102 590 102 555 66 c 128,-1,12
 520 30 520 30 472 10 c 128,-1,13
 424 -10 424 -10 368 -10 c 0,14,15
 322 -10 322 -10 284.5 5.5 c 128,-1,16
 247 21 247 21 214 56 c 1,17,-1
 214 -90 l 2,18,19
 214 -130 214 -130 218 -154 c 128,-1,20
 222 -178 222 -178 234 -191 c 128,-1,21
 246 -204 246 -204 268.5 -209 c 128,-1,22
 291 -214 291 -214 328 -215 c 1,23,-1
 328 -250 l 1,24,-1
 20 -250 l 1,25,-1
 20 -215 l 1,26,27
 50 -214 50 -214 68.5 -209 c 128,-1,28
 87 -204 87 -204 97.5 -191 c 128,-1,29
 108 -178 108 -178 112 -155.5 c 128,-1,30
 116 -133 116 -133 116 -97 c 2,31,-1
 116 277 l 2,32,33
 116 335 116 335 114.5 372 c 128,-1,34
 113 409 113 409 109 423 c 0,35,36
 104 447 104 447 86 455.5 c 128,-1,37
 68 464 68 464 18 464 c 1,38,-1
 18 498 l 1,39,-1
 210 536 l 1,40,-1
 210 458 l 1,0,-1
240 429 m 0,41,42
 227 409 227 409 220.5 381.5 c 128,-1,43
 214 354 214 354 214 310 c 2,44,-1
 214 232 l 2,45,46
 214 205 214 205 215.5 185.5 c 128,-1,47
 217 166 217 166 220 152 c 128,-1,48
 223 138 223 138 228 127 c 128,-1,49
 233 116 233 116 241 106 c 0,50,51
 264 74 264 74 296 56.5 c 128,-1,52
 328 39 328 39 363 39 c 0,53,54
 432 39 432 39 474.5 97 c 128,-1,55
 517 155 517 155 517 260 c 0,56,57
 517 312 517 312 505.5 354.5 c 128,-1,58
 494 397 494 397 473 427.5 c 128,-1,59
 452 458 452 458 422.5 475 c 128,-1,60
 393 492 393 492 357 492 c 256,61,62
 321 492 321 492 290.5 475.5 c 128,-1,63
 260 459 260 459 240 429 c 0,41,42
EndSplineSet
EndChar

StartChar: q
Encoding: 113 113 84
Width: 653
GlyphClass: 1
Flags: W
LayerCount: 2
Fore
SplineSet
464 320 m 2,0,1
 464 357 464 357 453 388.5 c 128,-1,2
 442 420 442 420 422 442.5 c 128,-1,3
 402 465 402 465 375 478 c 128,-1,4
 348 491 348 491 317 491 c 0,5,6
 281 491 281 491 252.5 475 c 128,-1,7
 224 459 224 459 203.5 429.5 c 128,-1,8
 183 400 183 400 172 358 c 128,-1,9
 161 316 161 316 161 265 c 0,10,11
 161 213 161 213 172 171 c 128,-1,12
 183 129 183 129 203.5 99.5 c 128,-1,13
 224 70 224 70 253 54 c 128,-1,14
 282 38 282 38 318 38 c 0,15,16
 359 38 359 38 392 57 c 128,-1,17
 425 76 425 76 442 111 c 0,18,19
 464 155 464 155 464 232 c 2,20,-1
 464 320 l 2,0,1
467 72 m 1,21,-1
 463 72 l 1,22,23
 428 28 428 28 390.5 9 c 128,-1,24
 353 -10 353 -10 300 -10 c 0,25,26
 244 -10 244 -10 198 9.5 c 128,-1,27
 152 29 152 29 118.5 64.5 c 128,-1,28
 85 100 85 100 66.5 149.5 c 128,-1,29
 48 199 48 199 48 258 c 256,30,31
 48 317 48 317 68 368.5 c 128,-1,32
 88 420 88 420 123 458 c 128,-1,33
 158 496 158 496 205 518 c 128,-1,34
 252 540 252 540 306 540 c 256,35,36
 360 540 360 540 410 518 c 128,-1,37
 460 496 460 496 493 459 c 1,38,-1
 537 528 l 1,39,-1
 562 528 l 1,40,-1
 562 -90 l 2,41,42
 562 -132 562 -132 564.5 -156 c 128,-1,43
 567 -180 567 -180 577.5 -193 c 128,-1,44
 588 -206 588 -206 608.5 -210 c 128,-1,45
 629 -214 629 -214 665 -215 c 1,46,-1
 665 -250 l 1,47,-1
 360 -250 l 1,48,-1
 360 -215 l 1,49,50
 392 -214 392 -214 412.5 -208.5 c 128,-1,51
 433 -203 433 -203 445 -189.5 c 128,-1,52
 457 -176 457 -176 462 -153.5 c 128,-1,53
 467 -131 467 -131 467 -97 c 2,54,-1
 467 72 l 1,21,-1
EndSplineSet
EndChar

StartChar: r
Encoding: 114 114 85
Width: 477
GlyphClass: 1
Flags: W
LayerCount: 2
Fore
SplineSet
222 159 m 2,0,1
 222 118 222 118 224 94 c 128,-1,2
 226 70 226 70 234.5 57.5 c 128,-1,3
 243 45 243 45 259 41 c 128,-1,4
 275 37 275 37 304 35 c 1,5,-1
 304 0 l 1,6,-1
 38 0 l 1,7,-1
 38 35 l 1,8,9
 67 36 67 36 84 40.5 c 128,-1,10
 101 45 101 45 110 57 c 128,-1,11
 119 69 119 69 121.5 91.5 c 128,-1,12
 124 114 124 114 124 152 c 2,13,-1
 124 269 l 2,14,15
 124 337 124 337 122.5 375 c 128,-1,16
 121 413 121 413 112.5 431 c 128,-1,17
 104 449 104 449 86 452.5 c 128,-1,18
 68 456 68 456 36 456 c 1,19,-1
 36 491 l 1,20,-1
 211 529 l 1,21,-1
 225 405 l 1,22,-1
 229 405 l 1,23,24
 242 435 242 435 261.5 460 c 128,-1,25
 281 485 281 485 304 502.5 c 128,-1,26
 327 520 327 520 352 530 c 128,-1,27
 377 540 377 540 403 540 c 0,28,29
 435 540 435 540 453.5 524.5 c 128,-1,30
 472 509 472 509 472 483 c 0,31,32
 472 459 472 459 457 445.5 c 128,-1,33
 442 432 442 432 414 432 c 0,34,35
 398 432 398 432 387 436 c 128,-1,36
 376 440 376 440 367.5 444.5 c 128,-1,37
 359 449 359 449 351.5 453 c 128,-1,38
 344 457 344 457 335 457 c 0,39,40
 308 457 308 457 281 422.5 c 128,-1,41
 254 388 254 388 239 335 c 0,42,43
 231 306 231 306 226.5 269.5 c 128,-1,44
 222 233 222 233 222 193 c 2,45,-1
 222 159 l 2,0,1
EndSplineSet
EndChar

StartChar: s
Encoding: 115 115 86
Width: 454
GlyphClass: 1
Flags: W
LayerCount: 2
Fore
SplineSet
86 0 m 1,0,-1
 64 0 l 1,1,-1
 64 172 l 1,2,-1
 89 172 l 1,3,4
 128 31 128 31 231 31 c 0,5,6
 271 31 271 31 294.5 50.5 c 128,-1,7
 318 70 318 70 318 110 c 0,8,9
 318 125 318 125 313.5 135.5 c 128,-1,10
 309 146 309 146 296.5 157.5 c 128,-1,11
 284 169 284 169 261.5 184 c 128,-1,12
 239 199 239 199 202 222 c 0,13,14
 168 243 168 243 143 261 c 128,-1,15
 118 279 118 279 101 297.5 c 128,-1,16
 84 316 84 316 75.5 337 c 128,-1,17
 67 358 67 358 67 386 c 0,18,19
 67 420 67 420 78.5 448.5 c 128,-1,20
 90 477 90 477 110 497 c 128,-1,21
 130 517 130 517 157 528.5 c 128,-1,22
 184 540 184 540 216 540 c 0,23,24
 243 540 243 540 272 531.5 c 128,-1,25
 301 523 301 523 323 509 c 1,26,-1
 343 530 l 1,27,-1
 362 530 l 1,28,-1
 362 386 l 1,29,-1
 336 386 l 1,30,31
 314 447 314 447 288 473 c 128,-1,32
 262 499 262 499 224 499 c 0,33,34
 190 499 190 499 169.5 481 c 128,-1,35
 149 463 149 463 149 431 c 0,36,37
 149 414 149 414 154.5 401.5 c 128,-1,38
 160 389 160 389 172 377 c 128,-1,39
 184 365 184 365 202.5 352.5 c 128,-1,40
 221 340 221 340 247 324 c 0,41,42
 290 297 290 297 320.5 276 c 128,-1,43
 351 255 351 255 370 234.5 c 128,-1,44
 389 214 389 214 398 192 c 128,-1,45
 407 170 407 170 407 142 c 0,46,47
 407 71 407 71 361 30.5 c 128,-1,48
 315 -10 315 -10 240 -10 c 0,49,50
 162 -10 162 -10 106 35 c 1,51,-1
 86 0 l 1,0,-1
EndSplineSet
EndChar

StartChar: t
Encoding: 116 116 87
Width: 378
GlyphClass: 1
Flags: W
LayerCount: 2
Fore
SplineSet
40 467 m 1,0,-1
 40 504 l 1,1,2
 93 535 93 535 123 566 c 128,-1,3
 153 597 153 597 169 640 c 1,4,-1
 198 640 l 1,5,-1
 198 514 l 1,6,-1
 332 514 l 1,7,-1
 332 467 l 1,8,-1
 198 467 l 1,9,-1
 198 163 l 2,10,11
 198 128 198 128 201.5 104 c 128,-1,12
 205 80 205 80 213 65.5 c 128,-1,13
 221 51 221 51 234 45 c 128,-1,14
 247 39 247 39 267 39 c 0,15,16
 292 39 292 39 309.5 49.5 c 128,-1,17
 327 60 327 60 344 85 c 1,18,-1
 369 66 l 1,19,20
 355 29 355 29 320.5 9.5 c 128,-1,21
 286 -10 286 -10 235 -10 c 0,22,23
 169 -10 169 -10 134.5 21.5 c 128,-1,24
 100 53 100 53 100 112 c 2,25,-1
 100 467 l 1,26,-1
 40 467 l 1,0,-1
EndSplineSet
EndChar

StartChar: u
Encoding: 117 117 88
Width: 670
GlyphClass: 1
Flags: W
LayerCount: 2
Fore
SplineSet
463 370 m 2,0,1
 463 411 463 411 461 434.5 c 128,-1,2
 459 458 459 458 450.5 470.5 c 128,-1,3
 442 483 442 483 425.5 487.5 c 128,-1,4
 409 492 409 492 380 495 c 1,5,-1
 380 530 l 1,6,-1
 561 530 l 1,7,-1
 561 223 l 2,8,9
 561 166 561 166 562.5 130 c 128,-1,10
 564 94 564 94 567 76 c 0,11,12
 569 63 569 63 573.5 55.5 c 128,-1,13
 578 48 578 48 587 43.5 c 128,-1,14
 596 39 596 39 610.5 37.5 c 128,-1,15
 625 36 625 36 648 36 c 1,16,-1
 648 1 l 1,17,-1
 483 -11 l 1,18,-1
 472 109 l 1,19,-1
 468 109 l 1,20,21
 430 47 430 47 380.5 18.5 c 128,-1,22
 331 -10 331 -10 277 -10 c 0,23,24
 235 -10 235 -10 195.5 6 c 128,-1,25
 156 22 156 22 136 49 c 0,26,27
 119 71 119 71 111.5 110 c 128,-1,28
 104 149 104 149 104 211 c 2,29,-1
 104 370 l 2,30,31
 104 411 104 411 102 434.5 c 128,-1,32
 100 458 100 458 91.5 470.5 c 128,-1,33
 83 483 83 483 66.5 487.5 c 128,-1,34
 50 492 50 492 21 495 c 1,35,-1
 21 530 l 1,36,-1
 202 530 l 1,37,-1
 202 257 l 2,38,39
 202 148 202 148 227.5 99 c 128,-1,40
 253 50 253 50 309 50 c 0,41,42
 397 50 397 50 446 165 c 0,43,44
 451 177 451 177 454 187 c 128,-1,45
 457 197 457 197 459 209 c 128,-1,46
 461 221 461 221 462 236 c 128,-1,47
 463 251 463 251 463 272 c 2,48,-1
 463 370 l 2,0,1
EndSplineSet
EndChar

StartChar: v
Encoding: 118 118 89
Width: 610
GlyphClass: 1
Flags: W
LayerCount: 2
Fore
SplineSet
104 406 m 2,0,1
 92 436 92 436 82.5 453.5 c 128,-1,2
 73 471 73 471 62 480 c 128,-1,3
 51 489 51 489 37.5 491.5 c 128,-1,4
 24 494 24 494 5 495 c 1,5,-1
 5 530 l 1,6,-1
 270 530 l 1,7,-1
 270 495 l 1,8,9
 250 494 250 494 237 493 c 128,-1,10
 224 492 224 492 216.5 488.5 c 128,-1,11
 209 485 209 485 206 478.5 c 128,-1,12
 203 472 203 472 203 460 c 0,13,14
 203 443 203 443 207.5 428 c 128,-1,15
 212 413 212 413 217 398 c 2,16,-1
 323 108 l 1,17,-1
 327 108 l 1,18,-1
 418 323 l 2,19,20
 439 373 439 373 448 403 c 128,-1,21
 457 433 457 433 457 456 c 256,22,23
 457 479 457 479 445 487 c 128,-1,24
 433 495 433 495 393 495 c 1,25,-1
 393 530 l 1,26,-1
 592 530 l 1,27,-1
 592 495 l 1,28,29
 576 495 576 495 563 487 c 128,-1,30
 550 479 550 479 540 467 c 0,31,32
 532 456 532 456 523.5 437.5 c 128,-1,33
 515 419 515 419 506.5 399 c 128,-1,34
 498 379 498 379 491 359.5 c 128,-1,35
 484 340 484 340 478 328 c 2,36,-1
 331 -11 l 1,37,-1
 273 -11 l 1,38,-1
 104 406 l 2,0,1
EndSplineSet
EndChar

StartChar: w
Encoding: 119 119 90
Width: 852
GlyphClass: 1
Flags: W
LayerCount: 2
Fore
SplineSet
278 -10 m 1,0,-1
 241 -10 l 1,1,-1
 111 406 l 2,2,3
 102 434 102 434 94 451 c 128,-1,4
 86 468 86 468 75 478 c 128,-1,5
 64 488 64 488 49 491.5 c 128,-1,6
 34 495 34 495 12 495 c 1,7,-1
 12 530 l 1,8,-1
 277 530 l 1,9,-1
 277 495 l 1,10,11
 238 495 238 495 222 486 c 128,-1,12
 206 477 206 477 206 455 c 0,13,14
 206 445 206 445 209 431.5 c 128,-1,15
 212 418 212 418 217 398 c 2,16,-1
 285 159 l 1,17,-1
 289 159 l 1,18,-1
 436 530 l 1,19,-1
 467 530 l 1,20,-1
 600 159 l 1,21,-1
 604 159 l 1,22,-1
 664 321 l 2,23,24
 676 354 676 354 684 376.5 c 128,-1,25
 692 399 692 399 696.5 414.5 c 128,-1,26
 701 430 701 430 703 440 c 128,-1,27
 705 450 705 450 705 459 c 0,28,29
 705 481 705 481 692 488 c 128,-1,30
 679 495 679 495 638 495 c 1,31,-1
 638 530 l 1,32,-1
 838 530 l 1,33,-1
 838 495 l 1,34,35
 823 495 823 495 812.5 490.5 c 128,-1,36
 802 486 802 486 791.5 473 c 128,-1,37
 781 460 781 460 770 436 c 128,-1,38
 759 412 759 412 743 373 c 2,39,-1
 588 -10 l 1,40,-1
 551 -10 l 1,41,-1
 429 359 l 1,42,-1
 425 359 l 1,43,-1
 278 -10 l 1,0,-1
EndSplineSet
EndChar

StartChar: x
Encoding: 120 120 91
Width: 609
GlyphClass: 1
Flags: W
LayerCount: 2
Fore
SplineSet
392 412 m 2,0,1
 416 442 416 442 416 463 c 0,2,3
 416 495 416 495 357 495 c 1,4,-1
 357 530 l 1,5,-1
 576 530 l 1,6,-1
 576 495 l 1,7,8
 558 495 558 495 543.5 491 c 128,-1,9
 529 487 529 487 515 478 c 128,-1,10
 501 469 501 469 486.5 453.5 c 128,-1,11
 472 438 472 438 454 415 c 2,12,-1
 351 284 l 1,13,-1
 484 109 l 2,14,15
 515 68 515 68 541.5 51.5 c 128,-1,16
 568 35 568 35 598 35 c 1,17,-1
 598 0 l 1,18,-1
 332 0 l 1,19,-1
 332 35 l 1,20,21
 368 35 368 35 382 40.5 c 128,-1,22
 396 46 396 46 396 62 c 0,23,24
 396 69 396 69 387.5 82.5 c 128,-1,25
 379 96 379 96 359 122 c 2,26,-1
 289 212 l 1,27,-1
 204 104 l 2,28,29
 189 86 189 86 189 68 c 0,30,31
 189 54 189 54 201 44.5 c 128,-1,32
 213 35 213 35 239 35 c 1,33,-1
 239 0 l 1,34,-1
 10 0 l 1,35,-1
 10 35 l 1,36,37
 33 35 33 35 51 39 c 128,-1,38
 69 43 69 43 85.5 53 c 128,-1,39
 102 63 102 63 119.5 81 c 128,-1,40
 137 99 137 99 159 126 c 2,41,-1
 261 251 l 1,42,-1
 128 440 l 2,43,44
 105 472 105 472 86 483.5 c 128,-1,45
 67 495 67 495 38 495 c 1,46,-1
 38 530 l 1,47,-1
 284 530 l 1,48,-1
 284 495 l 1,49,50
 257 495 257 495 245 488.5 c 128,-1,51
 233 482 233 482 233 471 c 0,52,53
 233 456 233 456 252 429 c 2,54,-1
 324 324 l 1,55,-1
 392 412 l 2,0,1
EndSplineSet
EndChar

StartChar: y
Encoding: 121 121 92
Width: 639
GlyphClass: 1
Flags: W
LayerCount: 2
Fore
SplineSet
281 -157 m 2,0,1
 235 -260 235 -260 138 -260 c 0,2,3
 75 -260 75 -260 75 -213 c 0,4,5
 75 -188 75 -188 92.5 -176.5 c 128,-1,6
 110 -165 110 -165 157 -157 c 0,7,8
 178 -154 178 -154 193 -148.5 c 128,-1,9
 208 -143 208 -143 220 -134.5 c 128,-1,10
 232 -126 232 -126 241.5 -113 c 128,-1,11
 251 -100 251 -100 260 -81 c 2,12,-1
 295 -11 l 1,13,-1
 103 406 l 2,14,15
 90 434 90 434 80.5 450.5 c 128,-1,16
 71 467 71 467 60.5 476.5 c 128,-1,17
 50 486 50 486 37 489.5 c 128,-1,18
 24 493 24 493 4 495 c 1,19,-1
 4 530 l 1,20,-1
 269 530 l 1,21,-1
 269 495 l 1,22,23
 202 495 202 495 202 462 c 0,24,25
 202 449 202 449 210 421 c 128,-1,26
 218 393 218 393 230 364 c 2,27,-1
 340 98 l 1,28,-1
 345 98 l 1,29,-1
 436 323 l 2,30,31
 449 356 449 356 457.5 377 c 128,-1,32
 466 398 466 398 470.5 411.5 c 128,-1,33
 475 425 475 425 476.5 434 c 128,-1,34
 478 443 478 443 478 451 c 0,35,36
 478 477 478 477 463.5 486 c 128,-1,37
 449 495 449 495 408 495 c 1,38,-1
 408 530 l 1,39,-1
 628 530 l 1,40,-1
 628 495 l 1,41,42
 609 495 609 495 596 490 c 128,-1,43
 583 485 583 485 569.5 467.5 c 128,-1,44
 556 450 556 450 539.5 417 c 128,-1,45
 523 384 523 384 499 328 c 2,46,-1
 281 -157 l 2,0,1
EndSplineSet
EndChar

StartChar: z
Encoding: 122 122 93
Width: 557
GlyphClass: 1
Flags: W
LayerCount: 2
Fore
SplineSet
498 0 m 1,0,-1
 18 0 l 1,1,-1
 18 4 l 1,2,-1
 364 488 l 1,3,-1
 253 488 l 2,4,5
 210 488 210 488 182.5 484.5 c 128,-1,6
 155 481 155 481 137.5 470.5 c 128,-1,7
 120 460 120 460 111 441.5 c 128,-1,8
 102 423 102 423 97 392 c 1,9,-1
 65 392 l 1,10,-1
 81 530 l 1,11,-1
 511 530 l 1,12,-1
 511 526 l 1,13,-1
 170 46 l 1,14,-1
 287 46 l 2,15,16
 338 46 338 46 371.5 50 c 128,-1,17
 405 54 405 54 426.5 66 c 128,-1,18
 448 78 448 78 460.5 99 c 128,-1,19
 473 120 473 120 482 155 c 1,20,-1
 515 155 l 1,21,-1
 498 0 l 1,0,-1
EndSplineSet
EndChar

StartChar: braceleft
Encoding: 123 123 94
Width: 335
GlyphClass: 1
Flags: W
LayerCount: 2
Fore
SplineSet
208 0 m 2,0,1
 208 -54 208 -54 225.5 -84 c 128,-1,2
 243 -114 243 -114 294 -128 c 1,3,-1
 294 -150 l 1,4,5
 244 -150 244 -150 210 -143 c 128,-1,6
 176 -136 176 -136 155.5 -118.5 c 128,-1,7
 135 -101 135 -101 126.5 -71 c 128,-1,8
 118 -41 118 -41 118 4 c 2,9,-1
 118 200 l 2,10,11
 118 222 118 222 113.5 244.5 c 128,-1,12
 109 267 109 267 99 285 c 128,-1,13
 89 303 89 303 71.5 315.5 c 128,-1,14
 54 328 54 328 29 330 c 1,15,-1
 29 355 l 1,16,17
 57 361 57 361 74.5 371 c 128,-1,18
 92 381 92 381 101.5 396.5 c 128,-1,19
 111 412 111 412 114.5 433.5 c 128,-1,20
 118 455 118 455 118 484 c 2,21,-1
 118 659 l 2,22,23
 118 707 118 707 125 739.5 c 128,-1,24
 132 772 132 772 151 792 c 128,-1,25
 170 812 170 812 203.5 821 c 128,-1,26
 237 830 237 830 290 830 c 1,27,-1
 290 807 l 1,28,29
 243 795 243 795 225.5 764.5 c 128,-1,30
 208 734 208 734 208 680 c 2,31,-1
 208 501 l 2,32,33
 208 470 208 470 204.5 444.5 c 128,-1,34
 201 419 201 419 190.5 399 c 128,-1,35
 180 379 180 379 161 365.5 c 128,-1,36
 142 352 142 352 110 345 c 1,37,-1
 110 340 l 1,38,39
 140 335 140 335 159.5 323.5 c 128,-1,40
 179 312 179 312 189.5 294 c 128,-1,41
 200 276 200 276 204 252 c 128,-1,42
 208 228 208 228 208 198 c 2,43,-1
 208 0 l 2,0,1
EndSplineSet
EndChar

StartChar: bar
Encoding: 124 124 95
Width: 290
GlyphClass: 1
Flags: W
LayerCount: 2
Fore
SplineSet
185 820 m 1,0,-1
 185 -250 l 1,1,-1
 105 -250 l 1,2,-1
 105 820 l 1,3,-1
 185 820 l 1,0,-1
EndSplineSet
EndChar

StartChar: braceright
Encoding: 125 125 96
Width: 335
GlyphClass: 1
Flags: W
LayerCount: 2
Fore
SplineSet
127 198 m 2,0,1
 127 228 127 228 131 252 c 128,-1,2
 135 276 135 276 145.5 294 c 128,-1,3
 156 312 156 312 175.5 323.5 c 128,-1,4
 195 335 195 335 225 340 c 1,5,-1
 225 345 l 1,6,7
 193 352 193 352 174 365.5 c 128,-1,8
 155 379 155 379 144.5 399 c 128,-1,9
 134 419 134 419 130.5 444.5 c 128,-1,10
 127 470 127 470 127 501 c 2,11,-1
 127 680 l 2,12,13
 127 734 127 734 109.5 764.5 c 128,-1,14
 92 795 92 795 45 807 c 1,15,-1
 45 830 l 1,16,17
 98 830 98 830 131.5 821 c 128,-1,18
 165 812 165 812 184 792 c 128,-1,19
 203 772 203 772 210 739.5 c 128,-1,20
 217 707 217 707 217 659 c 2,21,-1
 217 484 l 2,22,23
 217 455 217 455 220.5 433.5 c 128,-1,24
 224 412 224 412 233.5 396.5 c 128,-1,25
 243 381 243 381 260.5 371 c 128,-1,26
 278 361 278 361 306 355 c 1,27,-1
 306 330 l 1,28,29
 280 328 280 328 263 315.5 c 128,-1,30
 246 303 246 303 236 285 c 128,-1,31
 226 267 226 267 221.5 244.5 c 128,-1,32
 217 222 217 222 217 200 c 2,33,-1
 217 4 l 2,34,35
 217 -41 217 -41 208.5 -71 c 128,-1,36
 200 -101 200 -101 179.5 -118.5 c 128,-1,37
 159 -136 159 -136 125 -143 c 128,-1,38
 91 -150 91 -150 41 -150 c 1,39,-1
 41 -128 l 1,40,41
 92 -114 92 -114 109.5 -84 c 128,-1,42
 127 -54 127 -54 127 0 c 2,43,-1
 127 198 l 2,0,1
EndSplineSet
EndChar

StartChar: asciitilde
Encoding: 126 126 97
Width: 553
GlyphClass: 1
Flags: W
LayerCount: 2
Fore
SplineSet
84 249 m 1,0,1
 93 302 93 302 122.5 332.5 c 128,-1,2
 152 363 152 363 194 363 c 0,3,4
 215 363 215 363 240 356 c 128,-1,5
 265 349 265 349 290.5 340 c 128,-1,6
 316 331 316 331 342 324 c 128,-1,7
 368 317 368 317 391 317 c 0,8,9
 410 317 410 317 419.5 326 c 128,-1,10
 429 335 429 335 437 359 c 1,11,-1
 470 359 l 1,12,13
 462 306 462 306 434 273.5 c 128,-1,14
 406 241 406 241 367 241 c 0,15,16
 346 241 346 241 320.5 248.5 c 128,-1,17
 295 256 295 256 268 265 c 128,-1,18
 241 274 241 274 214 281.5 c 128,-1,19
 187 289 187 289 163 289 c 0,20,21
 144 289 144 289 134.5 280.5 c 128,-1,22
 125 272 125 272 118 249 c 1,23,-1
 84 249 l 1,0,1
EndSplineSet
EndChar

StartChar: exclamdown
Encoding: 161 161 99
Width: 308
GlyphClass: 1
Flags: W
LayerCount: 2
Fore
SplineSet
89 715 m 0,0,1
 89 742 89 742 108 761 c 128,-1,2
 127 780 127 780 154 780 c 0,3,4
 182 780 182 780 201 761 c 128,-1,5
 220 742 220 742 220 715 c 0,6,7
 220 687 220 687 201 668 c 128,-1,8
 182 649 182 649 154 649 c 0,9,10
 127 649 127 649 108 668 c 128,-1,11
 89 687 89 687 89 715 c 0,0,1
178 563 m 1,12,13
 178 483 178 483 180 427 c 128,-1,14
 182 371 182 371 185 329.5 c 128,-1,15
 188 288 188 288 193 255.5 c 128,-1,16
 198 223 198 223 204 190 c 0,17,18
 210 160 210 160 213 140.5 c 128,-1,19
 216 121 216 121 217.5 107 c 128,-1,20
 219 93 219 93 219 81.5 c 128,-1,21
 219 70 219 70 219 56 c 0,22,23
 219 29 219 29 201.5 9.5 c 128,-1,24
 184 -10 184 -10 154 -10 c 256,25,26
 124 -10 124 -10 106.5 9.5 c 128,-1,27
 89 29 89 29 89 56 c 0,28,29
 89 71 89 71 89.5 82.5 c 128,-1,30
 90 94 90 94 91.5 107.5 c 128,-1,31
 93 121 93 121 96 139 c 128,-1,32
 99 157 99 157 104 186 c 0,33,34
 110 220 110 220 115 253.5 c 128,-1,35
 120 287 120 287 123.5 329 c 128,-1,36
 127 371 127 371 128.5 427 c 128,-1,37
 130 483 130 483 130 563 c 1,38,-1
 178 563 l 1,12,13
EndSplineSet
EndChar

StartChar: cent
Encoding: 162 162 100
Width: 555
GlyphClass: 1
Flags: W
LayerCount: 2
Fore
SplineSet
338 683 m 1,0,-1
 338 540 l 1,1,2
 375 539 375 539 406 532.5 c 128,-1,3
 437 526 437 526 459.5 514.5 c 128,-1,4
 482 503 482 503 494.5 487 c 128,-1,5
 507 471 507 471 507 452 c 0,6,7
 507 432 507 432 494 421 c 128,-1,8
 481 410 481 410 458 410 c 0,9,10
 440 410 440 410 428 417.5 c 128,-1,11
 416 425 416 425 397 451 c 0,12,13
 382 468 382 468 368.5 477.5 c 128,-1,14
 355 487 355 487 338 491 c 1,15,-1
 338 42 l 1,16,17
 376 44 376 44 410.5 60.5 c 128,-1,18
 445 77 445 77 480 112 c 1,19,-1
 510 83 l 1,20,21
 480 47 480 47 435.5 23.5 c 128,-1,22
 391 0 391 0 338 -7 c 1,23,-1
 338 -147 l 1,24,-1
 288 -147 l 1,25,-1
 288 -10 l 1,26,27
 236 -9 236 -9 192.5 11 c 128,-1,28
 149 31 149 31 118 66.5 c 128,-1,29
 87 102 87 102 70 151.5 c 128,-1,30
 53 201 53 201 53 261 c 0,31,32
 53 319 53 319 69.5 367 c 128,-1,33
 86 415 86 415 117 450.5 c 128,-1,34
 148 486 148 486 191.5 508.5 c 128,-1,35
 235 531 235 531 288 537 c 1,36,-1
 288 683 l 1,37,-1
 338 683 l 1,0,-1
167 276 m 0,38,39
 167 176 167 176 197.5 118 c 128,-1,40
 228 60 228 60 288 46 c 1,41,-1
 288 491 l 1,42,43
 228 483 228 483 197.5 428.5 c 128,-1,44
 167 374 167 374 167 276 c 0,38,39
EndSplineSet
EndChar

StartChar: sterling
Encoding: 163 163 101
Width: 680
GlyphClass: 1
Flags: W
LayerCount: 2
Fore
SplineSet
235 83 m 1,0,1
 210 95 210 95 188.5 102 c 128,-1,2
 167 109 167 109 147 109 c 256,3,4
 127 109 127 109 115 100.5 c 128,-1,5
 103 92 103 92 103 77 c 0,6,7
 103 60 103 60 116.5 52.5 c 128,-1,8
 130 45 130 45 153 45 c 0,9,10
 203 45 203 45 235 83 c 1,0,1
314 431 m 1,11,-1
 531 431 l 1,12,-1
 531 370 l 1,13,-1
 327 370 l 1,14,15
 335 340 335 340 338 318.5 c 128,-1,16
 341 297 341 297 341 270 c 0,17,18
 341 220 341 220 332.5 181.5 c 128,-1,19
 324 143 324 143 307 111 c 1,20,21
 325 106 325 106 346.5 102 c 128,-1,22
 368 98 368 98 390.5 95 c 128,-1,23
 413 92 413 92 435.5 90.5 c 128,-1,24
 458 89 458 89 476 89 c 0,25,26
 525 89 525 89 560.5 105.5 c 128,-1,27
 596 122 596 122 624 158 c 1,28,-1
 634 154 l 1,29,30
 634 67 634 67 594 28.5 c 128,-1,31
 554 -10 554 -10 488 -10 c 0,32,33
 467 -10 467 -10 447 -7 c 128,-1,34
 427 -4 427 -4 403.5 4 c 128,-1,35
 380 12 380 12 350 25 c 128,-1,36
 320 38 320 38 280 59 c 1,37,38
 270 44 270 44 254 31 c 128,-1,39
 238 18 238 18 218.5 9 c 128,-1,40
 199 0 199 0 177 -5.5 c 128,-1,41
 155 -11 155 -11 134 -11 c 0,42,43
 90 -11 90 -11 64.5 11 c 128,-1,44
 39 33 39 33 39 71 c 0,45,46
 39 113 39 113 68.5 139 c 128,-1,47
 98 165 98 165 143 165 c 0,48,49
 168 165 168 165 195 157.5 c 128,-1,50
 222 150 222 150 249 134 c 1,51,52
 252 145 252 145 253.5 163.5 c 128,-1,53
 255 182 255 182 255 194 c 0,54,55
 255 224 255 224 243.5 273 c 128,-1,56
 232 322 232 322 214 370 c 1,57,-1
 75 370 l 1,58,-1
 75 431 l 1,59,-1
 195 431 l 1,60,61
 183 472 183 472 177.5 504.5 c 128,-1,62
 172 537 172 537 172 566 c 0,63,64
 172 615 172 615 188.5 655 c 128,-1,65
 205 695 205 695 236 722.5 c 128,-1,66
 267 750 267 750 310 765 c 128,-1,67
 353 780 353 780 407 780 c 0,68,69
 448 780 448 780 483.5 771.5 c 128,-1,70
 519 763 519 763 544.5 747.5 c 128,-1,71
 570 732 570 732 584.5 711 c 128,-1,72
 599 690 599 690 599 665 c 0,73,74
 599 619 599 619 555 619 c 0,75,76
 528 619 528 619 516.5 636.5 c 128,-1,77
 505 654 505 654 494 675.5 c 128,-1,78
 483 697 483 697 462.5 714.5 c 128,-1,79
 442 732 442 732 397 732 c 0,80,81
 340 732 340 732 307.5 702 c 128,-1,82
 275 672 275 672 275 621 c 0,83,84
 275 604 275 604 278.5 580.5 c 128,-1,85
 282 557 282 557 288 534 c 2,86,-1
 314 431 l 1,11,-1
EndSplineSet
EndChar

StartChar: currency
Encoding: 164 164 102
Width: 613
GlyphClass: 1
Flags: W
LayerCount: 2
Fore
SplineSet
136 128 m 1,0,1
 113 156 113 156 101 190 c 128,-1,2
 89 224 89 224 89 263 c 0,3,4
 89 341 89 341 136 399 c 1,5,-1
 64 471 l 1,6,-1
 99 506 l 1,7,-1
 171 434 l 1,8,9
 199 457 199 457 233 469 c 128,-1,10
 267 481 267 481 306 481 c 256,11,12
 345 481 345 481 378.5 469 c 128,-1,13
 412 457 412 457 441 434 c 1,14,-1
 513 506 l 1,15,-1
 548 471 l 1,16,-1
 476 399 l 1,17,18
 524 340 524 340 524 263 c 0,19,20
 524 224 524 224 512 190 c 128,-1,21
 500 156 500 156 477 128 c 1,22,-1
 548 57 l 1,23,-1
 513 22 l 1,24,-1
 442 93 l 1,25,26
 384 46 384 46 306 46 c 0,27,28
 227 46 227 46 170 94 c 1,29,-1
 99 23 l 1,30,-1
 65 57 l 1,31,-1
 136 128 l 1,0,1
139 263 m 0,32,33
 139 228 139 228 152 198 c 128,-1,34
 165 168 165 168 188 145 c 128,-1,35
 211 122 211 122 241 109 c 128,-1,36
 271 96 271 96 306 96 c 0,37,38
 340 96 340 96 371 109 c 128,-1,39
 402 122 402 122 424.5 145 c 128,-1,40
 447 168 447 168 460.5 198 c 128,-1,41
 474 228 474 228 474 263 c 0,42,43
 474 297 474 297 460.5 328 c 128,-1,44
 447 359 447 359 424.5 381.5 c 128,-1,45
 402 404 402 404 371 417.5 c 128,-1,46
 340 431 340 431 306 431 c 0,47,48
 271 431 271 431 241 417.5 c 128,-1,49
 211 404 211 404 188 381.5 c 128,-1,50
 165 359 165 359 152 328 c 128,-1,51
 139 297 139 297 139 263 c 0,32,33
EndSplineSet
EndChar

StartChar: yen
Encoding: 165 165 103
Width: 802
GlyphClass: 1
Flags: W
LayerCount: 2
Fore
SplineSet
626 175 m 1,0,-1
 454 175 l 1,1,2
 454 131 454 131 458 104 c 128,-1,3
 462 77 462 77 474 62.5 c 128,-1,4
 486 48 486 48 507 43 c 128,-1,5
 528 38 528 38 563 38 c 1,6,-1
 563 0 l 1,7,-1
 239 0 l 1,8,-1
 239 38 l 1,9,10
 274 38 274 38 295.5 43 c 128,-1,11
 317 48 317 48 329 63 c 128,-1,12
 341 78 341 78 345 104.5 c 128,-1,13
 349 131 349 131 349 175 c 1,14,-1
 172 175 l 1,15,-1
 172 235 l 1,16,-1
 349 235 l 1,17,-1
 349 304 l 1,18,-1
 172 304 l 1,19,-1
 172 364 l 1,20,-1
 314 364 l 1,21,-1
 149 646 l 2,22,23
 134 672 134 672 121 688.5 c 128,-1,24
 108 705 108 705 94.5 715 c 128,-1,25
 81 725 81 725 66 728.5 c 128,-1,26
 51 732 51 732 30 732 c 1,27,-1
 30 770 l 1,28,-1
 345 770 l 1,29,-1
 345 732 l 1,30,31
 316 732 316 732 298.5 730 c 128,-1,32
 281 728 281 728 271 724 c 128,-1,33
 261 720 261 720 257.5 713.5 c 128,-1,34
 254 707 254 707 254 698 c 0,35,36
 254 677 254 677 277 638 c 2,37,-1
 432 373 l 1,38,-1
 436 373 l 1,39,-1
 549 563 l 2,40,41
 581 617 581 617 594.5 648 c 128,-1,42
 608 679 608 679 608 698 c 256,43,44
 608 717 608 717 593.5 724.5 c 128,-1,45
 579 732 579 732 543 732 c 1,46,-1
 543 770 l 1,47,-1
 772 770 l 1,48,-1
 772 732 l 1,49,50
 751 732 751 732 734.5 726 c 128,-1,51
 718 720 718 720 700 702 c 128,-1,52
 682 684 682 684 660.5 652 c 128,-1,53
 639 620 639 620 608 568 c 2,54,-1
 487 364 l 1,55,-1
 626 364 l 1,56,-1
 626 304 l 1,57,-1
 454 304 l 1,58,-1
 454 235 l 1,59,-1
 626 235 l 1,60,-1
 626 175 l 1,0,-1
EndSplineSet
EndChar

StartChar: brokenbar
Encoding: 166 166 104
Width: 298
GlyphClass: 1
Flags: W
LayerCount: 2
Fore
SplineSet
189 750 m 1,0,-1
 189 365 l 1,1,-1
 109 365 l 1,2,-1
 109 750 l 1,3,-1
 189 750 l 1,0,-1
189 205 m 1,4,-1
 189 -180 l 1,5,-1
 109 -180 l 1,6,-1
 109 205 l 1,7,-1
 189 205 l 1,4,-1
EndSplineSet
EndChar

StartChar: section
Encoding: 167 167 105
Width: 566
GlyphClass: 1
Flags: W
LayerCount: 2
Fore
SplineSet
375 196 m 1,0,1
 406 220 406 220 418.5 238 c 128,-1,2
 431 256 431 256 431 278 c 0,3,4
 431 310 431 310 407.5 342.5 c 128,-1,5
 384 375 384 375 339 402 c 2,6,-1
 206 481 l 1,7,8
 168 461 168 461 152.5 443.5 c 128,-1,9
 137 426 137 426 137 401 c 0,10,11
 137 370 137 370 157 341.5 c 128,-1,12
 177 313 177 313 213 292 c 2,13,-1
 375 196 l 1,0,1
243 145 m 2,14,15
 194 172 194 172 159.5 197.5 c 128,-1,16
 125 223 125 223 103.5 248.5 c 128,-1,17
 82 274 82 274 72.5 301.5 c 128,-1,18
 63 329 63 329 63 361 c 0,19,20
 63 414 63 414 88.5 451.5 c 128,-1,21
 114 489 114 489 162 509 c 1,22,23
 127 538 127 538 109 577.5 c 128,-1,24
 91 617 91 617 91 662 c 0,25,26
 91 740 91 740 142 785 c 128,-1,27
 193 830 193 830 280 830 c 0,28,29
 321 830 321 830 355.5 820 c 128,-1,30
 390 810 390 810 415.5 792 c 128,-1,31
 441 774 441 774 455 749 c 128,-1,32
 469 724 469 724 469 695 c 0,33,34
 469 663 469 663 452.5 644 c 128,-1,35
 436 625 436 625 407 625 c 0,36,37
 381 625 381 625 364.5 640.5 c 128,-1,38
 348 656 348 656 348 681 c 0,39,40
 348 694 348 694 352.5 703 c 128,-1,41
 357 712 357 712 362 718.5 c 128,-1,42
 367 725 367 725 371.5 730.5 c 128,-1,43
 376 736 376 736 376 744 c 0,44,45
 376 764 376 764 348.5 777 c 128,-1,46
 321 790 321 790 279 790 c 0,47,48
 225 790 225 790 195 765 c 128,-1,49
 165 740 165 740 165 694 c 0,50,51
 165 657 165 657 188.5 628.5 c 128,-1,52
 212 600 212 600 270 567 c 2,53,-1
 330 532 l 2,54,55
 423 478 423 478 463.5 427 c 128,-1,56
 504 376 504 376 504 314 c 0,57,58
 504 269 504 269 483.5 235 c 128,-1,59
 463 201 463 201 417 167 c 1,60,61
 494 104 494 104 494 14 c 0,62,63
 494 -28 494 -28 477.5 -62.5 c 128,-1,64
 461 -97 461 -97 432 -121.5 c 128,-1,65
 403 -146 403 -146 362.5 -160 c 128,-1,66
 322 -174 322 -174 273 -174 c 0,67,68
 226 -174 226 -174 187 -161.5 c 128,-1,69
 148 -149 148 -149 120 -127.5 c 128,-1,70
 92 -106 92 -106 76 -76 c 128,-1,71
 60 -46 60 -46 60 -10 c 0,72,73
 60 28 60 28 77 50.5 c 128,-1,74
 94 73 94 73 123 73 c 0,75,76
 149 73 149 73 168 55 c 128,-1,77
 187 37 187 37 187 11 c 0,78,79
 187 -5 187 -5 180 -17 c 128,-1,80
 173 -29 173 -29 165 -38.5 c 128,-1,81
 157 -48 157 -48 150 -56.5 c 128,-1,82
 143 -65 143 -65 143 -74 c 0,83,84
 143 -85 143 -85 154 -95 c 128,-1,85
 165 -105 165 -105 184 -112.5 c 128,-1,86
 203 -120 203 -120 227.5 -124.5 c 128,-1,87
 252 -129 252 -129 278 -129 c 0,88,89
 343 -129 343 -129 379 -100 c 128,-1,90
 415 -71 415 -71 415 -18 c 0,91,92
 415 19 415 19 390 47.5 c 128,-1,93
 365 76 365 76 302 112 c 2,94,-1
 243 145 l 2,14,15
EndSplineSet
EndChar

StartChar: dieresis
Encoding: 168 168 106
Width: 323
GlyphClass: 1
Flags: W
LayerCount: 2
Fore
SplineSet
20 709 m 256,0,1
 20 734 20 734 36.5 750.5 c 128,-1,2
 53 767 53 767 78 767 c 256,3,4
 103 767 103 767 119.5 750.5 c 128,-1,5
 136 734 136 734 136 709 c 256,6,7
 136 684 136 684 119.5 667.5 c 128,-1,8
 103 651 103 651 78 651 c 256,9,10
 53 651 53 651 36.5 667.5 c 128,-1,11
 20 684 20 684 20 709 c 256,0,1
187 709 m 256,12,13
 187 734 187 734 203.5 750.5 c 128,-1,14
 220 767 220 767 245 767 c 256,15,16
 270 767 270 767 286.5 750.5 c 128,-1,17
 303 734 303 734 303 709 c 256,18,19
 303 684 303 684 286.5 667.5 c 128,-1,20
 270 651 270 651 245 651 c 256,21,22
 220 651 220 651 203.5 667.5 c 128,-1,23
 187 684 187 684 187 709 c 256,12,13
EndSplineSet
EndChar

StartChar: copyright
Encoding: 169 169 107
Width: 888
GlyphClass: 1
Flags: W
LayerCount: 2
Fore
SplineSet
831 386 m 0,0,1
 831 303 831 303 800.5 231 c 128,-1,2
 770 159 770 159 717 105.5 c 128,-1,3
 664 52 664 52 593.5 21 c 128,-1,4
 523 -10 523 -10 442 -10 c 0,5,6
 362 -10 362 -10 292 21 c 128,-1,7
 222 52 222 52 169.5 106 c 128,-1,8
 117 160 117 160 87 232 c 128,-1,9
 57 304 57 304 57 385 c 256,10,11
 57 466 57 466 87 538 c 128,-1,12
 117 610 117 610 169 664 c 128,-1,13
 221 718 221 718 291 749 c 128,-1,14
 361 780 361 780 441 780 c 0,15,16
 522 780 522 780 593 749 c 128,-1,17
 664 718 664 718 717 665 c 128,-1,18
 770 612 770 612 800.5 540 c 128,-1,19
 831 468 831 468 831 386 c 0,0,1
783 386 m 256,20,21
 783 458 783 458 756 521.5 c 128,-1,22
 729 585 729 585 682.5 631.5 c 128,-1,23
 636 678 636 678 574 705 c 128,-1,24
 512 732 512 732 441 732 c 256,25,26
 370 732 370 732 309 704.5 c 128,-1,27
 248 677 248 677 202.5 629.5 c 128,-1,28
 157 582 157 582 131 519 c 128,-1,29
 105 456 105 456 105 385 c 0,30,31
 105 313 105 313 131 250 c 128,-1,32
 157 187 157 187 203 140 c 128,-1,33
 249 93 249 93 310 65.5 c 128,-1,34
 371 38 371 38 442 38 c 0,35,36
 512 38 512 38 574.5 65.5 c 128,-1,37
 637 93 637 93 683 140 c 128,-1,38
 729 187 729 187 756 250.5 c 128,-1,39
 783 314 783 314 783 386 c 256,20,21
617 305 m 1,40,41
 603 239 603 239 561 198 c 128,-1,42
 519 157 519 157 444 157 c 0,43,44
 394 157 394 157 354 172.5 c 128,-1,45
 314 188 314 188 285.5 216.5 c 128,-1,46
 257 245 257 245 241.5 285 c 128,-1,47
 226 325 226 325 226 375 c 0,48,49
 226 427 226 427 242.5 470 c 128,-1,50
 259 513 259 513 288.5 544 c 128,-1,51
 318 575 318 575 359 592 c 128,-1,52
 400 609 400 609 450 609 c 0,53,54
 483 609 483 609 512 599.5 c 128,-1,55
 541 590 541 590 576 568 c 1,56,-1
 586 603 l 1,57,-1
 607 603 l 1,58,-1
 612 472 l 1,59,-1
 586 472 l 1,60,61
 574 517 574 517 539 543 c 128,-1,62
 504 569 504 569 455 569 c 0,63,64
 387 569 387 569 350 519 c 128,-1,65
 313 469 313 469 313 379 c 0,66,67
 313 291 313 291 350 244.5 c 128,-1,68
 387 198 387 198 457 198 c 0,69,70
 555 198 555 198 584 305 c 1,71,-1
 617 305 l 1,40,41
EndSplineSet
EndChar

StartChar: ordfeminine
Encoding: 170 170 108
Width: 378
GlyphClass: 1
Flags: W
LayerCount: 2
Fore
SplineSet
218 654 m 1,0,1
 167 635 167 635 146 617 c 128,-1,2
 125 599 125 599 125 580 c 0,3,4
 125 563 125 563 134.5 552.5 c 128,-1,5
 144 542 144 542 160 542 c 0,6,7
 183 542 183 542 200.5 565 c 128,-1,8
 218 588 218 588 218 620 c 2,9,-1
 218 654 l 1,0,1
218 682 m 1,10,-1
 218 701 l 2,11,12
 218 756 218 756 168 756 c 0,13,14
 146 756 146 756 137 750.5 c 128,-1,15
 128 745 128 745 123 725 c 0,16,17
 117 701 117 701 97 701 c 0,18,19
 72 701 72 701 72 730 c 0,20,21
 72 750 72 750 100 765 c 128,-1,22
 128 780 128 780 177 780 c 0,23,24
 231 780 231 780 252.5 762.5 c 128,-1,25
 274 745 274 745 274 703 c 2,26,-1
 274 591 l 2,27,28
 274 533 274 533 296 533 c 0,29,30
 311 533 311 533 320 546 c 1,31,-1
 327 534 l 1,32,33
 320 522 320 522 303 514.5 c 128,-1,34
 286 507 286 507 267 507 c 0,35,36
 223 507 223 507 223 555 c 1,37,-1
 219 555 l 1,38,39
 206 533 206 533 184 520 c 128,-1,40
 162 507 162 507 135 507 c 0,41,42
 102 507 102 507 82.5 523.5 c 128,-1,43
 63 540 63 540 63 566 c 256,44,45
 63 592 63 592 81.5 611 c 128,-1,46
 100 630 100 630 148 651 c 2,47,-1
 218 682 l 1,10,-1
EndSplineSet
EndChar

StartChar: guillemotleft
Encoding: 171 171 109
Width: 489
GlyphClass: 1
Flags: W
LayerCount: 2
Fore
SplineSet
49 262 m 1,0,-1
 219 421 l 1,1,-1
 239 400 l 1,2,-1
 140 262 l 1,3,-1
 238 124 l 1,4,-1
 219 104 l 1,5,-1
 49 262 l 1,0,-1
220 262 m 1,6,-1
 390 421 l 1,7,-1
 410 400 l 1,8,-1
 311 262 l 1,9,-1
 409 124 l 1,10,-1
 390 104 l 1,11,-1
 220 262 l 1,6,-1
EndSplineSet
EndChar

StartChar: logicalnot
Encoding: 172 172 110
Width: 625
GlyphClass: 1
Flags: W
LayerCount: 2
Fore
SplineSet
491 313 m 1,0,-1
 83 313 l 1,1,-1
 83 363 l 1,2,-1
 541 363 l 1,3,-1
 541 110 l 1,4,-1
 491 110 l 1,5,-1
 491 313 l 1,0,-1
EndSplineSet
EndChar

StartChar: uni00AD
Encoding: 173 173 111
Width: 463
GlyphClass: 1
Flags: W
LayerCount: 2
Fore
SplineSet
77 248 m 1,0,-1
 77 331 l 1,1,-1
 386 331 l 1,2,-1
 386 248 l 1,3,-1
 77 248 l 1,0,-1
EndSplineSet
EndChar

StartChar: registered
Encoding: 174 174 112
Width: 888
GlyphClass: 1
Flags: W
LayerCount: 2
Fore
SplineSet
831 386 m 0,0,1
 831 303 831 303 800.5 231 c 128,-1,2
 770 159 770 159 717 105.5 c 128,-1,3
 664 52 664 52 593.5 21 c 128,-1,4
 523 -10 523 -10 442 -10 c 0,5,6
 362 -10 362 -10 292 21 c 128,-1,7
 222 52 222 52 169.5 106 c 128,-1,8
 117 160 117 160 87 232 c 128,-1,9
 57 304 57 304 57 385 c 256,10,11
 57 466 57 466 87 538 c 128,-1,12
 117 610 117 610 169 664 c 128,-1,13
 221 718 221 718 291 749 c 128,-1,14
 361 780 361 780 441 780 c 0,15,16
 522 780 522 780 593 749 c 128,-1,17
 664 718 664 718 717 665 c 128,-1,18
 770 612 770 612 800.5 540 c 128,-1,19
 831 468 831 468 831 386 c 0,0,1
783 386 m 256,20,21
 783 458 783 458 756 521.5 c 128,-1,22
 729 585 729 585 682.5 631.5 c 128,-1,23
 636 678 636 678 574 705 c 128,-1,24
 512 732 512 732 441 732 c 256,25,26
 370 732 370 732 309 704.5 c 128,-1,27
 248 677 248 677 202.5 629.5 c 128,-1,28
 157 582 157 582 131 519 c 128,-1,29
 105 456 105 456 105 385 c 0,30,31
 105 313 105 313 131 250 c 128,-1,32
 157 187 157 187 203 140 c 128,-1,33
 249 93 249 93 310 65.5 c 128,-1,34
 371 38 371 38 442 38 c 0,35,36
 512 38 512 38 574.5 65.5 c 128,-1,37
 637 93 637 93 683 140 c 128,-1,38
 729 187 729 187 756 250.5 c 128,-1,39
 783 314 783 314 783 386 c 256,20,21
592 507 m 0,40,41
 592 462 592 462 566.5 432 c 128,-1,42
 541 402 541 402 484 393 c 1,43,-1
 608 243 l 2,44,45
 622 226 622 226 637 217.5 c 128,-1,46
 652 209 652 209 675 205 c 1,47,-1
 675 183 l 1,48,-1
 567 183 l 1,49,-1
 429 354 l 2,50,51
 422 363 422 363 416.5 369 c 128,-1,52
 411 375 411 375 404.5 378 c 128,-1,53
 398 381 398 381 389.5 382 c 128,-1,54
 381 383 381 383 369 383 c 1,55,-1
 369 271 l 2,56,57
 369 251 369 251 371 238 c 128,-1,58
 373 225 373 225 380.5 217.5 c 128,-1,59
 388 210 388 210 402.5 207.5 c 128,-1,60
 417 205 417 205 441 205 c 1,61,-1
 441 183 l 1,62,-1
 243 183 l 1,63,-1
 243 205 l 1,64,65
 279 206 279 206 289 218 c 128,-1,66
 299 230 299 230 299 268 c 2,67,-1
 299 527 l 2,68,69
 299 546 299 546 297 558 c 128,-1,70
 295 570 295 570 290 577 c 128,-1,71
 285 584 285 584 275 586.5 c 128,-1,72
 265 589 265 589 249 590 c 1,73,-1
 249 615 l 1,74,-1
 424 615 l 2,75,76
 505 615 505 615 548.5 586.5 c 128,-1,77
 592 558 592 558 592 507 c 0,40,41
369 416 m 1,78,-1
 409 416 l 2,79,80
 460 416 460 416 484.5 436.5 c 128,-1,81
 509 457 509 457 509 504 c 0,82,83
 509 549 509 549 489 567 c 128,-1,84
 469 585 469 585 424 585 c 2,85,-1
 378 585 l 2,86,87
 369 585 369 585 369 576 c 2,88,-1
 369 416 l 1,78,-1
EndSplineSet
EndChar

StartChar: macron
Encoding: 175 175 113
Width: 310
GlyphClass: 1
Flags: W
LayerCount: 2
Fore
SplineSet
20 702 m 1,0,-1
 20 752 l 1,1,-1
 290 752 l 1,2,-1
 290 702 l 1,3,-1
 20 702 l 1,0,-1
EndSplineSet
EndChar

StartChar: degree
Encoding: 176 176 114
Width: 346
GlyphClass: 1
Flags: W
LayerCount: 2
Fore
SplineSet
53 660 m 256,0,1
 53 685 53 685 62.5 706.5 c 128,-1,2
 72 728 72 728 88.5 744.5 c 128,-1,3
 105 761 105 761 126.5 770.5 c 128,-1,4
 148 780 148 780 173 780 c 256,5,6
 198 780 198 780 219.5 770.5 c 128,-1,7
 241 761 241 761 257.5 744.5 c 128,-1,8
 274 728 274 728 283.5 706.5 c 128,-1,9
 293 685 293 685 293 660 c 256,10,11
 293 635 293 635 283.5 613.5 c 128,-1,12
 274 592 274 592 257.5 575.5 c 128,-1,13
 241 559 241 559 219.5 549.5 c 128,-1,14
 198 540 198 540 173 540 c 256,15,16
 148 540 148 540 126.5 549.5 c 128,-1,17
 105 559 105 559 88.5 575.5 c 128,-1,18
 72 592 72 592 62.5 613.5 c 128,-1,19
 53 635 53 635 53 660 c 256,0,1
83 660 m 256,20,21
 83 623 83 623 109.5 596.5 c 128,-1,22
 136 570 136 570 173 570 c 256,23,24
 210 570 210 570 236 596.5 c 128,-1,25
 262 623 262 623 262 660 c 256,26,27
 262 697 262 697 236 723 c 128,-1,28
 210 749 210 749 173 749 c 256,29,30
 136 749 136 749 109.5 723 c 128,-1,31
 83 697 83 697 83 660 c 256,20,21
EndSplineSet
EndChar

StartChar: plusminus
Encoding: 177 177 115
Width: 634
GlyphClass: 1
Flags: W
LayerCount: 2
Fore
SplineSet
291 234 m 1,0,-1
 291 443 l 1,1,-1
 83 443 l 1,2,-1
 83 493 l 1,3,-1
 291 493 l 1,4,-1
 291 702 l 1,5,-1
 343 702 l 1,6,-1
 343 493 l 1,7,-1
 551 493 l 1,8,-1
 551 443 l 1,9,-1
 343 443 l 1,10,-1
 343 234 l 1,11,-1
 291 234 l 1,0,-1
551 95 m 1,12,-1
 83 95 l 1,13,-1
 83 145 l 1,14,-1
 551 145 l 1,15,-1
 551 95 l 1,12,-1
EndSplineSet
EndChar

StartChar: twosuperior
Encoding: 178 178 116
Width: 285
GlyphClass: 1
Flags: W
LayerCount: 2
Fore
SplineSet
97 507 m 1,0,-1
 182 507 l 2,1,2
 202 507 202 507 212 516 c 128,-1,3
 222 525 222 525 230 553 c 1,4,-1
 250 553 l 1,5,-1
 235 468 l 1,6,-1
 34 468 l 1,7,-1
 34 481 l 1,8,9
 80 522 80 522 109 552.5 c 128,-1,10
 138 583 138 583 155 607.5 c 128,-1,11
 172 632 172 632 178.5 652.5 c 128,-1,12
 185 673 185 673 185 694 c 0,13,14
 185 723 185 723 170.5 740 c 128,-1,15
 156 757 156 757 130 757 c 0,16,17
 109 757 109 757 95 742.5 c 128,-1,18
 81 728 81 728 81 706 c 0,19,20
 81 686 81 686 93 674.5 c 128,-1,21
 105 663 105 663 125 663 c 1,22,23
 123 652 123 652 113.5 644.5 c 128,-1,24
 104 637 104 637 89 637 c 0,25,26
 67 637 67 637 52.5 654 c 128,-1,27
 38 671 38 671 38 697 c 0,28,29
 38 733 38 733 66 756.5 c 128,-1,30
 94 780 94 780 137 780 c 0,31,32
 182 780 182 780 210 756 c 128,-1,33
 238 732 238 732 238 694 c 0,34,35
 238 669 238 669 227 645.5 c 128,-1,36
 216 622 216 622 197 599.5 c 128,-1,37
 178 577 178 577 152 555 c 128,-1,38
 126 533 126 533 97 511 c 1,39,-1
 97 507 l 1,0,-1
EndSplineSet
EndChar

StartChar: threesuperior
Encoding: 179 179 117
Width: 279
GlyphClass: 1
Flags: W
LayerCount: 2
Fore
SplineSet
186 554 m 0,0,1
 186 586 186 586 172.5 603.5 c 128,-1,2
 159 621 159 621 135 621 c 1,3,4
 121 614 121 614 108 614 c 0,5,6
 90 614 90 614 90 630 c 0,7,8
 90 644 90 644 107 644 c 0,9,10
 119 644 119 644 132 639 c 1,11,12
 153 639 153 639 166 657.5 c 128,-1,13
 179 676 179 676 179 707 c 0,14,15
 179 758 179 758 132 758 c 0,16,17
 92 758 92 758 92 727 c 0,18,19
 92 716 92 716 99.5 708.5 c 128,-1,20
 107 701 107 701 120 701 c 1,21,22
 118 693 118 693 108.5 687 c 128,-1,23
 99 681 99 681 87 681 c 0,24,25
 70 681 70 681 58.5 693.5 c 128,-1,26
 47 706 47 706 47 724 c 0,27,28
 47 750 47 750 70.5 765 c 128,-1,29
 94 780 94 780 132 780 c 0,30,31
 178 780 178 780 205 760.5 c 128,-1,32
 232 741 232 741 232 709 c 0,33,34
 232 682 232 682 213.5 661.5 c 128,-1,35
 195 641 195 641 167 635 c 1,36,-1
 167 631 l 1,37,38
 199 623 199 623 220.5 602 c 128,-1,39
 242 581 242 581 242 551 c 0,40,41
 242 513 242 513 210.5 488.5 c 128,-1,42
 179 464 179 464 131 464 c 0,43,44
 89 464 89 464 62 484 c 128,-1,45
 35 504 35 504 35 535 c 0,46,47
 35 557 35 557 48 571.5 c 128,-1,48
 61 586 61 586 81 586 c 0,49,50
 94 586 94 586 104.5 579.5 c 128,-1,51
 115 573 115 573 117 563 c 1,52,53
 102 563 102 563 92 553.5 c 128,-1,54
 82 544 82 544 82 529 c 0,55,56
 82 511 82 511 95.5 499.5 c 128,-1,57
 109 488 109 488 130 488 c 0,58,59
 186 488 186 488 186 554 c 0,0,1
EndSplineSet
EndChar

StartChar: acute
Encoding: 180 180 118
Width: 275
GlyphClass: 1
Flags: W
LayerCount: 2
Fore
SplineSet
20 651 m 1,0,-1
 150 770 l 2,1,2
 186 803 186 803 217 803 c 0,3,4
 234 803 234 803 244.5 794 c 128,-1,5
 255 785 255 785 255 768 c 0,6,7
 255 752 255 752 241.5 739.5 c 128,-1,8
 228 727 228 727 204 716 c 2,9,-1
 67 651 l 1,10,-1
 20 651 l 1,0,-1
EndSplineSet
EndChar

StartChar: mu
Encoding: 181 181 119
Width: 721
GlyphClass: 1
Flags: W
LayerCount: 2
Fore
SplineSet
203 81 m 1,0,1
 211 42 211 42 218.5 0 c 128,-1,2
 226 -42 226 -42 231.5 -79.5 c 128,-1,3
 237 -117 237 -117 240.5 -146.5 c 128,-1,4
 244 -176 244 -176 244 -190 c 0,5,6
 244 -222 244 -222 229 -241 c 128,-1,7
 214 -260 214 -260 188 -260 c 0,8,9
 163 -260 163 -260 146.5 -242 c 128,-1,10
 130 -224 130 -224 130 -198 c 2,11,-1
 130 370 l 2,12,13
 130 410 130 410 127 434.5 c 128,-1,14
 124 459 124 459 115 472.5 c 128,-1,15
 106 486 106 486 90 490.5 c 128,-1,16
 74 495 74 495 47 495 c 1,17,-1
 47 530 l 1,18,-1
 228 530 l 1,19,-1
 228 257 l 2,20,21
 228 145 228 145 253.5 94.5 c 128,-1,22
 279 44 279 44 336 44 c 0,23,24
 380 44 380 44 412.5 73 c 128,-1,25
 445 102 445 102 472 165 c 0,26,27
 477 177 477 177 480.5 187 c 128,-1,28
 484 197 484 197 486 209 c 128,-1,29
 488 221 488 221 488.5 236 c 128,-1,30
 489 251 489 251 489 272 c 2,31,-1
 489 370 l 2,32,33
 489 410 489 410 486 434.5 c 128,-1,34
 483 459 483 459 474 472.5 c 128,-1,35
 465 486 465 486 449 490.5 c 128,-1,36
 433 495 433 495 406 495 c 1,37,-1
 406 530 l 1,38,-1
 587 530 l 1,39,-1
 587 223 l 2,40,41
 587 112 587 112 593 76 c 0,42,43
 595 64 595 64 599.5 56 c 128,-1,44
 604 48 604 48 612.5 43.5 c 128,-1,45
 621 39 621 39 636 37.5 c 128,-1,46
 651 36 651 36 674 36 c 1,47,-1
 674 1 l 1,48,-1
 509 -11 l 1,49,-1
 498 109 l 1,50,-1
 494 109 l 1,51,52
 462 51 462 51 420 20.5 c 128,-1,53
 378 -10 378 -10 331 -10 c 0,54,55
 248 -10 248 -10 207 82 c 1,56,-1
 203 81 l 1,0,1
EndSplineSet
EndChar

StartChar: paragraph
Encoding: 182 182 120
Width: 631
GlyphClass: 1
Flags: W
LayerCount: 2
Fore
SplineSet
473 63 m 2,0,1
 473 6 473 6 476.5 -34.5 c 128,-1,2
 480 -75 480 -75 486 -91 c 0,3,4
 493 -111 493 -111 514.5 -119 c 128,-1,5
 536 -127 536 -127 582 -127 c 1,6,-1
 582 -165 l 1,7,-1
 399 -165 l 1,8,-1
 399 726 l 1,9,-1
 347 726 l 1,10,-1
 347 -165 l 1,11,-1
 153 -165 l 1,12,-1
 153 -127 l 1,13,14
 206 -127 206 -127 230.5 -118 c 128,-1,15
 255 -109 255 -109 262 -88 c 0,16,17
 264 -82 264 -82 265.5 -66.5 c 128,-1,18
 267 -51 267 -51 268.5 -30.5 c 128,-1,19
 270 -10 270 -10 271 14.5 c 128,-1,20
 272 39 272 39 272 63 c 2,21,-1
 272 373 l 1,22,23
 264 373 264 373 256.5 372.5 c 128,-1,24
 249 372 249 372 238 372 c 0,25,26
 142 372 142 372 89 422.5 c 128,-1,27
 36 473 36 473 36 564 c 0,28,29
 36 664 36 664 105 717 c 128,-1,30
 174 770 174 770 306 770 c 2,31,-1
 582 770 l 1,32,-1
 582 732 l 1,33,34
 533 732 533 732 513 724.5 c 128,-1,35
 493 717 493 717 484 696 c 0,36,37
 478 680 478 680 475.5 653.5 c 128,-1,38
 473 627 473 627 473 573 c 2,39,-1
 473 63 l 2,0,1
EndSplineSet
EndChar

StartChar: periodcentered
Encoding: 183 183 121
Width: 285
GlyphClass: 1
Flags: W
LayerCount: 2
Fore
SplineSet
77 274 m 0,0,1
 77 302 77 302 96 321 c 128,-1,2
 115 340 115 340 142 340 c 0,3,4
 170 340 170 340 189 321 c 128,-1,5
 208 302 208 302 208 274 c 0,6,7
 208 247 208 247 189 228 c 128,-1,8
 170 209 170 209 142 209 c 0,9,10
 115 209 115 209 96 228 c 128,-1,11
 77 247 77 247 77 274 c 0,0,1
EndSplineSet
EndChar

StartChar: cedilla
Encoding: 184 184 122
Width: 232
GlyphClass: 1
Flags: W
LayerCount: 2
Fore
SplineSet
123 -72 m 1,0,1
 247 -72 247 -72 247 -158 c 0,2,3
 247 -206 247 -206 213 -233 c 128,-1,4
 179 -260 179 -260 121 -260 c 0,5,6
 70 -260 70 -260 38 -239 c 128,-1,7
 6 -218 6 -218 6 -184 c 0,8,9
 6 -148 6 -148 37 -148 c 0,10,11
 48 -148 48 -148 54.5 -154.5 c 128,-1,12
 61 -161 61 -161 70 -180 c 0,13,14
 79 -201 79 -201 88.5 -209 c 128,-1,15
 98 -217 98 -217 115 -217 c 0,16,17
 137 -217 137 -217 151 -203.5 c 128,-1,18
 165 -190 165 -190 165 -167 c 0,19,20
 165 -113 165 -113 86 -113 c 0,21,22
 78 -113 78 -113 68.5 -113.5 c 128,-1,23
 59 -114 59 -114 51 -115 c 1,24,-1
 48 -110 l 1,25,-1
 101 12 l 1,26,-1
 154 12 l 1,27,-1
 123 -72 l 1,0,1
EndSplineSet
EndChar

StartChar: onesuperior
Encoding: 185 185 123
Width: 246
GlyphClass: 1
Flags: W
LayerCount: 2
Fore
SplineSet
147 538 m 2,0,1
 147 507 147 507 154.5 498 c 128,-1,2
 162 489 162 489 189 488 c 1,3,-1
 189 468 l 1,4,-1
 61 468 l 1,5,-1
 61 488 l 1,6,7
 88 490 88 490 95.5 498 c 128,-1,8
 103 506 103 506 103 535 c 2,9,-1
 103 672 l 2,10,11
 103 695 103 695 103 710.5 c 128,-1,12
 103 726 103 726 101 730 c 0,13,14
 99 738 99 738 89 740.5 c 128,-1,15
 79 743 79 743 59 743 c 1,16,-1
 59 763 l 1,17,18
 80 764 80 764 103 768.5 c 128,-1,19
 126 773 126 773 147 780 c 1,20,-1
 147 538 l 2,0,1
EndSplineSet
EndChar

StartChar: ordmasculine
Encoding: 186 186 124
Width: 383
GlyphClass: 1
Flags: W
LayerCount: 2
Fore
SplineSet
190 780 m 256,0,1
 218 780 218 780 243.5 770 c 128,-1,2
 269 760 269 760 288 742 c 128,-1,3
 307 724 307 724 318.5 699 c 128,-1,4
 330 674 330 674 330 645 c 0,5,6
 330 615 330 615 318.5 589.5 c 128,-1,7
 307 564 307 564 288 546 c 128,-1,8
 269 528 269 528 243.5 517.5 c 128,-1,9
 218 507 218 507 190 507 c 256,10,11
 162 507 162 507 137 517.5 c 128,-1,12
 112 528 112 528 93.5 546 c 128,-1,13
 75 564 75 564 64 589.5 c 128,-1,14
 53 615 53 615 53 645 c 0,15,16
 53 674 53 674 64 699 c 128,-1,17
 75 724 75 724 93.5 742 c 128,-1,18
 112 760 112 760 137 770 c 128,-1,19
 162 780 162 780 190 780 c 256,0,1
190 754 m 0,20,21
 158 754 158 754 137.5 723.5 c 128,-1,22
 117 693 117 693 117 645 c 0,23,24
 117 594 117 594 137 564 c 128,-1,25
 157 534 157 534 190 534 c 0,26,27
 224 534 224 534 244.5 564 c 128,-1,28
 265 594 265 594 265 645 c 0,29,30
 265 693 265 693 244.5 723.5 c 128,-1,31
 224 754 224 754 190 754 c 0,20,21
EndSplineSet
EndChar

StartChar: guillemotright
Encoding: 187 187 125
Width: 489
GlyphClass: 1
Flags: W
LayerCount: 2
Fore
SplineSet
270 104 m 1,0,-1
 251 124 l 1,1,-1
 349 262 l 1,2,-1
 250 400 l 1,3,-1
 270 421 l 1,4,-1
 440 262 l 1,5,-1
 270 104 l 1,0,-1
99 104 m 1,6,-1
 80 124 l 1,7,-1
 178 262 l 1,8,-1
 79 400 l 1,9,-1
 99 421 l 1,10,-1
 269 262 l 1,11,-1
 99 104 l 1,6,-1
EndSplineSet
EndChar

StartChar: onequarter
Encoding: 188 188 126
Width: 669
GlyphClass: 1
Flags: W
LayerCount: 2
Fore
SplineSet
88 0 m 1,0,-1
 31 0 l 1,1,-1
 584 770 l 1,2,-1
 632 770 l 1,3,-1
 88 0 l 1,0,-1
219 538 m 2,4,5
 219 507 219 507 226.5 498 c 128,-1,6
 234 489 234 489 261 488 c 1,7,-1
 261 468 l 1,8,-1
 133 468 l 1,9,-1
 133 488 l 1,10,11
 160 490 160 490 167.5 498 c 128,-1,12
 175 506 175 506 175 535 c 2,13,-1
 175 672 l 2,14,15
 175 695 175 695 175 710.5 c 128,-1,16
 175 726 175 726 173 730 c 0,17,18
 171 738 171 738 161 740.5 c 128,-1,19
 151 743 151 743 131 743 c 1,20,-1
 131 763 l 1,21,22
 152 764 152 764 175 768.5 c 128,-1,23
 198 773 198 773 219 780 c 1,24,-1
 219 538 l 2,4,5
353 97 m 1,25,-1
 494 312 l 1,26,-1
 516 312 l 1,27,-1
 516 96 l 1,28,29
 541 97 541 97 547 103 c 128,-1,30
 553 109 553 109 553 132 c 1,31,-1
 572 132 l 1,32,-1
 572 38 l 1,33,-1
 553 38 l 1,34,35
 553 60 553 60 547 66 c 128,-1,36
 541 72 541 72 516 73 c 1,37,-1
 516 65 l 2,38,39
 516 34 516 34 522 25 c 128,-1,40
 528 16 528 16 548 15 c 1,41,-1
 548 0 l 1,42,-1
 425 0 l 1,43,-1
 425 15 l 1,44,45
 452 17 452 17 459.5 25 c 128,-1,46
 467 33 467 33 467 62 c 2,47,-1
 467 72 l 1,48,-1
 353 72 l 1,49,-1
 353 97 l 1,25,-1
467 227 m 1,50,-1
 463 227 l 1,51,-1
 378 97 l 1,52,-1
 467 97 l 1,53,-1
 467 227 l 1,50,-1
EndSplineSet
Ligature2: "'frac' Diagonal Fractions in Latin lookup 2 subtable" one slash four
Ligature2: "'frac' Diagonal Fractions in Latin lookup 2 subtable" one fraction four
EndChar

StartChar: onehalf
Encoding: 189 189 127
Width: 675
GlyphClass: 1
Flags: W
LayerCount: 2
Fore
SplineSet
88 0 m 1,0,-1
 31 0 l 1,1,-1
 584 770 l 1,2,-1
 632 770 l 1,3,-1
 88 0 l 1,0,-1
219 538 m 2,4,5
 219 507 219 507 226.5 498 c 128,-1,6
 234 489 234 489 261 488 c 1,7,-1
 261 468 l 1,8,-1
 133 468 l 1,9,-1
 133 488 l 1,10,11
 160 490 160 490 167.5 498 c 128,-1,12
 175 506 175 506 175 535 c 2,13,-1
 175 672 l 2,14,15
 175 695 175 695 175 710.5 c 128,-1,16
 175 726 175 726 173 730 c 0,17,18
 171 738 171 738 161 740.5 c 128,-1,19
 151 743 151 743 131 743 c 1,20,-1
 131 763 l 1,21,22
 152 764 152 764 175 768.5 c 128,-1,23
 198 773 198 773 219 780 c 1,24,-1
 219 538 l 2,4,5
432 39 m 1,25,-1
 517 39 l 2,26,27
 537 39 537 39 547 48 c 128,-1,28
 557 57 557 57 565 85 c 1,29,-1
 585 85 l 1,30,-1
 570 0 l 1,31,-1
 369 0 l 1,32,-1
 369 13 l 1,33,34
 415 54 415 54 444 84.5 c 128,-1,35
 473 115 473 115 490 139.5 c 128,-1,36
 507 164 507 164 513.5 184.5 c 128,-1,37
 520 205 520 205 520 226 c 0,38,39
 520 255 520 255 505.5 272 c 128,-1,40
 491 289 491 289 465 289 c 0,41,42
 444 289 444 289 430 274.5 c 128,-1,43
 416 260 416 260 416 238 c 0,44,45
 416 218 416 218 428 206.5 c 128,-1,46
 440 195 440 195 460 195 c 1,47,48
 458 184 458 184 448.5 176.5 c 128,-1,49
 439 169 439 169 424 169 c 0,50,51
 402 169 402 169 387.5 186 c 128,-1,52
 373 203 373 203 373 229 c 0,53,54
 373 265 373 265 401 288.5 c 128,-1,55
 429 312 429 312 472 312 c 0,56,57
 517 312 517 312 545 288 c 128,-1,58
 573 264 573 264 573 226 c 0,59,60
 573 201 573 201 562 177.5 c 128,-1,61
 551 154 551 154 532 131.5 c 128,-1,62
 513 109 513 109 487 87 c 128,-1,63
 461 65 461 65 432 43 c 1,64,-1
 432 39 l 1,25,-1
EndSplineSet
Ligature2: "'frac' Diagonal Fractions in Latin lookup 2 subtable" one slash two
Ligature2: "'frac' Diagonal Fractions in Latin lookup 2 subtable" one fraction two
EndChar

StartChar: threequarters
Encoding: 190 190 128
Width: 671
GlyphClass: 1
Flags: W
LayerCount: 2
Fore
SplineSet
95 0 m 1,0,-1
 38 0 l 1,1,-1
 591 770 l 1,2,-1
 639 770 l 1,3,-1
 95 0 l 1,0,-1
360 97 m 1,4,-1
 501 312 l 1,5,-1
 523 312 l 1,6,-1
 523 96 l 1,7,8
 548 97 548 97 554 103 c 128,-1,9
 560 109 560 109 560 132 c 1,10,-1
 579 132 l 1,11,-1
 579 38 l 1,12,-1
 560 38 l 1,13,14
 560 60 560 60 554 66 c 128,-1,15
 548 72 548 72 523 73 c 1,16,-1
 523 65 l 2,17,18
 523 34 523 34 529 25 c 128,-1,19
 535 16 535 16 555 15 c 1,20,-1
 555 0 l 1,21,-1
 432 0 l 1,22,-1
 432 15 l 1,23,24
 459 17 459 17 466.5 25 c 128,-1,25
 474 33 474 33 474 62 c 2,26,-1
 474 72 l 1,27,-1
 360 72 l 1,28,-1
 360 97 l 1,4,-1
474 227 m 1,29,-1
 470 227 l 1,30,-1
 385 97 l 1,31,-1
 474 97 l 1,32,-1
 474 227 l 1,29,-1
241 554 m 0,33,34
 241 586 241 586 227.5 603.5 c 128,-1,35
 214 621 214 621 190 621 c 1,36,37
 176 614 176 614 163 614 c 0,38,39
 145 614 145 614 145 630 c 0,40,41
 145 644 145 644 162 644 c 0,42,43
 174 644 174 644 187 639 c 1,44,45
 208 639 208 639 221 657.5 c 128,-1,46
 234 676 234 676 234 707 c 0,47,48
 234 758 234 758 187 758 c 0,49,50
 147 758 147 758 147 727 c 0,51,52
 147 716 147 716 154.5 708.5 c 128,-1,53
 162 701 162 701 175 701 c 1,54,55
 173 693 173 693 163.5 687 c 128,-1,56
 154 681 154 681 142 681 c 0,57,58
 125 681 125 681 113.5 693.5 c 128,-1,59
 102 706 102 706 102 724 c 0,60,61
 102 750 102 750 125.5 765 c 128,-1,62
 149 780 149 780 187 780 c 0,63,64
 233 780 233 780 260 760.5 c 128,-1,65
 287 741 287 741 287 709 c 0,66,67
 287 682 287 682 268.5 661.5 c 128,-1,68
 250 641 250 641 222 635 c 1,69,-1
 222 631 l 1,70,71
 254 623 254 623 275.5 602 c 128,-1,72
 297 581 297 581 297 551 c 0,73,74
 297 513 297 513 265.5 488.5 c 128,-1,75
 234 464 234 464 186 464 c 0,76,77
 144 464 144 464 117 484 c 128,-1,78
 90 504 90 504 90 535 c 0,79,80
 90 557 90 557 103 571.5 c 128,-1,81
 116 586 116 586 136 586 c 0,82,83
 149 586 149 586 159.5 579.5 c 128,-1,84
 170 573 170 573 172 563 c 1,85,86
 157 563 157 563 147 553.5 c 128,-1,87
 137 544 137 544 137 529 c 0,88,89
 137 511 137 511 150.5 499.5 c 128,-1,90
 164 488 164 488 185 488 c 0,91,92
 241 488 241 488 241 554 c 0,33,34
EndSplineSet
Ligature2: "'frac' Diagonal Fractions in Latin lookup 2 subtable" three slash four
Ligature2: "'frac' Diagonal Fractions in Latin lookup 2 subtable" three fraction four
EndChar

StartChar: questiondown
Encoding: 191 191 129
Width: 399
GlyphClass: 1
Flags: W
LayerCount: 2
Fore
SplineSet
274 533 m 1,0,-1
 274 304 l 1,1,-1
 245 304 l 2,2,3
 115 304 115 304 115 205 c 0,4,5
 115 181 115 181 122 160 c 128,-1,6
 129 139 129 139 140.5 123 c 128,-1,7
 152 107 152 107 168 98 c 128,-1,8
 184 89 184 89 202 89 c 256,9,10
 220 89 220 89 240 94.5 c 128,-1,11
 260 100 260 100 277 100 c 0,12,13
 300 100 300 100 315 85 c 128,-1,14
 330 70 330 70 330 46 c 0,15,16
 330 -10 330 -10 268 -10 c 0,17,18
 227 -10 227 -10 189 10.5 c 128,-1,19
 151 31 151 31 122 65.5 c 128,-1,20
 93 100 93 100 75.5 145.5 c 128,-1,21
 58 191 58 191 58 240 c 0,22,23
 58 316 58 316 100 358 c 128,-1,24
 142 400 142 400 219 400 c 1,25,-1
 219 533 l 1,26,-1
 274 533 l 1,0,-1
315 715 m 0,27,28
 315 687 315 687 296 668 c 128,-1,29
 277 649 277 649 250 649 c 0,30,31
 222 649 222 649 203 668 c 128,-1,32
 184 687 184 687 184 715 c 0,33,34
 184 742 184 742 203 761 c 128,-1,35
 222 780 222 780 250 780 c 0,36,37
 277 780 277 780 296 761 c 128,-1,38
 315 742 315 742 315 715 c 0,27,28
EndSplineSet
EndChar

StartChar: Agrave
Encoding: 192 192 130
Width: 772
GlyphClass: 1
Flags: W
LayerCount: 2
Fore
SplineSet
488 279 m 1,0,-1
 221 279 l 1,1,2
 204 238 204 238 192 206.5 c 128,-1,3
 180 175 180 175 172.5 152 c 128,-1,4
 165 129 165 129 162 113 c 128,-1,5
 159 97 159 97 159 87 c 0,6,7
 159 59 159 59 177 48.5 c 128,-1,8
 195 38 195 38 237 38 c 1,9,-1
 237 0 l 1,10,-1
 -6 0 l 1,11,-1
 -6 38 l 1,12,13
 17 41 17 41 33.5 46 c 128,-1,14
 50 51 50 51 62.5 60 c 128,-1,15
 75 69 75 69 84.5 83.5 c 128,-1,16
 94 98 94 98 103 119 c 2,17,-1
 363 770 l 1,18,-1
 406 770 l 1,19,-1
 633 206 l 2,20,21
 656 150 656 150 673 116.5 c 128,-1,22
 690 83 690 83 706 66 c 128,-1,23
 722 49 722 49 740.5 44 c 128,-1,24
 759 39 759 39 785 39 c 1,25,-1
 785 0 l 1,26,-1
 459 0 l 1,27,-1
 459 39 l 1,28,29
 512 39 512 39 532 49 c 128,-1,30
 552 59 552 59 552 82 c 0,31,32
 552 92 552 92 551 100.5 c 128,-1,33
 550 109 550 109 547.5 119 c 128,-1,34
 545 129 545 129 540.5 141.5 c 128,-1,35
 536 154 536 154 529 171 c 2,36,-1
 488 279 l 1,0,-1
241 329 m 1,37,-1
 469 329 l 1,38,-1
 358 624 l 1,39,-1
 241 329 l 1,37,-1
429 850 m 1,40,-1
 309 878 l 2,41,42
 275 886 275 886 254.5 897.5 c 128,-1,43
 234 909 234 909 234 925 c 0,44,45
 234 942 234 942 244.5 951 c 128,-1,46
 255 960 255 960 272 960 c 0,47,48
 292 960 292 960 311.5 952 c 128,-1,49
 331 944 331 944 359 927 c 2,50,-1
 489 850 l 1,51,-1
 429 850 l 1,40,-1
EndSplineSet
EndChar

StartChar: Aacute
Encoding: 193 193 131
Width: 772
GlyphClass: 1
Flags: W
LayerCount: 2
Fore
SplineSet
488 279 m 1,0,-1
 221 279 l 1,1,2
 204 238 204 238 192 206.5 c 128,-1,3
 180 175 180 175 172.5 152 c 128,-1,4
 165 129 165 129 162 113 c 128,-1,5
 159 97 159 97 159 87 c 0,6,7
 159 59 159 59 177 48.5 c 128,-1,8
 195 38 195 38 237 38 c 1,9,-1
 237 0 l 1,10,-1
 -6 0 l 1,11,-1
 -6 38 l 1,12,13
 17 41 17 41 33.5 46 c 128,-1,14
 50 51 50 51 62.5 60 c 128,-1,15
 75 69 75 69 84.5 83.5 c 128,-1,16
 94 98 94 98 103 119 c 2,17,-1
 363 770 l 1,18,-1
 406 770 l 1,19,-1
 633 206 l 2,20,21
 656 150 656 150 673 116.5 c 128,-1,22
 690 83 690 83 706 66 c 128,-1,23
 722 49 722 49 740.5 44 c 128,-1,24
 759 39 759 39 785 39 c 1,25,-1
 785 0 l 1,26,-1
 459 0 l 1,27,-1
 459 39 l 1,28,29
 512 39 512 39 532 49 c 128,-1,30
 552 59 552 59 552 82 c 0,31,32
 552 92 552 92 551 100.5 c 128,-1,33
 550 109 550 109 547.5 119 c 128,-1,34
 545 129 545 129 540.5 141.5 c 128,-1,35
 536 154 536 154 529 171 c 2,36,-1
 488 279 l 1,0,-1
241 329 m 1,37,-1
 469 329 l 1,38,-1
 358 624 l 1,39,-1
 241 329 l 1,37,-1
283 850 m 1,40,-1
 413 927 l 2,41,42
 441 944 441 944 460.5 952 c 128,-1,43
 480 960 480 960 500 960 c 0,44,45
 517 960 517 960 527.5 951 c 128,-1,46
 538 942 538 942 538 925 c 0,47,48
 538 909 538 909 517.5 897.5 c 128,-1,49
 497 886 497 886 463 878 c 2,50,-1
 343 850 l 1,51,-1
 283 850 l 1,40,-1
EndSplineSet
EndChar

StartChar: Acircumflex
Encoding: 194 194 132
Width: 772
GlyphClass: 1
Flags: W
LayerCount: 2
Fore
SplineSet
488 279 m 1,0,-1
 221 279 l 1,1,2
 204 238 204 238 192 206.5 c 128,-1,3
 180 175 180 175 172.5 152 c 128,-1,4
 165 129 165 129 162 113 c 128,-1,5
 159 97 159 97 159 87 c 0,6,7
 159 59 159 59 177 48.5 c 128,-1,8
 195 38 195 38 237 38 c 1,9,-1
 237 0 l 1,10,-1
 -6 0 l 1,11,-1
 -6 38 l 1,12,13
 17 41 17 41 33.5 46 c 128,-1,14
 50 51 50 51 62.5 60 c 128,-1,15
 75 69 75 69 84.5 83.5 c 128,-1,16
 94 98 94 98 103 119 c 2,17,-1
 363 770 l 1,18,-1
 406 770 l 1,19,-1
 633 206 l 2,20,21
 656 150 656 150 673 116.5 c 128,-1,22
 690 83 690 83 706 66 c 128,-1,23
 722 49 722 49 740.5 44 c 128,-1,24
 759 39 759 39 785 39 c 1,25,-1
 785 0 l 1,26,-1
 459 0 l 1,27,-1
 459 39 l 1,28,29
 512 39 512 39 532 49 c 128,-1,30
 552 59 552 59 552 82 c 0,31,32
 552 92 552 92 551 100.5 c 128,-1,33
 550 109 550 109 547.5 119 c 128,-1,34
 545 129 545 129 540.5 141.5 c 128,-1,35
 536 154 536 154 529 171 c 2,36,-1
 488 279 l 1,0,-1
241 329 m 1,37,-1
 469 329 l 1,38,-1
 358 624 l 1,39,-1
 241 329 l 1,37,-1
438 960 m 1,40,-1
 547 851 l 1,41,-1
 502 851 l 1,42,-1
 383 905 l 1,43,-1
 264 851 l 1,44,-1
 219 851 l 1,45,-1
 328 960 l 1,46,-1
 438 960 l 1,40,-1
EndSplineSet
EndChar

StartChar: Atilde
Encoding: 195 195 133
Width: 772
GlyphClass: 1
Flags: W
LayerCount: 2
Fore
SplineSet
488 279 m 1,0,-1
 221 279 l 1,1,2
 204 238 204 238 192 206.5 c 128,-1,3
 180 175 180 175 172.5 152 c 128,-1,4
 165 129 165 129 162 113 c 128,-1,5
 159 97 159 97 159 87 c 0,6,7
 159 59 159 59 177 48.5 c 128,-1,8
 195 38 195 38 237 38 c 1,9,-1
 237 0 l 1,10,-1
 -6 0 l 1,11,-1
 -6 38 l 1,12,13
 17 41 17 41 33.5 46 c 128,-1,14
 50 51 50 51 62.5 60 c 128,-1,15
 75 69 75 69 84.5 83.5 c 128,-1,16
 94 98 94 98 103 119 c 2,17,-1
 363 770 l 1,18,-1
 406 770 l 1,19,-1
 633 206 l 2,20,21
 656 150 656 150 673 116.5 c 128,-1,22
 690 83 690 83 706 66 c 128,-1,23
 722 49 722 49 740.5 44 c 128,-1,24
 759 39 759 39 785 39 c 1,25,-1
 785 0 l 1,26,-1
 459 0 l 1,27,-1
 459 39 l 1,28,29
 512 39 512 39 532 49 c 128,-1,30
 552 59 552 59 552 82 c 0,31,32
 552 92 552 92 551 100.5 c 128,-1,33
 550 109 550 109 547.5 119 c 128,-1,34
 545 129 545 129 540.5 141.5 c 128,-1,35
 536 154 536 154 529 171 c 2,36,-1
 488 279 l 1,0,-1
241 329 m 1,37,-1
 469 329 l 1,38,-1
 358 624 l 1,39,-1
 241 329 l 1,37,-1
212 846 m 1,40,41
 220 897 220 897 249.5 928.5 c 128,-1,42
 279 960 279 960 318 960 c 0,43,44
 338 960 338 960 357.5 953 c 128,-1,45
 377 946 377 946 396.5 937 c 128,-1,46
 416 928 416 928 435 921 c 128,-1,47
 454 914 454 914 473 914 c 256,48,49
 492 914 492 914 502 923.5 c 128,-1,50
 512 933 512 933 520 956 c 1,51,-1
 553 956 l 1,52,53
 548 905 548 905 519.5 871.5 c 128,-1,54
 491 838 491 838 453 838 c 0,55,56
 433 838 433 838 413 845.5 c 128,-1,57
 393 853 393 853 372.5 862 c 128,-1,58
 352 871 352 871 331.5 878.5 c 128,-1,59
 311 886 311 886 291 886 c 0,60,61
 272 886 272 886 262.5 877.5 c 128,-1,62
 253 869 253 869 246 846 c 1,63,-1
 212 846 l 1,40,41
EndSplineSet
EndChar

StartChar: Adieresis
Encoding: 196 196 134
Width: 772
GlyphClass: 1
Flags: W
LayerCount: 2
Fore
SplineSet
488 279 m 1,0,-1
 221 279 l 1,1,2
 204 238 204 238 192 206.5 c 128,-1,3
 180 175 180 175 172.5 152 c 128,-1,4
 165 129 165 129 162 113 c 128,-1,5
 159 97 159 97 159 87 c 0,6,7
 159 59 159 59 177 48.5 c 128,-1,8
 195 38 195 38 237 38 c 1,9,-1
 237 0 l 1,10,-1
 -6 0 l 1,11,-1
 -6 38 l 1,12,13
 17 41 17 41 33.5 46 c 128,-1,14
 50 51 50 51 62.5 60 c 128,-1,15
 75 69 75 69 84.5 83.5 c 128,-1,16
 94 98 94 98 103 119 c 2,17,-1
 363 770 l 1,18,-1
 406 770 l 1,19,-1
 633 206 l 2,20,21
 656 150 656 150 673 116.5 c 128,-1,22
 690 83 690 83 706 66 c 128,-1,23
 722 49 722 49 740.5 44 c 128,-1,24
 759 39 759 39 785 39 c 1,25,-1
 785 0 l 1,26,-1
 459 0 l 1,27,-1
 459 39 l 1,28,29
 512 39 512 39 532 49 c 128,-1,30
 552 59 552 59 552 82 c 0,31,32
 552 92 552 92 551 100.5 c 128,-1,33
 550 109 550 109 547.5 119 c 128,-1,34
 545 129 545 129 540.5 141.5 c 128,-1,35
 536 154 536 154 529 171 c 2,36,-1
 488 279 l 1,0,-1
241 329 m 1,37,-1
 469 329 l 1,38,-1
 358 624 l 1,39,-1
 241 329 l 1,37,-1
242 910 m 0,40,41
 242 931 242 931 256.5 945.5 c 128,-1,42
 271 960 271 960 292 960 c 0,43,44
 314 960 314 960 328.5 945.5 c 128,-1,45
 343 931 343 931 343 910 c 0,46,47
 343 888 343 888 328.5 873.5 c 128,-1,48
 314 859 314 859 292 859 c 0,49,50
 271 859 271 859 256.5 873.5 c 128,-1,51
 242 888 242 888 242 910 c 0,40,41
424 910 m 0,52,53
 424 931 424 931 438.5 945.5 c 128,-1,54
 453 960 453 960 475 960 c 0,55,56
 496 960 496 960 510.5 945.5 c 128,-1,57
 525 931 525 931 525 910 c 0,58,59
 525 888 525 888 510.5 873.5 c 128,-1,60
 496 859 496 859 475 859 c 0,61,62
 453 859 453 859 438.5 873.5 c 128,-1,63
 424 888 424 888 424 910 c 0,52,53
EndSplineSet
EndChar

StartChar: Aring
Encoding: 197 197 135
Width: 772
GlyphClass: 1
Flags: W
LayerCount: 2
Fore
SplineSet
488 279 m 1,0,-1
 221 279 l 1,1,2
 204 238 204 238 192 206.5 c 128,-1,3
 180 175 180 175 172.5 152 c 128,-1,4
 165 129 165 129 162 113 c 128,-1,5
 159 97 159 97 159 87 c 0,6,7
 159 59 159 59 177 48.5 c 128,-1,8
 195 38 195 38 237 38 c 1,9,-1
 237 0 l 1,10,-1
 -6 0 l 1,11,-1
 -6 38 l 1,12,13
 17 41 17 41 33.5 46 c 128,-1,14
 50 51 50 51 62.5 60 c 128,-1,15
 75 69 75 69 84.5 83.5 c 128,-1,16
 94 98 94 98 103 119 c 2,17,-1
 363 770 l 1,18,-1
 406 770 l 1,19,-1
 633 206 l 2,20,21
 656 150 656 150 673 116.5 c 128,-1,22
 690 83 690 83 706 66 c 128,-1,23
 722 49 722 49 740.5 44 c 128,-1,24
 759 39 759 39 785 39 c 1,25,-1
 785 0 l 1,26,-1
 459 0 l 1,27,-1
 459 39 l 1,28,29
 512 39 512 39 532 49 c 128,-1,30
 552 59 552 59 552 82 c 0,31,32
 552 92 552 92 551 100.5 c 128,-1,33
 550 109 550 109 547.5 119 c 128,-1,34
 545 129 545 129 540.5 141.5 c 128,-1,35
 536 154 536 154 529 171 c 2,36,-1
 488 279 l 1,0,-1
241 329 m 1,37,-1
 469 329 l 1,38,-1
 358 624 l 1,39,-1
 241 329 l 1,37,-1
318 895 m 256,40,41
 318 923 318 923 336.5 941.5 c 128,-1,42
 355 960 355 960 383 960 c 256,43,44
 411 960 411 960 429.5 941.5 c 128,-1,45
 448 923 448 923 448 895 c 256,46,47
 448 867 448 867 429.5 848.5 c 128,-1,48
 411 830 411 830 383 830 c 256,49,50
 355 830 355 830 336.5 848.5 c 128,-1,51
 318 867 318 867 318 895 c 256,40,41
349 895 m 0,52,53
 349 880 349 880 358.5 870.5 c 128,-1,54
 368 861 368 861 383 861 c 0,55,56
 397 861 397 861 406.5 870.5 c 128,-1,57
 416 880 416 880 416 895 c 0,58,59
 416 909 416 909 406.5 918.5 c 128,-1,60
 397 928 397 928 383 928 c 0,61,62
 368 928 368 928 358.5 918.5 c 128,-1,63
 349 909 349 909 349 895 c 0,52,53
EndSplineSet
EndChar

StartChar: AE
Encoding: 198 198 136
Width: 1051
GlyphClass: 1
Flags: W
LayerCount: 2
Fore
SplineSet
370 38 m 1,0,1
 405 39 405 39 426.5 44 c 128,-1,2
 448 49 448 49 460 61 c 128,-1,3
 472 73 472 73 476 95 c 128,-1,4
 480 117 480 117 480 152 c 2,5,-1
 480 284 l 1,6,-1
 249 284 l 1,7,-1
 245 275 l 2,8,9
 230 246 230 246 214.5 217.5 c 128,-1,10
 199 189 199 189 186.5 163.5 c 128,-1,11
 174 138 174 138 166 116 c 128,-1,12
 158 94 158 94 158 78 c 0,13,14
 158 63 158 63 165 55.5 c 128,-1,15
 172 48 172 48 182.5 44.5 c 128,-1,16
 193 41 193 41 206 40 c 128,-1,17
 219 39 219 39 231 38 c 1,18,-1
 231 0 l 1,19,-1
 -11 0 l 1,20,-1
 -11 38 l 1,21,22
 12 41 12 41 28 46 c 128,-1,23
 44 51 44 51 56.5 60 c 128,-1,24
 69 69 69 69 79.5 83.5 c 128,-1,25
 90 98 90 98 102 119 c 0,26,27
 111 136 111 136 121.5 153.5 c 128,-1,28
 132 171 132 171 146 197 c 128,-1,29
 160 223 160 223 180.5 261 c 128,-1,30
 201 299 201 299 231 356 c 128,-1,31
 261 413 261 413 303 493 c 128,-1,32
 345 573 345 573 402 684 c 0,33,34
 405 691 405 691 407 696.5 c 128,-1,35
 409 702 409 702 409 707 c 0,36,37
 409 721 409 721 390.5 726.5 c 128,-1,38
 372 732 372 732 326 732 c 1,39,-1
 326 770 l 1,40,-1
 962 770 l 1,41,-1
 962 594 l 1,42,-1
 927 594 l 1,43,44
 921 634 921 634 908.5 659.5 c 128,-1,45
 896 685 896 685 873 700 c 128,-1,46
 850 715 850 715 815 721 c 128,-1,47
 780 727 780 727 729 727 c 2,48,-1
 602 727 l 2,49,50
 585 727 585 727 585 710 c 2,51,-1
 585 423 l 1,52,53
 633 423 633 423 667.5 428 c 128,-1,54
 702 433 702 433 724.5 445.5 c 128,-1,55
 747 458 747 458 759 480.5 c 128,-1,56
 771 503 771 503 774 538 c 1,57,-1
 809 538 l 1,58,-1
 809 265 l 1,59,-1
 774 265 l 1,60,61
 769 300 769 300 758 323 c 128,-1,62
 747 346 747 346 725.5 359 c 128,-1,63
 704 372 704 372 670 377.5 c 128,-1,64
 636 383 636 383 585 383 c 1,65,-1
 585 157 l 2,66,67
 585 124 585 124 593 102.5 c 128,-1,68
 601 81 601 81 620.5 67.5 c 128,-1,69
 640 54 640 54 672 48.5 c 128,-1,70
 704 43 704 43 751 43 c 0,71,72
 804 43 804 43 841 50.5 c 128,-1,73
 878 58 878 58 903 76 c 128,-1,74
 928 94 928 94 943 123.5 c 128,-1,75
 958 153 958 153 968 197 c 1,76,-1
 1006 197 l 1,77,-1
 991 0 l 1,78,-1
 370 0 l 1,79,-1
 370 38 l 1,0,1
480 329 m 1,80,-1
 480 721 l 1,81,-1
 273 329 l 1,82,-1
 480 329 l 1,80,-1
EndSplineSet
EndChar

StartChar: Ccedilla
Encoding: 199 199 137
Width: 802
GlyphClass: 1
Flags: W
LayerCount: 2
Fore
SplineSet
689 770 m 1,0,-1
 717 770 l 1,1,-1
 726 540 l 1,2,-1
 689 540 l 1,3,4
 667 628 667 628 604 678 c 128,-1,5
 541 728 541 728 452 728 c 0,6,7
 391 728 391 728 343 704 c 128,-1,8
 295 680 295 680 262 635 c 128,-1,9
 229 590 229 590 211.5 525 c 128,-1,10
 194 460 194 460 194 378 c 0,11,12
 194 217 194 217 261 130.5 c 128,-1,13
 328 44 328 44 455 44 c 0,14,15
 648 44 648 44 703 249 c 1,16,-1
 744 249 l 1,17,-1
 744 0 l 1,18,-1
 709 0 l 1,19,-1
 686 79 l 1,20,21
 586 -4 586 -4 451 -9 c 1,22,-1
 428 -72 l 1,23,24
 552 -72 552 -72 552 -158 c 0,25,26
 552 -206 552 -206 518 -233 c 128,-1,27
 484 -260 484 -260 426 -260 c 0,28,29
 375 -260 375 -260 343 -239 c 128,-1,30
 311 -218 311 -218 311 -184 c 0,31,32
 311 -148 311 -148 342 -148 c 0,33,34
 353 -148 353 -148 359.5 -154.5 c 128,-1,35
 366 -161 366 -161 375 -180 c 0,36,37
 384 -201 384 -201 393.5 -209 c 128,-1,38
 403 -217 403 -217 420 -217 c 0,39,40
 442 -217 442 -217 456 -203.5 c 128,-1,41
 470 -190 470 -190 470 -167 c 0,42,43
 470 -113 470 -113 391 -113 c 0,44,45
 383 -113 383 -113 373.5 -113.5 c 128,-1,46
 364 -114 364 -114 356 -115 c 1,47,-1
 353 -110 l 1,48,-1
 397 -9 l 1,49,50
 320 -4 320 -4 257.5 25 c 128,-1,51
 195 54 195 54 151 103.5 c 128,-1,52
 107 153 107 153 83.5 221 c 128,-1,53
 60 289 60 289 60 372 c 0,54,55
 60 463 60 463 88 538 c 128,-1,56
 116 613 116 613 166.5 667 c 128,-1,57
 217 721 217 721 287.5 750.5 c 128,-1,58
 358 780 358 780 443 780 c 0,59,60
 503 780 503 780 556 763 c 128,-1,61
 609 746 609 746 671 708 c 1,62,-1
 689 770 l 1,0,-1
EndSplineSet
EndChar

StartChar: Egrave
Encoding: 200 200 138
Width: 726
GlyphClass: 1
Flags: W
LayerCount: 2
Fore
SplineSet
260 423 m 1,0,1
 314 423 314 423 350.5 429.5 c 128,-1,2
 387 436 387 436 408.5 450 c 128,-1,3
 430 464 430 464 439.5 486 c 128,-1,4
 449 508 449 508 449 538 c 1,5,-1
 484 538 l 1,6,-1
 484 265 l 1,7,-1
 449 265 l 1,8,9
 449 295 449 295 440.5 317 c 128,-1,10
 432 339 432 339 410.5 353.5 c 128,-1,11
 389 368 389 368 352.5 375.5 c 128,-1,12
 316 383 316 383 260 383 c 1,13,-1
 260 157 l 2,14,15
 260 124 260 124 268 102.5 c 128,-1,16
 276 81 276 81 295.5 67.5 c 128,-1,17
 315 54 315 54 347 48.5 c 128,-1,18
 379 43 379 43 426 43 c 0,19,20
 479 43 479 43 516 50.5 c 128,-1,21
 553 58 553 58 578 76 c 128,-1,22
 603 94 603 94 618 123.5 c 128,-1,23
 633 153 633 153 643 197 c 1,24,-1
 681 197 l 1,25,-1
 666 0 l 1,26,-1
 45 0 l 1,27,-1
 45 38 l 1,28,29
 80 39 80 39 101.5 44 c 128,-1,30
 123 49 123 49 135 61 c 128,-1,31
 147 73 147 73 151 95 c 128,-1,32
 155 117 155 117 155 152 c 2,33,-1
 155 618 l 2,34,35
 155 653 155 653 151.5 674.5 c 128,-1,36
 148 696 148 696 137.5 708.5 c 128,-1,37
 127 721 127 721 107 725.5 c 128,-1,38
 87 730 87 730 55 732 c 1,39,-1
 55 770 l 1,40,-1
 633 770 l 1,41,-1
 642 594 l 1,42,-1
 607 594 l 1,43,44
 601 634 601 634 587.5 659.5 c 128,-1,45
 574 685 574 685 550.5 700 c 128,-1,46
 527 715 527 715 491 721 c 128,-1,47
 455 727 455 727 404 727 c 2,48,-1
 277 727 l 2,49,50
 260 727 260 727 260 710 c 2,51,-1
 260 423 l 1,0,1
425 850 m 1,52,-1
 305 878 l 2,53,54
 271 886 271 886 250.5 897.5 c 128,-1,55
 230 909 230 909 230 925 c 0,56,57
 230 942 230 942 240.5 951 c 128,-1,58
 251 960 251 960 268 960 c 0,59,60
 288 960 288 960 307.5 952 c 128,-1,61
 327 944 327 944 355 927 c 2,62,-1
 485 850 l 1,63,-1
 425 850 l 1,52,-1
EndSplineSet
EndChar

StartChar: Eacute
Encoding: 201 201 139
Width: 726
GlyphClass: 1
Flags: W
LayerCount: 2
Fore
SplineSet
260 423 m 1,0,1
 314 423 314 423 350.5 429.5 c 128,-1,2
 387 436 387 436 408.5 450 c 128,-1,3
 430 464 430 464 439.5 486 c 128,-1,4
 449 508 449 508 449 538 c 1,5,-1
 484 538 l 1,6,-1
 484 265 l 1,7,-1
 449 265 l 1,8,9
 449 295 449 295 440.5 317 c 128,-1,10
 432 339 432 339 410.5 353.5 c 128,-1,11
 389 368 389 368 352.5 375.5 c 128,-1,12
 316 383 316 383 260 383 c 1,13,-1
 260 157 l 2,14,15
 260 124 260 124 268 102.5 c 128,-1,16
 276 81 276 81 295.5 67.5 c 128,-1,17
 315 54 315 54 347 48.5 c 128,-1,18
 379 43 379 43 426 43 c 0,19,20
 479 43 479 43 516 50.5 c 128,-1,21
 553 58 553 58 578 76 c 128,-1,22
 603 94 603 94 618 123.5 c 128,-1,23
 633 153 633 153 643 197 c 1,24,-1
 681 197 l 1,25,-1
 666 0 l 1,26,-1
 45 0 l 1,27,-1
 45 38 l 1,28,29
 80 39 80 39 101.5 44 c 128,-1,30
 123 49 123 49 135 61 c 128,-1,31
 147 73 147 73 151 95 c 128,-1,32
 155 117 155 117 155 152 c 2,33,-1
 155 618 l 2,34,35
 155 653 155 653 151.5 674.5 c 128,-1,36
 148 696 148 696 137.5 708.5 c 128,-1,37
 127 721 127 721 107 725.5 c 128,-1,38
 87 730 87 730 55 732 c 1,39,-1
 55 770 l 1,40,-1
 633 770 l 1,41,-1
 642 594 l 1,42,-1
 607 594 l 1,43,44
 601 634 601 634 587.5 659.5 c 128,-1,45
 574 685 574 685 550.5 700 c 128,-1,46
 527 715 527 715 491 721 c 128,-1,47
 455 727 455 727 404 727 c 2,48,-1
 277 727 l 2,49,50
 260 727 260 727 260 710 c 2,51,-1
 260 423 l 1,0,1
279 850 m 1,52,-1
 409 927 l 2,53,54
 437 944 437 944 456.5 952 c 128,-1,55
 476 960 476 960 496 960 c 0,56,57
 513 960 513 960 523.5 951 c 128,-1,58
 534 942 534 942 534 925 c 0,59,60
 534 909 534 909 513.5 897.5 c 128,-1,61
 493 886 493 886 459 878 c 2,62,-1
 339 850 l 1,63,-1
 279 850 l 1,52,-1
EndSplineSet
EndChar

StartChar: Ecircumflex
Encoding: 202 202 140
Width: 726
GlyphClass: 1
Flags: W
LayerCount: 2
Fore
SplineSet
260 423 m 1,0,1
 314 423 314 423 350.5 429.5 c 128,-1,2
 387 436 387 436 408.5 450 c 128,-1,3
 430 464 430 464 439.5 486 c 128,-1,4
 449 508 449 508 449 538 c 1,5,-1
 484 538 l 1,6,-1
 484 265 l 1,7,-1
 449 265 l 1,8,9
 449 295 449 295 440.5 317 c 128,-1,10
 432 339 432 339 410.5 353.5 c 128,-1,11
 389 368 389 368 352.5 375.5 c 128,-1,12
 316 383 316 383 260 383 c 1,13,-1
 260 157 l 2,14,15
 260 124 260 124 268 102.5 c 128,-1,16
 276 81 276 81 295.5 67.5 c 128,-1,17
 315 54 315 54 347 48.5 c 128,-1,18
 379 43 379 43 426 43 c 0,19,20
 479 43 479 43 516 50.5 c 128,-1,21
 553 58 553 58 578 76 c 128,-1,22
 603 94 603 94 618 123.5 c 128,-1,23
 633 153 633 153 643 197 c 1,24,-1
 681 197 l 1,25,-1
 666 0 l 1,26,-1
 45 0 l 1,27,-1
 45 38 l 1,28,29
 80 39 80 39 101.5 44 c 128,-1,30
 123 49 123 49 135 61 c 128,-1,31
 147 73 147 73 151 95 c 128,-1,32
 155 117 155 117 155 152 c 2,33,-1
 155 618 l 2,34,35
 155 653 155 653 151.5 674.5 c 128,-1,36
 148 696 148 696 137.5 708.5 c 128,-1,37
 127 721 127 721 107 725.5 c 128,-1,38
 87 730 87 730 55 732 c 1,39,-1
 55 770 l 1,40,-1
 633 770 l 1,41,-1
 642 594 l 1,42,-1
 607 594 l 1,43,44
 601 634 601 634 587.5 659.5 c 128,-1,45
 574 685 574 685 550.5 700 c 128,-1,46
 527 715 527 715 491 721 c 128,-1,47
 455 727 455 727 404 727 c 2,48,-1
 277 727 l 2,49,50
 260 727 260 727 260 710 c 2,51,-1
 260 423 l 1,0,1
434 960 m 1,52,-1
 543 851 l 1,53,-1
 498 851 l 1,54,-1
 379 905 l 1,55,-1
 260 851 l 1,56,-1
 215 851 l 1,57,-1
 324 960 l 1,58,-1
 434 960 l 1,52,-1
EndSplineSet
EndChar

StartChar: Edieresis
Encoding: 203 203 141
Width: 726
GlyphClass: 1
Flags: W
LayerCount: 2
Fore
SplineSet
260 423 m 1,0,1
 314 423 314 423 350.5 429.5 c 128,-1,2
 387 436 387 436 408.5 450 c 128,-1,3
 430 464 430 464 439.5 486 c 128,-1,4
 449 508 449 508 449 538 c 1,5,-1
 484 538 l 1,6,-1
 484 265 l 1,7,-1
 449 265 l 1,8,9
 449 295 449 295 440.5 317 c 128,-1,10
 432 339 432 339 410.5 353.5 c 128,-1,11
 389 368 389 368 352.5 375.5 c 128,-1,12
 316 383 316 383 260 383 c 1,13,-1
 260 157 l 2,14,15
 260 124 260 124 268 102.5 c 128,-1,16
 276 81 276 81 295.5 67.5 c 128,-1,17
 315 54 315 54 347 48.5 c 128,-1,18
 379 43 379 43 426 43 c 0,19,20
 479 43 479 43 516 50.5 c 128,-1,21
 553 58 553 58 578 76 c 128,-1,22
 603 94 603 94 618 123.5 c 128,-1,23
 633 153 633 153 643 197 c 1,24,-1
 681 197 l 1,25,-1
 666 0 l 1,26,-1
 45 0 l 1,27,-1
 45 38 l 1,28,29
 80 39 80 39 101.5 44 c 128,-1,30
 123 49 123 49 135 61 c 128,-1,31
 147 73 147 73 151 95 c 128,-1,32
 155 117 155 117 155 152 c 2,33,-1
 155 618 l 2,34,35
 155 653 155 653 151.5 674.5 c 128,-1,36
 148 696 148 696 137.5 708.5 c 128,-1,37
 127 721 127 721 107 725.5 c 128,-1,38
 87 730 87 730 55 732 c 1,39,-1
 55 770 l 1,40,-1
 633 770 l 1,41,-1
 642 594 l 1,42,-1
 607 594 l 1,43,44
 601 634 601 634 587.5 659.5 c 128,-1,45
 574 685 574 685 550.5 700 c 128,-1,46
 527 715 527 715 491 721 c 128,-1,47
 455 727 455 727 404 727 c 2,48,-1
 277 727 l 2,49,50
 260 727 260 727 260 710 c 2,51,-1
 260 423 l 1,0,1
224 910 m 0,52,53
 224 931 224 931 238.5 945.5 c 128,-1,54
 253 960 253 960 274 960 c 0,55,56
 296 960 296 960 310.5 945.5 c 128,-1,57
 325 931 325 931 325 910 c 0,58,59
 325 888 325 888 310.5 873.5 c 128,-1,60
 296 859 296 859 274 859 c 0,61,62
 253 859 253 859 238.5 873.5 c 128,-1,63
 224 888 224 888 224 910 c 0,52,53
406 910 m 0,64,65
 406 931 406 931 420.5 945.5 c 128,-1,66
 435 960 435 960 457 960 c 0,67,68
 478 960 478 960 492.5 945.5 c 128,-1,69
 507 931 507 931 507 910 c 0,70,71
 507 888 507 888 492.5 873.5 c 128,-1,72
 478 859 478 859 457 859 c 0,73,74
 435 859 435 859 420.5 873.5 c 128,-1,75
 406 888 406 888 406 910 c 0,64,65
EndSplineSet
EndChar

StartChar: Igrave
Encoding: 204 204 142
Width: 415
GlyphClass: 1
Flags: W
LayerCount: 2
Fore
SplineSet
260 189 m 2,0,1
 260 139 260 139 264 110 c 128,-1,2
 268 81 268 81 279.5 65 c 128,-1,3
 291 49 291 49 312.5 44 c 128,-1,4
 334 39 334 39 369 38 c 1,5,-1
 369 0 l 1,6,-1
 45 0 l 1,7,-1
 45 38 l 1,8,9
 80 39 80 39 101.5 44.5 c 128,-1,10
 123 50 123 50 135 65 c 128,-1,11
 147 80 147 80 151 107.5 c 128,-1,12
 155 135 155 135 155 182 c 2,13,-1
 155 588 l 2,14,15
 155 630 155 630 151.5 657.5 c 128,-1,16
 148 685 148 685 137.5 701 c 128,-1,17
 127 717 127 717 107 723.5 c 128,-1,18
 87 730 87 730 55 732 c 1,19,-1
 55 770 l 1,20,-1
 359 770 l 1,21,-1
 359 732 l 1,22,23
 327 731 327 731 307.5 724 c 128,-1,24
 288 717 288 717 277.5 700.5 c 128,-1,25
 267 684 267 684 263.5 655 c 128,-1,26
 260 626 260 626 260 581 c 2,27,-1
 260 189 l 2,0,1
252 850 m 1,28,-1
 132 878 l 2,29,30
 98 886 98 886 77.5 897.5 c 128,-1,31
 57 909 57 909 57 925 c 0,32,33
 57 942 57 942 67.5 951 c 128,-1,34
 78 960 78 960 95 960 c 0,35,36
 115 960 115 960 134.5 952 c 128,-1,37
 154 944 154 944 182 927 c 2,38,-1
 312 850 l 1,39,-1
 252 850 l 1,28,-1
EndSplineSet
EndChar

StartChar: Iacute
Encoding: 205 205 143
Width: 415
GlyphClass: 1
Flags: W
LayerCount: 2
Fore
SplineSet
260 189 m 2,0,1
 260 139 260 139 264 110 c 128,-1,2
 268 81 268 81 279.5 65 c 128,-1,3
 291 49 291 49 312.5 44 c 128,-1,4
 334 39 334 39 369 38 c 1,5,-1
 369 0 l 1,6,-1
 45 0 l 1,7,-1
 45 38 l 1,8,9
 80 39 80 39 101.5 44.5 c 128,-1,10
 123 50 123 50 135 65 c 128,-1,11
 147 80 147 80 151 107.5 c 128,-1,12
 155 135 155 135 155 182 c 2,13,-1
 155 588 l 2,14,15
 155 630 155 630 151.5 657.5 c 128,-1,16
 148 685 148 685 137.5 701 c 128,-1,17
 127 717 127 717 107 723.5 c 128,-1,18
 87 730 87 730 55 732 c 1,19,-1
 55 770 l 1,20,-1
 359 770 l 1,21,-1
 359 732 l 1,22,23
 327 731 327 731 307.5 724 c 128,-1,24
 288 717 288 717 277.5 700.5 c 128,-1,25
 267 684 267 684 263.5 655 c 128,-1,26
 260 626 260 626 260 581 c 2,27,-1
 260 189 l 2,0,1
106 850 m 1,28,-1
 236 927 l 2,29,30
 264 944 264 944 283.5 952 c 128,-1,31
 303 960 303 960 323 960 c 0,32,33
 340 960 340 960 350.5 951 c 128,-1,34
 361 942 361 942 361 925 c 0,35,36
 361 909 361 909 340.5 897.5 c 128,-1,37
 320 886 320 886 286 878 c 2,38,-1
 166 850 l 1,39,-1
 106 850 l 1,28,-1
EndSplineSet
EndChar

StartChar: Icircumflex
Encoding: 206 206 144
Width: 415
GlyphClass: 1
Flags: W
LayerCount: 2
Fore
SplineSet
260 189 m 2,0,1
 260 139 260 139 264 110 c 128,-1,2
 268 81 268 81 279.5 65 c 128,-1,3
 291 49 291 49 312.5 44 c 128,-1,4
 334 39 334 39 369 38 c 1,5,-1
 369 0 l 1,6,-1
 45 0 l 1,7,-1
 45 38 l 1,8,9
 80 39 80 39 101.5 44.5 c 128,-1,10
 123 50 123 50 135 65 c 128,-1,11
 147 80 147 80 151 107.5 c 128,-1,12
 155 135 155 135 155 182 c 2,13,-1
 155 588 l 2,14,15
 155 630 155 630 151.5 657.5 c 128,-1,16
 148 685 148 685 137.5 701 c 128,-1,17
 127 717 127 717 107 723.5 c 128,-1,18
 87 730 87 730 55 732 c 1,19,-1
 55 770 l 1,20,-1
 359 770 l 1,21,-1
 359 732 l 1,22,23
 327 731 327 731 307.5 724 c 128,-1,24
 288 717 288 717 277.5 700.5 c 128,-1,25
 267 684 267 684 263.5 655 c 128,-1,26
 260 626 260 626 260 581 c 2,27,-1
 260 189 l 2,0,1
261 960 m 1,28,-1
 370 851 l 1,29,-1
 325 851 l 1,30,-1
 206 905 l 1,31,-1
 87 851 l 1,32,-1
 42 851 l 1,33,-1
 151 960 l 1,34,-1
 261 960 l 1,28,-1
EndSplineSet
EndChar

StartChar: Idieresis
Encoding: 207 207 145
Width: 415
GlyphClass: 1
Flags: W
LayerCount: 2
Fore
SplineSet
260 189 m 2,0,1
 260 139 260 139 264 110 c 128,-1,2
 268 81 268 81 279.5 65 c 128,-1,3
 291 49 291 49 312.5 44 c 128,-1,4
 334 39 334 39 369 38 c 1,5,-1
 369 0 l 1,6,-1
 45 0 l 1,7,-1
 45 38 l 1,8,9
 80 39 80 39 101.5 44.5 c 128,-1,10
 123 50 123 50 135 65 c 128,-1,11
 147 80 147 80 151 107.5 c 128,-1,12
 155 135 155 135 155 182 c 2,13,-1
 155 588 l 2,14,15
 155 630 155 630 151.5 657.5 c 128,-1,16
 148 685 148 685 137.5 701 c 128,-1,17
 127 717 127 717 107 723.5 c 128,-1,18
 87 730 87 730 55 732 c 1,19,-1
 55 770 l 1,20,-1
 359 770 l 1,21,-1
 359 732 l 1,22,23
 327 731 327 731 307.5 724 c 128,-1,24
 288 717 288 717 277.5 700.5 c 128,-1,25
 267 684 267 684 263.5 655 c 128,-1,26
 260 626 260 626 260 581 c 2,27,-1
 260 189 l 2,0,1
67 910 m 0,28,29
 67 931 67 931 81.5 945.5 c 128,-1,30
 96 960 96 960 117 960 c 0,31,32
 139 960 139 960 153.5 945.5 c 128,-1,33
 168 931 168 931 168 910 c 0,34,35
 168 888 168 888 153.5 873.5 c 128,-1,36
 139 859 139 859 117 859 c 0,37,38
 96 859 96 859 81.5 873.5 c 128,-1,39
 67 888 67 888 67 910 c 0,28,29
249 910 m 0,40,41
 249 931 249 931 263.5 945.5 c 128,-1,42
 278 960 278 960 300 960 c 0,43,44
 321 960 321 960 335.5 945.5 c 128,-1,45
 350 931 350 931 350 910 c 0,46,47
 350 888 350 888 335.5 873.5 c 128,-1,48
 321 859 321 859 300 859 c 0,49,50
 278 859 278 859 263.5 873.5 c 128,-1,51
 249 888 249 888 249 910 c 0,40,41
EndSplineSet
EndChar

StartChar: Eth
Encoding: 208 208 146
Width: 882
GlyphClass: 1
Flags: W
LayerCount: 2
Fore
SplineSet
76 383 m 1,0,-1
 76 436 l 1,1,-1
 156 436 l 1,2,-1
 156 618 l 2,3,4
 156 653 156 653 152.5 674.5 c 128,-1,5
 149 696 149 696 138.5 708.5 c 128,-1,6
 128 721 128 721 108 725.5 c 128,-1,7
 88 730 88 730 56 732 c 1,8,-1
 56 770 l 1,9,-1
 407 770 l 2,10,11
 497 770 497 770 573.5 740 c 128,-1,12
 650 710 650 710 705.5 657 c 128,-1,13
 761 604 761 604 792 531 c 128,-1,14
 823 458 823 458 823 372 c 0,15,16
 823 290 823 290 794 221.5 c 128,-1,17
 765 153 765 153 712.5 104 c 128,-1,18
 660 55 660 55 587 27.5 c 128,-1,19
 514 0 514 0 427 0 c 2,20,-1
 36 0 l 1,21,-1
 36 38 l 1,22,23
 74 39 74 39 97.5 43.5 c 128,-1,24
 121 48 121 48 134 60.5 c 128,-1,25
 147 73 147 73 151.5 94.5 c 128,-1,26
 156 116 156 116 156 152 c 2,27,-1
 156 383 l 1,28,-1
 76 383 l 1,0,-1
278 721 m 2,29,30
 261 721 261 721 261 704 c 2,31,-1
 261 436 l 1,32,-1
 425 436 l 1,33,-1
 425 383 l 1,34,-1
 261 383 l 1,35,-1
 261 163 l 2,36,37
 261 49 261 49 410 49 c 0,38,39
 547 49 547 49 620 130.5 c 128,-1,40
 693 212 693 212 693 370 c 0,41,42
 693 453 693 453 673 518 c 128,-1,43
 653 583 653 583 615.5 628 c 128,-1,44
 578 673 578 673 525 697 c 128,-1,45
 472 721 472 721 405 721 c 2,46,-1
 278 721 l 2,29,30
EndSplineSet
EndChar

StartChar: Ntilde
Encoding: 209 209 147
Width: 902
GlyphClass: 1
Flags: W
LayerCount: 2
Fore
SplineSet
694 -10 m 1,0,-1
 219 616 l 1,1,-1
 215 616 l 1,2,-1
 215 189 l 2,3,4
 215 139 215 139 218.5 110 c 128,-1,5
 222 81 222 81 232.5 65 c 128,-1,6
 243 49 243 49 262.5 44 c 128,-1,7
 282 39 282 39 314 38 c 1,8,-1
 314 0 l 1,9,-1
 45 0 l 1,10,-1
 45 38 l 1,11,12
 80 39 80 39 101.5 44.5 c 128,-1,13
 123 50 123 50 135 65 c 128,-1,14
 147 80 147 80 151 107.5 c 128,-1,15
 155 135 155 135 155 182 c 2,16,-1
 155 588 l 2,17,18
 155 630 155 630 151.5 657.5 c 128,-1,19
 148 685 148 685 137.5 701 c 128,-1,20
 127 717 127 717 107 723.5 c 128,-1,21
 87 730 87 730 55 732 c 1,22,-1
 55 770 l 1,23,-1
 253 770 l 1,24,-1
 690 187 l 1,25,-1
 694 187 l 1,26,-1
 694 581 l 2,27,28
 694 630 694 630 690.5 659.5 c 128,-1,29
 687 689 687 689 676.5 705 c 128,-1,30
 666 721 666 721 646.5 726 c 128,-1,31
 627 731 627 731 595 732 c 1,32,-1
 595 770 l 1,33,-1
 864 770 l 1,34,-1
 864 732 l 1,35,36
 829 731 829 731 807.5 725.5 c 128,-1,37
 786 720 786 720 774 705 c 128,-1,38
 762 690 762 690 758 662 c 128,-1,39
 754 634 754 634 754 588 c 2,40,-1
 754 -10 l 1,41,-1
 694 -10 l 1,0,-1
293 846 m 1,42,43
 301 897 301 897 330.5 928.5 c 128,-1,44
 360 960 360 960 399 960 c 0,45,46
 419 960 419 960 438.5 953 c 128,-1,47
 458 946 458 946 477.5 937 c 128,-1,48
 497 928 497 928 516 921 c 128,-1,49
 535 914 535 914 554 914 c 256,50,51
 573 914 573 914 583 923.5 c 128,-1,52
 593 933 593 933 601 956 c 1,53,-1
 634 956 l 1,54,55
 629 905 629 905 600.5 871.5 c 128,-1,56
 572 838 572 838 534 838 c 0,57,58
 514 838 514 838 494 845.5 c 128,-1,59
 474 853 474 853 453.5 862 c 128,-1,60
 433 871 433 871 412.5 878.5 c 128,-1,61
 392 886 392 886 372 886 c 0,62,63
 353 886 353 886 343.5 877.5 c 128,-1,64
 334 869 334 869 327 846 c 1,65,-1
 293 846 l 1,42,43
EndSplineSet
EndChar

StartChar: Ograve
Encoding: 210 210 148
Width: 946
GlyphClass: 1
Flags: W
LayerCount: 2
Fore
SplineSet
473 780 m 256,0,1
 561 780 561 780 637 749 c 128,-1,2
 713 718 713 718 769 664 c 128,-1,3
 825 610 825 610 857 537 c 128,-1,4
 889 464 889 464 889 379 c 0,5,6
 889 298 889 298 856.5 227 c 128,-1,7
 824 156 824 156 768 103.5 c 128,-1,8
 712 51 712 51 636 20.5 c 128,-1,9
 560 -10 560 -10 473 -10 c 256,10,11
 386 -10 386 -10 310 20.5 c 128,-1,12
 234 51 234 51 178 103.5 c 128,-1,13
 122 156 122 156 89.5 227 c 128,-1,14
 57 298 57 298 57 379 c 0,15,16
 57 464 57 464 89 537 c 128,-1,17
 121 610 121 610 177 664 c 128,-1,18
 233 718 233 718 309 749 c 128,-1,19
 385 780 385 780 473 780 c 256,0,1
473 45 m 256,20,21
 539 45 539 45 591.5 68 c 128,-1,22
 644 91 644 91 681.5 134 c 128,-1,23
 719 177 719 177 739 238.5 c 128,-1,24
 759 300 759 300 759 376 c 0,25,26
 759 456 759 456 739 520.5 c 128,-1,27
 719 585 719 585 682 630.5 c 128,-1,28
 645 676 645 676 592 700.5 c 128,-1,29
 539 725 539 725 473 725 c 256,30,31
 407 725 407 725 354 700.5 c 128,-1,32
 301 676 301 676 264 630.5 c 128,-1,33
 227 585 227 585 207 520.5 c 128,-1,34
 187 456 187 456 187 376 c 0,35,36
 187 300 187 300 207 238.5 c 128,-1,37
 227 177 227 177 264 134 c 128,-1,38
 301 91 301 91 354 68 c 128,-1,39
 407 45 407 45 473 45 c 256,20,21
520 850 m 1,40,-1
 400 878 l 2,41,42
 366 886 366 886 345.5 897.5 c 128,-1,43
 325 909 325 909 325 925 c 0,44,45
 325 942 325 942 335.5 951 c 128,-1,46
 346 960 346 960 363 960 c 0,47,48
 383 960 383 960 402.5 952 c 128,-1,49
 422 944 422 944 450 927 c 2,50,-1
 580 850 l 1,51,-1
 520 850 l 1,40,-1
EndSplineSet
EndChar

StartChar: Oacute
Encoding: 211 211 149
Width: 946
GlyphClass: 1
Flags: W
LayerCount: 2
Fore
SplineSet
473 780 m 256,0,1
 561 780 561 780 637 749 c 128,-1,2
 713 718 713 718 769 664 c 128,-1,3
 825 610 825 610 857 537 c 128,-1,4
 889 464 889 464 889 379 c 0,5,6
 889 298 889 298 856.5 227 c 128,-1,7
 824 156 824 156 768 103.5 c 128,-1,8
 712 51 712 51 636 20.5 c 128,-1,9
 560 -10 560 -10 473 -10 c 256,10,11
 386 -10 386 -10 310 20.5 c 128,-1,12
 234 51 234 51 178 103.5 c 128,-1,13
 122 156 122 156 89.5 227 c 128,-1,14
 57 298 57 298 57 379 c 0,15,16
 57 464 57 464 89 537 c 128,-1,17
 121 610 121 610 177 664 c 128,-1,18
 233 718 233 718 309 749 c 128,-1,19
 385 780 385 780 473 780 c 256,0,1
473 45 m 256,20,21
 539 45 539 45 591.5 68 c 128,-1,22
 644 91 644 91 681.5 134 c 128,-1,23
 719 177 719 177 739 238.5 c 128,-1,24
 759 300 759 300 759 376 c 0,25,26
 759 456 759 456 739 520.5 c 128,-1,27
 719 585 719 585 682 630.5 c 128,-1,28
 645 676 645 676 592 700.5 c 128,-1,29
 539 725 539 725 473 725 c 256,30,31
 407 725 407 725 354 700.5 c 128,-1,32
 301 676 301 676 264 630.5 c 128,-1,33
 227 585 227 585 207 520.5 c 128,-1,34
 187 456 187 456 187 376 c 0,35,36
 187 300 187 300 207 238.5 c 128,-1,37
 227 177 227 177 264 134 c 128,-1,38
 301 91 301 91 354 68 c 128,-1,39
 407 45 407 45 473 45 c 256,20,21
374 850 m 1,40,-1
 504 927 l 2,41,42
 532 944 532 944 551.5 952 c 128,-1,43
 571 960 571 960 591 960 c 0,44,45
 608 960 608 960 618.5 951 c 128,-1,46
 629 942 629 942 629 925 c 0,47,48
 629 909 629 909 608.5 897.5 c 128,-1,49
 588 886 588 886 554 878 c 2,50,-1
 434 850 l 1,51,-1
 374 850 l 1,40,-1
EndSplineSet
EndChar

StartChar: Ocircumflex
Encoding: 212 212 150
Width: 946
GlyphClass: 1
Flags: W
LayerCount: 2
Fore
SplineSet
473 780 m 256,0,1
 561 780 561 780 637 749 c 128,-1,2
 713 718 713 718 769 664 c 128,-1,3
 825 610 825 610 857 537 c 128,-1,4
 889 464 889 464 889 379 c 0,5,6
 889 298 889 298 856.5 227 c 128,-1,7
 824 156 824 156 768 103.5 c 128,-1,8
 712 51 712 51 636 20.5 c 128,-1,9
 560 -10 560 -10 473 -10 c 256,10,11
 386 -10 386 -10 310 20.5 c 128,-1,12
 234 51 234 51 178 103.5 c 128,-1,13
 122 156 122 156 89.5 227 c 128,-1,14
 57 298 57 298 57 379 c 0,15,16
 57 464 57 464 89 537 c 128,-1,17
 121 610 121 610 177 664 c 128,-1,18
 233 718 233 718 309 749 c 128,-1,19
 385 780 385 780 473 780 c 256,0,1
473 45 m 256,20,21
 539 45 539 45 591.5 68 c 128,-1,22
 644 91 644 91 681.5 134 c 128,-1,23
 719 177 719 177 739 238.5 c 128,-1,24
 759 300 759 300 759 376 c 0,25,26
 759 456 759 456 739 520.5 c 128,-1,27
 719 585 719 585 682 630.5 c 128,-1,28
 645 676 645 676 592 700.5 c 128,-1,29
 539 725 539 725 473 725 c 256,30,31
 407 725 407 725 354 700.5 c 128,-1,32
 301 676 301 676 264 630.5 c 128,-1,33
 227 585 227 585 207 520.5 c 128,-1,34
 187 456 187 456 187 376 c 0,35,36
 187 300 187 300 207 238.5 c 128,-1,37
 227 177 227 177 264 134 c 128,-1,38
 301 91 301 91 354 68 c 128,-1,39
 407 45 407 45 473 45 c 256,20,21
529 960 m 1,40,-1
 638 851 l 1,41,-1
 593 851 l 1,42,-1
 474 905 l 1,43,-1
 355 851 l 1,44,-1
 310 851 l 1,45,-1
 419 960 l 1,46,-1
 529 960 l 1,40,-1
EndSplineSet
EndChar

StartChar: Otilde
Encoding: 213 213 151
Width: 946
GlyphClass: 1
Flags: W
LayerCount: 2
Fore
SplineSet
473 780 m 256,0,1
 561 780 561 780 637 749 c 128,-1,2
 713 718 713 718 769 664 c 128,-1,3
 825 610 825 610 857 537 c 128,-1,4
 889 464 889 464 889 379 c 0,5,6
 889 298 889 298 856.5 227 c 128,-1,7
 824 156 824 156 768 103.5 c 128,-1,8
 712 51 712 51 636 20.5 c 128,-1,9
 560 -10 560 -10 473 -10 c 256,10,11
 386 -10 386 -10 310 20.5 c 128,-1,12
 234 51 234 51 178 103.5 c 128,-1,13
 122 156 122 156 89.5 227 c 128,-1,14
 57 298 57 298 57 379 c 0,15,16
 57 464 57 464 89 537 c 128,-1,17
 121 610 121 610 177 664 c 128,-1,18
 233 718 233 718 309 749 c 128,-1,19
 385 780 385 780 473 780 c 256,0,1
473 45 m 256,20,21
 539 45 539 45 591.5 68 c 128,-1,22
 644 91 644 91 681.5 134 c 128,-1,23
 719 177 719 177 739 238.5 c 128,-1,24
 759 300 759 300 759 376 c 0,25,26
 759 456 759 456 739 520.5 c 128,-1,27
 719 585 719 585 682 630.5 c 128,-1,28
 645 676 645 676 592 700.5 c 128,-1,29
 539 725 539 725 473 725 c 256,30,31
 407 725 407 725 354 700.5 c 128,-1,32
 301 676 301 676 264 630.5 c 128,-1,33
 227 585 227 585 207 520.5 c 128,-1,34
 187 456 187 456 187 376 c 0,35,36
 187 300 187 300 207 238.5 c 128,-1,37
 227 177 227 177 264 134 c 128,-1,38
 301 91 301 91 354 68 c 128,-1,39
 407 45 407 45 473 45 c 256,20,21
303 846 m 1,40,41
 311 897 311 897 340.5 928.5 c 128,-1,42
 370 960 370 960 409 960 c 0,43,44
 429 960 429 960 448.5 953 c 128,-1,45
 468 946 468 946 487.5 937 c 128,-1,46
 507 928 507 928 526 921 c 128,-1,47
 545 914 545 914 564 914 c 256,48,49
 583 914 583 914 593 923.5 c 128,-1,50
 603 933 603 933 611 956 c 1,51,-1
 644 956 l 1,52,53
 639 905 639 905 610.5 871.5 c 128,-1,54
 582 838 582 838 544 838 c 0,55,56
 524 838 524 838 504 845.5 c 128,-1,57
 484 853 484 853 463.5 862 c 128,-1,58
 443 871 443 871 422.5 878.5 c 128,-1,59
 402 886 402 886 382 886 c 0,60,61
 363 886 363 886 353.5 877.5 c 128,-1,62
 344 869 344 869 337 846 c 1,63,-1
 303 846 l 1,40,41
EndSplineSet
EndChar

StartChar: Odieresis
Encoding: 214 214 152
Width: 946
GlyphClass: 1
Flags: W
LayerCount: 2
Fore
SplineSet
473 780 m 256,0,1
 561 780 561 780 637 749 c 128,-1,2
 713 718 713 718 769 664 c 128,-1,3
 825 610 825 610 857 537 c 128,-1,4
 889 464 889 464 889 379 c 0,5,6
 889 298 889 298 856.5 227 c 128,-1,7
 824 156 824 156 768 103.5 c 128,-1,8
 712 51 712 51 636 20.5 c 128,-1,9
 560 -10 560 -10 473 -10 c 256,10,11
 386 -10 386 -10 310 20.5 c 128,-1,12
 234 51 234 51 178 103.5 c 128,-1,13
 122 156 122 156 89.5 227 c 128,-1,14
 57 298 57 298 57 379 c 0,15,16
 57 464 57 464 89 537 c 128,-1,17
 121 610 121 610 177 664 c 128,-1,18
 233 718 233 718 309 749 c 128,-1,19
 385 780 385 780 473 780 c 256,0,1
473 45 m 256,20,21
 539 45 539 45 591.5 68 c 128,-1,22
 644 91 644 91 681.5 134 c 128,-1,23
 719 177 719 177 739 238.5 c 128,-1,24
 759 300 759 300 759 376 c 0,25,26
 759 456 759 456 739 520.5 c 128,-1,27
 719 585 719 585 682 630.5 c 128,-1,28
 645 676 645 676 592 700.5 c 128,-1,29
 539 725 539 725 473 725 c 256,30,31
 407 725 407 725 354 700.5 c 128,-1,32
 301 676 301 676 264 630.5 c 128,-1,33
 227 585 227 585 207 520.5 c 128,-1,34
 187 456 187 456 187 376 c 0,35,36
 187 300 187 300 207 238.5 c 128,-1,37
 227 177 227 177 264 134 c 128,-1,38
 301 91 301 91 354 68 c 128,-1,39
 407 45 407 45 473 45 c 256,20,21
333 910 m 0,40,41
 333 931 333 931 347.5 945.5 c 128,-1,42
 362 960 362 960 383 960 c 0,43,44
 405 960 405 960 419.5 945.5 c 128,-1,45
 434 931 434 931 434 910 c 0,46,47
 434 888 434 888 419.5 873.5 c 128,-1,48
 405 859 405 859 383 859 c 0,49,50
 362 859 362 859 347.5 873.5 c 128,-1,51
 333 888 333 888 333 910 c 0,40,41
515 910 m 0,52,53
 515 931 515 931 529.5 945.5 c 128,-1,54
 544 960 544 960 566 960 c 0,55,56
 587 960 587 960 601.5 945.5 c 128,-1,57
 616 931 616 931 616 910 c 0,58,59
 616 888 616 888 601.5 873.5 c 128,-1,60
 587 859 587 859 566 859 c 0,61,62
 544 859 544 859 529.5 873.5 c 128,-1,63
 515 888 515 888 515 910 c 0,52,53
EndSplineSet
EndChar

StartChar: multiply
Encoding: 215 215 153
Width: 519
GlyphClass: 1
Flags: W
LayerCount: 2
Fore
SplineSet
68 184 m 1,0,-1
 223 339 l 1,1,-1
 69 493 l 1,2,-1
 104 528 l 1,3,-1
 258 374 l 1,4,-1
 413 529 l 1,5,-1
 450 492 l 1,6,-1
 295 337 l 1,7,-1
 449 183 l 1,8,-1
 414 148 l 1,9,-1
 260 302 l 1,10,-1
 105 147 l 1,11,-1
 68 184 l 1,0,-1
EndSplineSet
EndChar

StartChar: Oslash
Encoding: 216 216 154
Width: 946
GlyphClass: 1
Flags: W
LayerCount: 2
Fore
SplineSet
473 780 m 0,0,1
 535 780 535 780 591 764.5 c 128,-1,2
 647 749 647 749 695 720 c 1,3,-1
 782 830 l 1,4,-1
 851 830 l 1,5,-1
 740 689 l 1,6,7
 809 634 809 634 849 554.5 c 128,-1,8
 889 475 889 475 889 379 c 0,9,10
 889 298 889 298 856.5 227 c 128,-1,11
 824 156 824 156 768 103.5 c 128,-1,12
 712 51 712 51 636 20.5 c 128,-1,13
 560 -10 560 -10 473 -10 c 0,14,15
 407 -10 407 -10 348.5 7 c 128,-1,16
 290 24 290 24 239 56 c 1,17,-1
 131 -81 l 1,18,-1
 63 -81 l 1,19,-1
 196 87 l 1,20,21
 131 141 131 141 94 216 c 128,-1,22
 57 291 57 291 57 379 c 0,23,24
 57 464 57 464 89 537 c 128,-1,25
 121 610 121 610 177 664 c 128,-1,26
 233 718 233 718 309 749 c 128,-1,27
 385 780 385 780 473 780 c 0,0,1
473 45 m 0,28,29
 539 45 539 45 591.5 68 c 128,-1,30
 644 91 644 91 681.5 134 c 128,-1,31
 719 177 719 177 739 238.5 c 128,-1,32
 759 300 759 300 759 376 c 0,33,34
 759 454 759 454 741 516 c 128,-1,35
 723 578 723 578 688 623 c 1,36,-1
 284 113 l 1,37,38
 358 45 358 45 473 45 c 0,28,29
187 376 m 0,39,40
 187 239 187 239 248 154 c 1,41,-1
 650 663 l 1,42,43
 579 725 579 725 473 725 c 0,44,45
 407 725 407 725 354 700.5 c 128,-1,46
 301 676 301 676 264 630.5 c 128,-1,47
 227 585 227 585 207 520.5 c 128,-1,48
 187 456 187 456 187 376 c 0,39,40
EndSplineSet
EndChar

StartChar: Ugrave
Encoding: 217 217 155
Width: 861
GlyphClass: 1
Flags: W
LayerCount: 2
Fore
SplineSet
722 310 m 2,0,1
 722 231 722 231 706.5 171 c 128,-1,2
 691 111 691 111 656.5 71 c 128,-1,3
 622 31 622 31 567 10.5 c 128,-1,4
 512 -10 512 -10 434 -10 c 0,5,6
 360 -10 360 -10 305 4.5 c 128,-1,7
 250 19 250 19 213 52.5 c 128,-1,8
 176 86 176 86 158 140 c 128,-1,9
 140 194 140 194 140 273 c 2,10,-1
 140 537 l 2,11,12
 140 611 140 611 136.5 651 c 128,-1,13
 133 691 133 691 116 710 c 0,14,15
 104 723 104 723 83.5 727.5 c 128,-1,16
 63 732 63 732 29 732 c 1,17,-1
 29 770 l 1,18,-1
 370 770 l 1,19,-1
 370 732 l 1,20,21
 336 732 336 732 315 728 c 128,-1,22
 294 724 294 724 282 708 c 0,23,24
 268 690 268 690 264 650.5 c 128,-1,25
 260 611 260 611 260 537 c 2,26,-1
 260 265 l 2,27,28
 260 214 260 214 270.5 174.5 c 128,-1,29
 281 135 281 135 305 107.5 c 128,-1,30
 329 80 329 80 367.5 66 c 128,-1,31
 406 52 406 52 462 52 c 0,32,33
 562 52 562 52 612 107.5 c 128,-1,34
 662 163 662 163 662 271 c 2,35,-1
 662 512 l 2,36,37
 662 601 662 601 655 647 c 128,-1,38
 648 693 648 693 629 712 c 0,39,40
 615 725 615 725 594 728.5 c 128,-1,41
 573 732 573 732 542 732 c 1,42,-1
 542 770 l 1,43,-1
 832 770 l 1,44,-1
 832 732 l 1,45,46
 800 732 800 732 779.5 727 c 128,-1,47
 759 722 759 722 747 705 c 0,48,49
 732 684 732 684 727 639.5 c 128,-1,50
 722 595 722 595 722 512 c 2,51,-1
 722 310 l 2,0,1
505 850 m 1,52,-1
 385 878 l 2,53,54
 351 886 351 886 330.5 897.5 c 128,-1,55
 310 909 310 909 310 925 c 0,56,57
 310 942 310 942 320.5 951 c 128,-1,58
 331 960 331 960 348 960 c 0,59,60
 368 960 368 960 387.5 952 c 128,-1,61
 407 944 407 944 435 927 c 2,62,-1
 565 850 l 1,63,-1
 505 850 l 1,52,-1
EndSplineSet
EndChar

StartChar: Uacute
Encoding: 218 218 156
Width: 861
GlyphClass: 1
Flags: W
LayerCount: 2
Fore
SplineSet
722 310 m 2,0,1
 722 231 722 231 706.5 171 c 128,-1,2
 691 111 691 111 656.5 71 c 128,-1,3
 622 31 622 31 567 10.5 c 128,-1,4
 512 -10 512 -10 434 -10 c 0,5,6
 360 -10 360 -10 305 4.5 c 128,-1,7
 250 19 250 19 213 52.5 c 128,-1,8
 176 86 176 86 158 140 c 128,-1,9
 140 194 140 194 140 273 c 2,10,-1
 140 537 l 2,11,12
 140 611 140 611 136.5 651 c 128,-1,13
 133 691 133 691 116 710 c 0,14,15
 104 723 104 723 83.5 727.5 c 128,-1,16
 63 732 63 732 29 732 c 1,17,-1
 29 770 l 1,18,-1
 370 770 l 1,19,-1
 370 732 l 1,20,21
 336 732 336 732 315 728 c 128,-1,22
 294 724 294 724 282 708 c 0,23,24
 268 690 268 690 264 650.5 c 128,-1,25
 260 611 260 611 260 537 c 2,26,-1
 260 265 l 2,27,28
 260 214 260 214 270.5 174.5 c 128,-1,29
 281 135 281 135 305 107.5 c 128,-1,30
 329 80 329 80 367.5 66 c 128,-1,31
 406 52 406 52 462 52 c 0,32,33
 562 52 562 52 612 107.5 c 128,-1,34
 662 163 662 163 662 271 c 2,35,-1
 662 512 l 2,36,37
 662 601 662 601 655 647 c 128,-1,38
 648 693 648 693 629 712 c 0,39,40
 615 725 615 725 594 728.5 c 128,-1,41
 573 732 573 732 542 732 c 1,42,-1
 542 770 l 1,43,-1
 832 770 l 1,44,-1
 832 732 l 1,45,46
 800 732 800 732 779.5 727 c 128,-1,47
 759 722 759 722 747 705 c 0,48,49
 732 684 732 684 727 639.5 c 128,-1,50
 722 595 722 595 722 512 c 2,51,-1
 722 310 l 2,0,1
359 850 m 1,52,-1
 489 927 l 2,53,54
 517 944 517 944 536.5 952 c 128,-1,55
 556 960 556 960 576 960 c 0,56,57
 593 960 593 960 603.5 951 c 128,-1,58
 614 942 614 942 614 925 c 0,59,60
 614 909 614 909 593.5 897.5 c 128,-1,61
 573 886 573 886 539 878 c 2,62,-1
 419 850 l 1,63,-1
 359 850 l 1,52,-1
EndSplineSet
EndChar

StartChar: Ucircumflex
Encoding: 219 219 157
Width: 861
GlyphClass: 1
Flags: W
LayerCount: 2
Fore
SplineSet
722 310 m 2,0,1
 722 231 722 231 706.5 171 c 128,-1,2
 691 111 691 111 656.5 71 c 128,-1,3
 622 31 622 31 567 10.5 c 128,-1,4
 512 -10 512 -10 434 -10 c 0,5,6
 360 -10 360 -10 305 4.5 c 128,-1,7
 250 19 250 19 213 52.5 c 128,-1,8
 176 86 176 86 158 140 c 128,-1,9
 140 194 140 194 140 273 c 2,10,-1
 140 537 l 2,11,12
 140 611 140 611 136.5 651 c 128,-1,13
 133 691 133 691 116 710 c 0,14,15
 104 723 104 723 83.5 727.5 c 128,-1,16
 63 732 63 732 29 732 c 1,17,-1
 29 770 l 1,18,-1
 370 770 l 1,19,-1
 370 732 l 1,20,21
 336 732 336 732 315 728 c 128,-1,22
 294 724 294 724 282 708 c 0,23,24
 268 690 268 690 264 650.5 c 128,-1,25
 260 611 260 611 260 537 c 2,26,-1
 260 265 l 2,27,28
 260 214 260 214 270.5 174.5 c 128,-1,29
 281 135 281 135 305 107.5 c 128,-1,30
 329 80 329 80 367.5 66 c 128,-1,31
 406 52 406 52 462 52 c 0,32,33
 562 52 562 52 612 107.5 c 128,-1,34
 662 163 662 163 662 271 c 2,35,-1
 662 512 l 2,36,37
 662 601 662 601 655 647 c 128,-1,38
 648 693 648 693 629 712 c 0,39,40
 615 725 615 725 594 728.5 c 128,-1,41
 573 732 573 732 542 732 c 1,42,-1
 542 770 l 1,43,-1
 832 770 l 1,44,-1
 832 732 l 1,45,46
 800 732 800 732 779.5 727 c 128,-1,47
 759 722 759 722 747 705 c 0,48,49
 732 684 732 684 727 639.5 c 128,-1,50
 722 595 722 595 722 512 c 2,51,-1
 722 310 l 2,0,1
514 960 m 1,52,-1
 623 851 l 1,53,-1
 578 851 l 1,54,-1
 459 905 l 1,55,-1
 340 851 l 1,56,-1
 295 851 l 1,57,-1
 404 960 l 1,58,-1
 514 960 l 1,52,-1
EndSplineSet
EndChar

StartChar: Udieresis
Encoding: 220 220 158
Width: 861
GlyphClass: 1
Flags: W
LayerCount: 2
Fore
SplineSet
722 310 m 2,0,1
 722 231 722 231 706.5 171 c 128,-1,2
 691 111 691 111 656.5 71 c 128,-1,3
 622 31 622 31 567 10.5 c 128,-1,4
 512 -10 512 -10 434 -10 c 0,5,6
 360 -10 360 -10 305 4.5 c 128,-1,7
 250 19 250 19 213 52.5 c 128,-1,8
 176 86 176 86 158 140 c 128,-1,9
 140 194 140 194 140 273 c 2,10,-1
 140 537 l 2,11,12
 140 611 140 611 136.5 651 c 128,-1,13
 133 691 133 691 116 710 c 0,14,15
 104 723 104 723 83.5 727.5 c 128,-1,16
 63 732 63 732 29 732 c 1,17,-1
 29 770 l 1,18,-1
 370 770 l 1,19,-1
 370 732 l 1,20,21
 336 732 336 732 315 728 c 128,-1,22
 294 724 294 724 282 708 c 0,23,24
 268 690 268 690 264 650.5 c 128,-1,25
 260 611 260 611 260 537 c 2,26,-1
 260 265 l 2,27,28
 260 214 260 214 270.5 174.5 c 128,-1,29
 281 135 281 135 305 107.5 c 128,-1,30
 329 80 329 80 367.5 66 c 128,-1,31
 406 52 406 52 462 52 c 0,32,33
 562 52 562 52 612 107.5 c 128,-1,34
 662 163 662 163 662 271 c 2,35,-1
 662 512 l 2,36,37
 662 601 662 601 655 647 c 128,-1,38
 648 693 648 693 629 712 c 0,39,40
 615 725 615 725 594 728.5 c 128,-1,41
 573 732 573 732 542 732 c 1,42,-1
 542 770 l 1,43,-1
 832 770 l 1,44,-1
 832 732 l 1,45,46
 800 732 800 732 779.5 727 c 128,-1,47
 759 722 759 722 747 705 c 0,48,49
 732 684 732 684 727 639.5 c 128,-1,50
 722 595 722 595 722 512 c 2,51,-1
 722 310 l 2,0,1
318 910 m 0,52,53
 318 931 318 931 332.5 945.5 c 128,-1,54
 347 960 347 960 368 960 c 0,55,56
 390 960 390 960 404.5 945.5 c 128,-1,57
 419 931 419 931 419 910 c 0,58,59
 419 888 419 888 404.5 873.5 c 128,-1,60
 390 859 390 859 368 859 c 0,61,62
 347 859 347 859 332.5 873.5 c 128,-1,63
 318 888 318 888 318 910 c 0,52,53
500 910 m 0,64,65
 500 931 500 931 514.5 945.5 c 128,-1,66
 529 960 529 960 551 960 c 0,67,68
 572 960 572 960 586.5 945.5 c 128,-1,69
 601 931 601 931 601 910 c 0,70,71
 601 888 601 888 586.5 873.5 c 128,-1,72
 572 859 572 859 551 859 c 0,73,74
 529 859 529 859 514.5 873.5 c 128,-1,75
 500 888 500 888 500 910 c 0,64,65
EndSplineSet
EndChar

